mtllib cupboard_drawer.mtl
g cupboard_drawer
#Vertices 124
#Indices 186
#Section 0 Offset 0 NumIndices 186 MaterialIndex 0 hospitalFurniture_Mat
v 0.051267 0.229999 0.024298
v -0.051245 0.210187 0.024298
v -0.051245 0.229999 0.024298
v 0.051267 0.210187 0.024298
v 0.051267 0.229999 0.004486
v -0.051245 0.229999 0.004486
v 0.051267 0.210187 0.004486
v -0.051245 0.210187 0.004486
v -0.051245 0.210187 0.024298
v -0.051245 0.210187 0.004486
v -0.051245 0.229999 0.024298
v -0.051245 0.229999 0.004486
v -0.051245 0.229999 0.004486
v 0.051267 0.229999 0.024298
v -0.051245 0.229999 0.024298
v 0.051267 0.229999 0.004486
v 0.051267 0.229999 0.004486
v 0.051267 0.210187 0.024298
v 0.051267 0.229999 0.024298
v 0.051267 0.210187 0.004486
v 0.226051 0.215283 0.085115
v -0.226029 0.215283 0.085115
v -0.226029 0.215283 -0.056331
v 0.226051 0.215283 -0.056331
v -0.226029 0.215283 0.085115
v 0.226051 0.215283 0.085115
v 0.226051 0.198149 0.085115
v -0.226029 0.198149 0.085115
v 0.226051 0.215283 0.085115
v 0.226051 0.198149 -0.056331
v 0.226051 0.198149 0.085115
v 0.226051 0.215283 -0.056331
v -0.226029 0.215283 -0.056331
v -0.226029 0.215283 0.085115
v -0.226029 0.198149 0.085115
v -0.226029 0.198149 -0.056331
v -0.226029 0.198149 -0.056331
v 0.226051 0.198149 -0.056331
v 0.226051 0.215283 -0.056331
v -0.226029 0.215283 -0.056331
v 0.226051 0.198149 -0.056331
v -0.226029 0.198149 -0.056331
v 0.226051 0.198149 0.085115
v -0.226029 0.198149 0.085115
v 0.226051 0.197729 -0.043890
v -0.226029 0.197729 -0.043890
v -0.226029 0.197729 -0.056331
v 0.226051 0.197729 -0.056331
v -0.226029 0.197729 -0.043890
v 0.226051 0.197729 -0.043890
v 0.226051 -0.286405 -0.043890
v -0.226029 -0.286405 -0.043890
v 0.226051 0.197729 -0.043890
v 0.226051 -0.286405 -0.056331
v 0.226051 -0.286405 -0.043890
v 0.226051 0.197729 -0.056331
v -0.226029 -0.286405 -0.056331
v -0.226029 0.197729 -0.056331
v -0.226029 -0.286405 -0.043890
v -0.226029 0.197729 -0.043890
v 0.226051 -0.286405 -0.056331
v 0.226051 0.197729 -0.056331
v -0.226029 -0.286405 -0.056331
v -0.226029 0.197729 -0.056331
v 0.226051 -0.286405 -0.056331
v -0.226029 -0.286405 -0.056331
v 0.226051 -0.286405 -0.043890
v -0.226029 -0.286405 -0.043890
v 0.226051 -0.285767 0.085115
v -0.226029 -0.285767 0.085115
v -0.226029 -0.285767 -0.056331
v 0.226051 -0.285767 -0.056331
v -0.226029 -0.285767 0.085115
v 0.226051 -0.285767 0.085115
v 0.226051 -0.302901 0.085115
v -0.226029 -0.302901 0.085115
v 0.226051 -0.285767 0.085115
v 0.226051 -0.302901 -0.056331
v 0.226051 -0.302901 0.085115
v 0.226051 -0.285767 -0.056331
v -0.226029 -0.285767 -0.056331
v -0.226029 -0.285767 0.085115
v -0.226029 -0.302901 0.085115
v -0.226029 -0.302901 -0.056331
v -0.226029 -0.302901 -0.056331
v 0.226051 -0.302901 -0.056331
v 0.226051 -0.285767 -0.056331
v -0.226029 -0.285767 -0.056331
v 0.226051 -0.302901 -0.056331
v -0.226029 -0.302901 -0.056331
v 0.226051 -0.302901 0.085115
v -0.226029 -0.302901 0.085115
v -0.216221 -0.287033 0.063265
v -0.216221 0.198895 0.063264
v -0.216221 0.198895 -0.056331
v -0.216221 -0.287033 -0.056331
v -0.216221 0.198895 0.063264
v -0.223904 -0.287033 0.063265
v -0.223904 0.198895 0.063264
v -0.216221 -0.287033 0.063265
v 0.223859 -0.287033 0.063265
v 0.223859 0.198895 0.063264
v 0.223859 0.198895 -0.056331
v 0.223859 -0.287033 -0.056331
v 0.223859 0.198895 0.063264
v 0.216177 -0.287033 0.063265
v 0.216177 0.198895 0.063264
v 0.223859 -0.287033 0.063265
v -0.223904 -0.287033 -0.056331
v -0.216221 0.198895 -0.056331
v -0.223904 0.198895 -0.056331
v -0.216221 -0.287033 -0.056331
v -0.223904 -0.287033 -0.056331
v -0.223904 0.198895 -0.056331
v -0.223904 -0.287033 0.063265
v -0.223904 0.198895 0.063264
v 0.216177 -0.287033 -0.056331
v 0.223859 0.198895 -0.056331
v 0.216177 0.198895 -0.056331
v 0.223859 -0.287033 -0.056331
v 0.216177 -0.287033 -0.056331
v 0.216177 0.198895 -0.056331
v 0.216177 -0.287033 0.063265
v 0.216177 0.198895 0.063264
vt 0.402588 0.169312
vt 0.395508 0.242554
vt 0.402588 0.242554
vt 0.395508 0.169312
vt 0.402588 0.329834
vt 0.402588 0.256592
vt 0.395508 0.329834
vt 0.395508 0.256592
vt 0.395508 0.242554
vt 0.395508 0.256592
vt 0.402588 0.242554
vt 0.402588 0.256592
vt 0.363770 0.195068
vt 0.373291 0.293701
vt 0.373291 0.195068
vt 0.363770 0.293701
vt 0.402588 0.155151
vt 0.395508 0.169312
vt 0.402588 0.169312
vt 0.395508 0.155151
vt 0.189209 0.000000
vt 0.000000 0.000000
vt 0.000000 0.180542
vt 0.189209 0.180542
vt 0.001039 0.087830
vt 0.001039 0.531738
vt 0.009453 0.531738
vt 0.009453 0.087830
vt 0.001039 0.531738
vt 0.009453 0.670410
vt 0.009453 0.531738
vt 0.001039 0.670410
vt 0.001039 0.096130
vt 0.001039 0.234985
vt 0.009453 0.234985
vt 0.009453 0.096130
vt 0.009453 0.546875
vt 0.009453 0.103149
vt 0.001039 0.103149
vt 0.001039 0.546875
vt 0.021851 0.132080
vt 0.167358 0.132080
vt 0.021851 0.001139
vt 0.167358 0.001139
vt 0.189209 0.000000
vt 0.000000 0.000000
vt 0.000000 0.180542
vt 0.189209 0.180542
vt 0.597656 0.715820
vt 0.597656 0.396729
vt 0.411621 0.396729
vt 0.411621 0.715820
vt 0.189209 0.000000
vt 0.000000 0.180542
vt 0.189209 0.180542
vt 0.000000 0.000000
vt 0.189209 0.180542
vt 0.189209 0.000000
vt 0.000000 0.180542
vt 0.000000 0.000000
vt 0.189209 0.180542
vt 0.189209 0.000000
vt 0.000000 0.180542
vt 0.000000 0.000000
vt 0.189209 0.180542
vt 0.189209 0.000000
vt 0.000000 0.180542
vt 0.000000 0.000000
vt 0.189209 0.000000
vt 0.000000 0.000000
vt 0.000000 0.180542
vt 0.189209 0.180542
vt 0.000906 0.174194
vt 0.000906 0.572754
vt 0.008453 0.572754
vt 0.008453 0.174194
vt 0.000906 0.572754
vt 0.008453 0.697266
vt 0.008453 0.572754
vt 0.000906 0.697266
vt 0.000906 0.049561
vt 0.000906 0.174194
vt 0.008453 0.174194
vt 0.008453 0.049561
vt 0.008453 0.514160
vt 0.008453 0.116028
vt 0.000906 0.116028
vt 0.000906 0.514160
vt 0.021851 0.132080
vt 0.167358 0.132080
vt 0.021851 0.001139
vt 0.167358 0.001139
vt 0.189209 0.000000
vt 0.000000 0.000000
vt 0.000000 0.180542
vt 0.189209 0.180542
vt 0.189209 0.000000
vt 0.000000 0.180542
vt 0.189209 0.180542
vt 0.000000 0.000000
vt 0.189209 0.000000
vt 0.000000 0.000000
vt 0.000000 0.180542
vt 0.189209 0.180542
vt 0.189209 0.000000
vt 0.000000 0.180542
vt 0.189209 0.180542
vt 0.000000 0.000000
vt 0.189209 0.180542
vt 0.000000 0.000000
vt 0.000000 0.180542
vt 0.189209 0.000000
vt 0.022186 0.096313
vt 0.166992 0.096313
vt 0.022186 0.002195
vt 0.166992 0.002195
vt 0.189209 0.180542
vt 0.000000 0.000000
vt 0.000000 0.180542
vt 0.189209 0.000000
vt 0.011360 0.104248
vt 0.177856 0.104248
vt 0.011360 0.002060
vt 0.177856 0.002060
vt1 0.446045 0.788574
vt1 0.531250 0.805176
vt1 0.531250 0.788574
vt1 0.446045 0.805176
vt1 0.632812 0.788574
vt1 0.547363 0.788574
vt1 0.632812 0.805176
vt1 0.547363 0.805176
vt1 0.531250 0.805176
vt1 0.547363 0.805176
vt1 0.531250 0.788574
vt1 0.547363 0.788574
vt1 0.882812 0.851562
vt1 0.898926 0.936523
vt1 0.898926 0.851562
vt1 0.882812 0.936523
vt1 0.429688 0.788574
vt1 0.446045 0.805176
vt1 0.446045 0.788574
vt1 0.429688 0.805176
vt1 0.570312 0.007812
vt1 0.570312 0.383057
vt1 0.687500 0.383057
vt1 0.687500 0.007812
vt1 0.960938 0.007812
vt1 0.960938 0.383057
vt1 0.975098 0.383057
vt1 0.975098 0.007812
vt1 0.960938 0.383057
vt1 0.975098 0.500488
vt1 0.975098 0.383057
vt1 0.960938 0.500488
vt1 0.851562 0.851562
vt1 0.851562 0.968750
vt1 0.865723 0.968750
vt1 0.865723 0.851562
vt1 0.756348 0.383057
vt1 0.756348 0.007812
vt1 0.742188 0.007812
vt1 0.742188 0.383057
vt1 0.656250 0.773438
vt1 0.656250 0.398438
vt1 0.539062 0.773438
vt1 0.539062 0.398438
vt1 0.383057 0.976562
vt1 0.007812 0.976562
vt1 0.007812 0.986816
vt1 0.383057 0.986816
vt1 0.409668 0.383057
vt1 0.409668 0.007812
vt1 0.007812 0.007812
vt1 0.007812 0.383057
vt1 0.971191 0.523438
vt1 0.960938 0.925293
vt1 0.971191 0.925293
vt1 0.960938 0.523438
vt1 0.409668 0.945312
vt1 0.007812 0.945312
vt1 0.409668 0.955566
vt1 0.007812 0.955566
vt1 0.383057 0.800293
vt1 0.383057 0.398438
vt1 0.007812 0.800293
vt1 0.007812 0.398438
vt1 0.783691 0.383057
vt1 0.783691 0.007812
vt1 0.773438 0.383057
vt1 0.773438 0.007812
vt1 0.398438 0.398438
vt1 0.398438 0.773438
vt1 0.515625 0.773438
vt1 0.515625 0.398438
vt1 0.929688 0.125244
vt1 0.929688 0.500488
vt1 0.943848 0.500488
vt1 0.943848 0.125244
vt1 0.929688 0.500488
vt1 0.943848 0.617676
vt1 0.943848 0.500488
vt1 0.929688 0.617676
vt1 0.929688 0.007812
vt1 0.929688 0.125244
vt1 0.943848 0.125244
vt1 0.943848 0.007812
vt1 0.725098 0.383057
vt1 0.725098 0.007812
vt1 0.710938 0.007812
vt1 0.710938 0.383057
vt1 0.546875 0.383057
vt1 0.546875 0.007812
vt1 0.429688 0.383057
vt1 0.429688 0.007812
vt1 0.804688 0.429443
vt1 0.804688 0.833008
vt1 0.903809 0.833008
vt1 0.903809 0.429443
vt1 0.833008 0.914062
vt1 0.429688 0.920410
vt1 0.833008 0.920410
vt1 0.429688 0.914062
vt1 0.411133 0.820312
vt1 0.007812 0.820312
vt1 0.007812 0.919434
vt1 0.411133 0.919434
vt1 0.801758 0.976562
vt1 0.398438 0.982910
vt1 0.801758 0.982910
vt1 0.398438 0.976562
vt1 0.833008 0.857910
vt1 0.429688 0.851562
vt1 0.429688 0.857910
vt1 0.833008 0.851562
vt1 0.903809 0.411133
vt1 0.903809 0.007812
vt1 0.804688 0.411133
vt1 0.804688 0.007812
vt1 0.833008 0.889160
vt1 0.429688 0.882812
vt1 0.429688 0.889160
vt1 0.833008 0.882812
vt1 0.778809 0.801758
vt1 0.778809 0.398438
vt1 0.679688 0.801758
vt1 0.679688 0.398438
vn 0.000000 0.000000 1.000000
vn 0.000000 0.000000 1.000000
vn 0.000000 0.000000 1.000000
vn 0.000000 0.000000 1.000000
vn 0.000000 0.000000 -1.000000
vn 0.000000 0.000000 -1.000000
vn 0.000000 0.000000 -1.000000
vn 0.000000 0.000000 -1.000000
vn -1.000000 0.000000 0.000000
vn -1.000000 0.000000 0.000000
vn -1.000000 0.000000 0.000000
vn -1.000000 0.000000 0.000000
vn 0.000000 1.000000 0.000000
vn 0.000000 1.000000 0.000000
vn 0.000000 1.000000 0.000000
vn 0.000000 1.000000 0.000000
vn 1.000000 0.000000 0.000000
vn 1.000000 0.000000 0.000000
vn 1.000000 0.000000 0.000000
vn 1.000000 0.000000 0.000000
vn 0.000000 1.000000 0.000000
vn 0.000000 1.000000 0.000000
vn 0.000000 1.000000 0.000000
vn 0.000000 1.000000 0.000000
vn 0.000000 0.000000 1.000000
vn 0.000000 0.000000 1.000000
vn 0.000000 0.000000 1.000000
vn 0.000000 0.000000 1.000000
vn 1.000000 0.000000 0.000000
vn 1.000000 0.000000 0.000000
vn 1.000000 0.000000 0.000000
vn 1.000000 0.000000 0.000000
vn -1.000000 0.000000 0.000000
vn -1.000000 0.000000 0.000000
vn -1.000000 0.000000 0.000000
vn -1.000000 0.000000 0.000000
vn 0.000000 0.000000 -1.000000
vn 0.000000 0.000000 -1.000000
vn 0.000000 0.000000 -1.000000
vn 0.000000 0.000000 -1.000000
vn 0.000000 -1.000000 0.000000
vn 0.000000 -1.000000 0.000000
vn 0.000000 -1.000000 0.000000
vn 0.000000 -1.000000 0.000000
vn 0.000000 1.000000 0.000000
vn 0.000000 1.000000 0.000000
vn 0.000000 1.000000 0.000000
vn 0.000000 1.000000 0.000000
vn 0.000000 0.000000 1.000000
vn 0.000000 0.000000 1.000000
vn 0.000000 0.000000 1.000000
vn 0.000000 0.000000 1.000000
vn 1.000000 0.000000 0.000000
vn 1.000000 0.000000 0.000000
vn 1.000000 0.000000 0.000000
vn 1.000000 0.000000 0.000000
vn -1.000000 0.000000 0.000000
vn -1.000000 0.000000 0.000000
vn -1.000000 0.000000 0.000000
vn -1.000000 0.000000 0.000000
vn 0.000000 0.000000 -1.000000
vn 0.000000 0.000000 -1.000000
vn 0.000000 0.000000 -1.000000
vn 0.000000 0.000000 -1.000000
vn 0.000000 -1.000000 0.000000
vn 0.000000 -1.000000 0.000000
vn 0.000000 -1.000000 0.000000
vn 0.000000 -1.000000 0.000000
vn 0.000000 1.000000 0.000000
vn 0.000000 1.000000 0.000000
vn 0.000000 1.000000 0.000000
vn 0.000000 1.000000 0.000000
vn 0.000000 0.000000 1.000000
vn 0.000000 0.000000 1.000000
vn 0.000000 0.000000 1.000000
vn 0.000000 0.000000 1.000000
vn 1.000000 0.000000 0.000000
vn 1.000000 0.000000 0.000000
vn 1.000000 0.000000 0.000000
vn 1.000000 0.000000 0.000000
vn -1.000000 0.000000 0.000000
vn -1.000000 0.000000 0.000000
vn -1.000000 0.000000 0.000000
vn -1.000000 0.000000 0.000000
vn 0.000000 0.000000 -1.000000
vn 0.000000 0.000000 -1.000000
vn 0.000000 0.000000 -1.000000
vn 0.000000 0.000000 -1.000000
vn 0.000000 -1.000000 0.000000
vn 0.000000 -1.000000 0.000000
vn 0.000000 -1.000000 0.000000
vn 0.000000 -1.000000 0.000000
vn 1.000000 0.000000 0.000000
vn 1.000000 0.000000 0.000000
vn 1.000000 0.000000 0.000000
vn 1.000000 0.000000 0.000000
vn 0.000000 0.000000 1.000000
vn 0.000000 0.000000 1.000000
vn 0.000000 0.000000 1.000000
vn 0.000000 0.000000 1.000000
vn 1.000000 0.000000 0.000000
vn 1.000000 0.000000 0.000000
vn 1.000000 0.000000 0.000000
vn 1.000000 0.000000 0.000000
vn 0.000000 0.000000 1.000000
vn 0.000000 0.000000 1.000000
vn 0.000000 0.000000 1.000000
vn 0.000000 0.000000 1.000000
vn 0.000000 0.000000 -1.000000
vn 0.000000 0.000000 -1.000000
vn 0.000000 0.000000 -1.000000
vn 0.000000 0.000000 -1.000000
vn -1.000000 0.000000 0.000000
vn -1.000000 0.000000 0.000000
vn -1.000000 0.000000 0.000000
vn -1.000000 0.000000 0.000000
vn 0.000000 0.000000 -1.000000
vn 0.000000 0.000000 -1.000000
vn 0.000000 0.000000 -1.000000
vn 0.000000 0.000000 -1.000000
vn -1.000000 0.000000 0.000000
vn -1.000000 0.000000 0.000000
vn -1.000000 0.000000 0.000000
vn -1.000000 0.000000 0.000000
tan 0.000000 1.000000 0.000000 1.000000
tan 0.000000 1.000000 0.000000 1.000000
tan 0.000000 1.000000 0.000000 1.000000
tan 0.000000 1.000000 0.000000 1.000000
tan 0.000000 1.000000 0.000000 1.000000
tan 0.000000 1.000000 0.000000 1.000000
tan 0.000000 1.000000 0.000000 1.000000
tan 0.000000 1.000000 0.000000 1.000000
tan 0.000000 1.000000 0.000000 1.000000
tan 0.000000 1.000000 0.000000 1.000000
tan 0.000000 1.000000 0.000000 1.000000
tan 0.000000 1.000000 0.000000 1.000000
tan 0.000000 0.000000 1.000000 1.000000
tan 0.000000 0.000000 1.000000 1.000000
tan 0.000000 0.000000 1.000000 1.000000
tan 0.000000 0.000000 1.000000 1.000000
tan 0.000000 1.000000 0.000000 1.000000
tan 0.000000 1.000000 0.000000 1.000000
tan 0.000000 1.000000 0.000000 1.000000
tan 0.000000 1.000000 0.000000 1.000000
tan 1.000000 0.000000 0.000000 1.000000
tan 1.000000 0.000000 0.000000 1.000000
tan 1.000000 0.000000 0.000000 1.000000
tan 1.000000 0.000000 0.000000 1.000000
tan 0.000000 -1.000000 0.000000 1.000000
tan 0.000000 -1.000000 0.000000 1.000000
tan 0.000000 -1.000000 0.000000 1.000000
tan 0.000000 -1.000000 0.000000 1.000000
tan 0.000000 -1.000000 0.000000 1.000000
tan 0.000000 -1.000000 0.000000 1.000000
tan 0.000000 -1.000000 0.000000 1.000000
tan 0.000000 -1.000000 0.000000 1.000000
tan 0.000000 -1.000000 0.000000 1.000000
tan 0.000000 -1.000000 0.000000 1.000000
tan 0.000000 -1.000000 0.000000 1.000000
tan 0.000000 -1.000000 0.000000 1.000000
tan 0.000000 -1.000000 0.000000 1.000000
tan 0.000000 -1.000000 0.000000 1.000000
tan 0.000000 -1.000000 0.000000 1.000000
tan 0.000000 -1.000000 0.000000 1.000000
tan -1.000000 0.000000 0.000000 1.000000
tan -1.000000 0.000000 0.000000 1.000000
tan -1.000000 0.000000 0.000000 1.000000
tan -1.000000 0.000000 0.000000 1.000000
tan 1.000000 0.000000 0.000000 1.000000
tan 1.000000 0.000000 0.000000 1.000000
tan 1.000000 0.000000 0.000000 1.000000
tan 1.000000 0.000000 0.000000 1.000000
tan 0.000000 1.000000 0.000000 1.000000
tan 0.000000 1.000000 0.000000 1.000000
tan 0.000000 1.000000 0.000000 1.000000
tan 0.000000 1.000000 0.000000 1.000000
tan 0.000000 0.000000 1.000000 1.000000
tan 0.000000 0.000000 1.000000 1.000000
tan 0.000000 0.000000 1.000000 1.000000
tan 0.000000 0.000000 1.000000 1.000000
tan 0.000000 0.000000 -1.000000 1.000000
tan 0.000000 0.000000 -1.000000 1.000000
tan 0.000000 0.000000 -1.000000 1.000000
tan 0.000000 0.000000 -1.000000 1.000000
tan 1.000000 0.000000 0.000000 1.000000
tan 1.000000 0.000000 0.000000 1.000000
tan 1.000000 0.000000 0.000000 1.000000
tan 1.000000 0.000000 0.000000 1.000000
tan 0.000000 0.000000 -1.000000 1.000000
tan 0.000000 0.000000 -1.000000 1.000000
tan 0.000000 0.000000 -1.000000 1.000000
tan 0.000000 0.000000 -1.000000 1.000000
tan 1.000000 0.000000 0.000000 1.000000
tan 1.000000 0.000000 0.000000 1.000000
tan 1.000000 0.000000 0.000000 1.000000
tan 1.000000 0.000000 0.000000 1.000000
tan 0.000000 -1.000000 0.000000 1.000000
tan 0.000000 -1.000000 0.000000 1.000000
tan 0.000000 -1.000000 0.000000 1.000000
tan 0.000000 -1.000000 0.000000 1.000000
tan 0.000000 -1.000000 0.000000 1.000000
tan 0.000000 -1.000000 0.000000 1.000000
tan 0.000000 -1.000000 0.000000 1.000000
tan 0.000000 -1.000000 0.000000 1.000000
tan 0.000000 -1.000000 0.000000 1.000000
tan 0.000000 -1.000000 0.000000 1.000000
tan 0.000000 -1.000000 0.000000 1.000000
tan 0.000000 -1.000000 0.000000 1.000000
tan 0.000000 -1.000000 0.000000 1.000000
tan 0.000000 -1.000000 0.000000 1.000000
tan 0.000000 -1.000000 0.000000 1.000000
tan 0.000000 -1.000000 0.000000 1.000000
tan -1.000000 0.000000 0.000000 1.000000
tan -1.000000 0.000000 0.000000 1.000000
tan -1.000000 0.000000 0.000000 1.000000
tan -1.000000 0.000000 0.000000 1.000000
tan 0.000000 -1.000000 0.000000 1.000000
tan 0.000000 -1.000000 0.000000 1.000000
tan 0.000000 -1.000000 0.000000 1.000000
tan 0.000000 -1.000000 0.000000 1.000000
tan 0.000000 1.000000 0.000000 1.000000
tan 0.000000 1.000000 0.000000 1.000000
tan 0.000000 1.000000 0.000000 1.000000
tan 0.000000 1.000000 0.000000 1.000000
tan 0.000000 -1.000000 0.000000 1.000000
tan 0.000000 -1.000000 0.000000 1.000000
tan 0.000000 -1.000000 0.000000 1.000000
tan 0.000000 -1.000000 0.000000 1.000000
tan 0.000000 1.000000 0.000000 1.000000
tan 0.000000 1.000000 0.000000 1.000000
tan 0.000000 1.000000 0.000000 1.000000
tan 0.000000 1.000000 0.000000 1.000000
tan 0.000000 -1.000000 0.000000 1.000000
tan 0.000000 -1.000000 0.000000 1.000000
tan 0.000000 -1.000000 0.000000 1.000000
tan 0.000000 -1.000000 0.000000 1.000000
tan 0.000000 1.000000 0.000000 1.000000
tan 0.000000 1.000000 0.000000 1.000000
tan 0.000000 1.000000 0.000000 1.000000
tan 0.000000 1.000000 0.000000 1.000000
tan 0.000000 -1.000000 0.000000 1.000000
tan 0.000000 -1.000000 0.000000 1.000000
tan 0.000000 -1.000000 0.000000 1.000000
tan 0.000000 -1.000000 0.000000 1.000000
tan 0.000000 1.000000 0.000000 1.000000
tan 0.000000 1.000000 0.000000 1.000000
tan 0.000000 1.000000 0.000000 1.000000
tan 0.000000 1.000000 0.000000 1.000000
f 3/3/3 2/2/2 1/1/1
f 4/4/4 1/1/1 2/2/2
f 7/7/7 6/6/6 5/5/5
f 6/6/6 7/7/7 8/8/8
f 11/11/11 10/10/10 9/9/9
f 12/12/12 10/10/10 11/11/11
f 15/15/15 14/14/14 13/13/13
f 16/16/16 13/13/13 14/14/14
f 19/19/19 18/18/18 17/17/17
f 20/20/20 17/17/17 18/18/18
f 23/23/23 22/22/22 21/21/21
f 24/24/24 23/23/23 21/21/21
f 27/27/27 26/26/26 25/25/25
f 28/28/28 27/27/27 25/25/25
f 31/31/31 30/30/30 29/29/29
f 32/32/32 29/29/29 30/30/30
f 35/35/35 34/34/34 33/33/33
f 33/33/33 36/36/36 35/35/35
f 39/39/39 38/38/38 37/37/37
f 40/40/40 39/39/39 37/37/37
f 43/43/43 42/42/42 41/41/41
f 42/42/42 43/43/43 44/44/44
f 47/47/47 46/46/46 45/45/45
f 48/48/48 47/47/47 45/45/45
f 51/51/51 50/50/50 49/49/49
f 52/52/52 51/51/51 49/49/49
f 55/55/55 54/54/54 53/53/53
f 56/56/56 53/53/53 54/54/54
f 59/59/59 58/58/58 57/57/57
f 58/58/58 59/59/59 60/60/60
f 63/63/63 62/62/62 61/61/61
f 64/64/64 62/62/62 63/63/63
f 67/67/67 66/66/66 65/65/65
f 66/66/66 67/67/67 68/68/68
f 71/71/71 70/70/70 69/69/69
f 72/72/72 71/71/71 69/69/69
f 75/75/75 74/74/74 73/73/73
f 76/76/76 75/75/75 73/73/73
f 79/79/79 78/78/78 77/77/77
f 80/80/80 77/77/77 78/78/78
f 83/83/83 82/82/82 81/81/81
f 81/81/81 84/84/84 83/83/83
f 87/87/87 86/86/86 85/85/85
f 88/88/88 87/87/87 85/85/85
f 91/91/91 90/90/90 89/89/89
f 90/90/90 91/91/91 92/92/92
f 95/95/95 94/94/94 93/93/93
f 96/96/96 95/95/95 93/93/93
f 99/99/99 98/98/98 97/97/97
f 100/100/100 97/97/97 98/98/98
f 103/103/103 102/102/102 101/101/101
f 104/104/104 103/103/103 101/101/101
f 107/107/107 106/106/106 105/105/105
f 108/108/108 105/105/105 106/106/106
f 111/111/111 110/110/110 109/109/109
f 112/112/112 109/109/109 110/110/110
f 115/115/115 114/114/114 113/113/113
f 114/114/114 115/115/115 116/116/116
f 119/119/119 118/118/118 117/117/117
f 120/120/120 117/117/117 118/118/118
f 123/123/123 122/122/122 121/121/121
f 122/122/122 123/123/123 124/124/124
