mtllib decal_A.mtl
g decal_A
#Vertices 4
#Indices 6
#Section 0 Offset 0 NumIndices 6 MaterialIndex 0 hospital_Rubbish_Mat
v -1.901012 1.901012 0.005952
v 1.901012 1.901012 0.005952
v 1.901012 -1.901012 0.005952
v -1.901012 -1.901012 0.005952
vt 0.778809 0.000100
vt 0.000100 0.000100
vt 0.000100 0.731934
vt 0.778809 0.731934
vt1 0.991699 0.007812
vt1 0.007812 0.007812
vt1 0.007812 0.992188
vt1 0.992188 0.992188
vn 0.000000 0.000000 1.000000
vn 0.000000 0.000000 1.000000
vn 0.000000 0.000000 1.000000
vn 0.000000 0.000000 1.000000
tan -1.000000 0.000000 0.000000 1.000000
tan -1.000000 0.000000 0.000000 1.000000
tan -1.000000 0.000000 0.000000 1.000000
tan -1.000000 0.000000 0.000000 1.000000
f 3/3/3 2/2/2 1/1/1
f 4/4/4 3/3/3 1/1/1
