mtllib desk_door.mtl
g desk_door
#Vertices 44
#Indices 66
#Section 0 Offset 0 NumIndices 66 MaterialIndex 0 hospitalFurniture_Mat
v 0.387670 0.015302 0.346264
v 0.387670 0.015301 0.216195
v 0.387670 0.035114 0.346264
v 0.387670 0.035114 0.216195
v 0.407482 0.035114 0.346264
v 0.407482 0.035114 0.216195
v 0.407482 0.015302 0.346264
v 0.407482 0.015301 0.216195
v 0.407482 0.015301 0.216195
v 0.387670 0.035114 0.216195
v 0.387670 0.015301 0.216195
v 0.407482 0.035114 0.216195
v 0.407482 0.035114 0.216195
v 0.407482 0.035114 0.346264
v 0.387670 0.035114 0.346264
v 0.387670 0.035114 0.216195
v 0.407482 0.035114 0.346264
v 0.387670 0.015302 0.346264
v 0.387670 0.035114 0.346264
v 0.407482 0.015302 0.346264
v -0.000000 0.017134 0.399501
v 0.451982 0.017134 0.399501
v 0.451982 -0.000000 0.399501
v -0.000000 -0.000000 0.399501
v 0.451982 0.017134 -0.153964
v -0.000000 -0.000000 -0.153964
v 0.451982 -0.000000 -0.153964
v -0.000000 0.017134 -0.153964
v -0.000000 0.017134 -0.153964
v -0.000000 0.017134 0.399501
v -0.000000 -0.000000 0.399501
v -0.000000 -0.000000 -0.153964
v 0.451982 0.017134 0.399501
v 0.451982 -0.000000 -0.153964
v 0.451982 -0.000000 0.399501
v 0.451982 0.017134 -0.153964
v -0.000000 0.017134 0.399501
v -0.000000 0.017134 -0.153964
v 0.451982 0.017134 0.399501
v 0.451982 0.017134 -0.153964
v -0.000000 -0.000000 0.399501
v 0.451982 -0.000000 0.399501
v -0.000000 -0.000000 -0.153964
v 0.451982 -0.000000 -0.153964
vt 0.395508 0.169312
vt 0.395508 0.242554
vt 0.402588 0.169312
vt 0.402588 0.242554
vt 0.402588 0.329834
vt 0.402588 0.256592
vt 0.395508 0.329834
vt 0.395508 0.256592
vt 0.395508 0.256592
vt 0.402588 0.242554
vt 0.395508 0.242554
vt 0.402588 0.256592
vt 0.363770 0.195068
vt 0.363770 0.293701
vt 0.373291 0.293701
vt 0.373291 0.195068
vt 0.402588 0.155151
vt 0.395508 0.169312
vt 0.402588 0.169312
vt 0.395508 0.155151
vt 0.192017 0.000000
vt -0.000000 0.000000
vt 0.000000 0.035767
vt 0.192017 0.035767
vt 0.192017 0.000000
vt 0.000000 0.035767
vt 0.192017 0.035767
vt -0.000000 0.000000
vt 0.192017 0.000000
vt -0.000000 0.000000
vt 0.000000 0.035767
vt 0.192017 0.035767
vt 0.192017 0.000000
vt 0.000000 0.035767
vt 0.192017 0.035767
vt -0.000000 0.000000
vt -0.000000 0.000000
vt 0.000000 0.379883
vt 0.192017 0.000000
vt 0.192017 0.379883
vt 0.192017 0.379883
vt 0.192017 0.000000
vt 0.000000 0.379883
vt -0.000000 0.000000
vt1 0.617188 0.643066
vt1 0.617188 0.777344
vt1 0.638184 0.643066
vt1 0.638184 0.777344
vt1 0.638184 0.937988
vt1 0.638184 0.803711
vt1 0.617188 0.937988
vt1 0.617188 0.803711
vt1 0.617188 0.803711
vt1 0.638184 0.777344
vt1 0.617188 0.777344
vt1 0.638184 0.803711
vt1 0.757812 0.029022
vt1 0.896973 0.029022
vt1 0.896973 0.007812
vt1 0.757812 0.007812
vt1 0.638184 0.617188
vt1 0.617188 0.643066
vt1 0.638184 0.643066
vt1 0.617188 0.617188
vt1 0.710938 0.007812
vt1 0.710938 0.491699
vt1 0.729004 0.491699
vt1 0.729004 0.007812
vt1 0.710938 0.507812
vt1 0.729004 0.991699
vt1 0.729004 0.507812
vt1 0.710938 0.991699
vt1 0.664062 0.007812
vt1 0.664062 0.600586
vt1 0.682129 0.600586
vt1 0.682129 0.007812
vt1 0.617188 0.007812
vt1 0.635254 0.600586
vt1 0.635254 0.007812
vt1 0.617188 0.600586
vt1 0.007812 0.991699
vt1 0.600586 0.991699
vt1 0.007812 0.507812
vt1 0.600586 0.507812
vt1 0.600586 0.491699
vt1 0.600586 0.007812
vt1 0.007812 0.491699
vt1 0.007809 0.007812
vn -1.000000 0.000000 0.000000
vn -1.000000 0.000000 0.000000
vn -1.000000 0.000000 0.000000
vn -1.000000 0.000000 0.000000
vn 1.000000 0.000000 0.000000
vn 1.000000 0.000000 0.000000
vn 1.000000 0.000000 0.000000
vn 1.000000 0.000000 0.000000
vn 0.000000 0.000000 -1.000000
vn 0.000000 0.000000 -1.000000
vn 0.000000 0.000000 -1.000000
vn 0.000000 0.000000 -1.000000
vn 0.000000 1.000000 0.000000
vn 0.000000 1.000000 0.000000
vn 0.000000 1.000000 0.000000
vn 0.000000 1.000000 0.000000
vn 0.000000 0.000000 1.000000
vn 0.000000 0.000000 1.000000
vn 0.000000 0.000000 1.000000
vn 0.000000 0.000000 1.000000
vn 0.000000 0.000000 1.000000
vn 0.000000 0.000000 1.000000
vn 0.000000 0.000000 1.000000
vn 0.000000 0.000000 1.000000
vn 0.000000 0.000000 -1.000000
vn 0.000000 0.000000 -1.000000
vn 0.000000 0.000000 -1.000000
vn 0.000000 0.000000 -1.000000
vn -1.000000 0.000000 0.000000
vn -1.000000 0.000000 0.000000
vn -1.000000 0.000000 0.000000
vn -1.000000 0.000000 0.000000
vn 1.000000 0.000000 0.000000
vn 1.000000 0.000000 0.000000
vn 1.000000 0.000000 0.000000
vn 1.000000 0.000000 0.000000
vn 0.000000 1.000000 0.000000
vn 0.000000 1.000000 0.000000
vn 0.000000 1.000000 0.000000
vn 0.000000 1.000000 0.000000
vn 0.000000 -1.000000 0.000000
vn 0.000000 -1.000000 0.000000
vn 0.000000 -1.000000 0.000000
vn 0.000000 -1.000000 0.000000
tan 0.000000 1.000000 0.000000 1.000000
tan 0.000000 1.000000 0.000000 1.000000
tan 0.000000 1.000000 0.000000 1.000000
tan 0.000000 1.000000 0.000000 1.000000
tan 0.000000 1.000000 0.000000 1.000000
tan 0.000000 1.000000 0.000000 1.000000
tan 0.000000 1.000000 0.000000 1.000000
tan 0.000000 1.000000 0.000000 1.000000
tan 0.000000 1.000000 0.000000 1.000000
tan 0.000000 1.000000 0.000000 1.000000
tan 0.000000 1.000000 0.000000 1.000000
tan 0.000000 1.000000 0.000000 1.000000
tan -1.000000 0.000000 0.000000 1.000000
tan -1.000000 0.000000 0.000000 1.000000
tan -1.000000 0.000000 0.000000 1.000000
tan -1.000000 0.000000 0.000000 1.000000
tan 0.000000 1.000000 0.000000 1.000000
tan 0.000000 1.000000 0.000000 1.000000
tan 0.000000 1.000000 0.000000 1.000000
tan 0.000000 1.000000 0.000000 1.000000
tan -1.000000 0.000000 0.000000 1.000000
tan -1.000000 0.000000 0.000000 1.000000
tan -1.000000 0.000000 0.000000 1.000000
tan -1.000000 0.000000 0.000000 1.000000
tan 1.000000 0.000000 0.000000 1.000000
tan 1.000000 0.000000 0.000000 1.000000
tan 1.000000 0.000000 0.000000 1.000000
tan 1.000000 0.000000 0.000000 1.000000
tan 0.000000 0.000000 -1.000000 1.000000
tan 0.000000 0.000000 -1.000000 1.000000
tan 0.000000 0.000000 -1.000000 1.000000
tan 0.000000 0.000000 -1.000000 1.000000
tan 0.000000 0.000000 1.000000 1.000000
tan 0.000000 0.000000 1.000000 1.000000
tan 0.000000 0.000000 1.000000 1.000000
tan 0.000000 0.000000 1.000000 1.000000
tan 1.000000 0.000000 0.000000 1.000000
tan 1.000000 0.000000 0.000000 1.000000
tan 1.000000 0.000000 0.000000 1.000000
tan 1.000000 0.000000 0.000000 1.000000
tan 0.000000 0.000000 1.000000 1.000000
tan 0.000000 0.000000 1.000000 1.000000
tan 0.000000 0.000000 1.000000 1.000000
tan 0.000000 0.000000 1.000000 1.000000
f 3/3/3 2/2/2 1/1/1
f 4/4/4 2/2/2 3/3/3
f 7/7/7 6/6/6 5/5/5
f 8/8/8 6/6/6 7/7/7
f 11/11/11 10/10/10 9/9/9
f 12/12/12 9/9/9 10/10/10
f 15/15/15 14/14/14 13/13/13
f 13/13/13 16/16/16 15/15/15
f 19/19/19 18/18/18 17/17/17
f 20/20/20 17/17/17 18/18/18
f 23/23/23 22/22/22 21/21/21
f 24/24/24 23/23/23 21/21/21
f 27/27/27 26/26/26 25/25/25
f 28/28/28 25/25/25 26/26/26
f 31/31/31 30/30/30 29/29/29
f 29/29/29 32/32/32 31/31/31
f 35/35/35 34/34/34 33/33/33
f 36/36/36 33/33/33 34/34/34
f 39/39/39 38/38/38 37/37/37
f 40/40/40 38/38/38 39/39/39
f 43/43/43 42/42/42 41/41/41
f 43/43/43 44/44/44 42/42/42
