mtllib floorPlane.mtl
g floorPlane
#Vertices 4
#Indices 6
#Section 0 Offset 0 NumIndices 6 MaterialIndex 0 floorTiles_A_Mat
v -1.300000 1.300000 -0.000000
v 1.300000 1.300000 -0.000000
v 1.300000 -1.300000 0.000000
v -1.300000 -1.300000 0.000000
vt 0.999512 0.000100
vt 0.000100 0.000100
vt 0.000100 0.999512
vt 0.999512 0.999512
vt1 0.991699 0.007812
vt1 0.007812 0.007812
vt1 0.007812 0.991699
vt1 0.991699 0.992188
vn 0.000000 0.000000 1.000000
vn 0.000000 0.000000 1.000000
vn 0.000000 0.000000 1.000000
vn 0.000000 0.000000 1.000000
tan -1.000000 0.000000 0.000000 1.000000
tan -1.000000 0.000000 0.000000 1.000000
tan -1.000000 0.000000 0.000000 1.000000
tan -1.000000 0.000000 0.000000 1.000000
f 3/3/3 2/2/2 1/1/1
f 4/4/4 3/3/3 1/1/1
