mtllib glass_E.mtl
g glass_E
#Vertices 16
#Indices 24
#Section 0 Offset 0 NumIndices 24 MaterialIndex 0 dummyLight1_Mat
v 0.102826 1.058663 3.275296
v 0.102826 0.020370 3.275297
v 0.102826 1.058663 1.524158
v 0.102826 0.020370 1.524158
v 0.102826 0.020370 3.309479
v 0.102826 1.058663 3.309479
v 0.102826 0.020370 3.671689
v 0.102826 1.058663 3.671689
v 0.102826 -1.062565 3.309479
v 0.102826 -0.024272 3.309479
v 0.102826 -1.062565 3.671690
v 0.102826 -0.024272 3.671689
v 0.102826 -0.024272 3.275297
v 0.102826 -1.062565 3.275297
v 0.102826 -0.024272 1.524158
v 0.102826 -1.062565 1.524158
vt 1.000000 0.184570
vt 0.510254 0.184570
vt 1.000000 1.000000
vt 0.510254 1.000000
vt 0.510254 0.168579
vt 1.000000 0.168579
vt 0.510254 0.000000
vt 1.000000 0.000000
vt 0.000000 0.168579
vt 0.489258 0.168579
vt 0.000000 0.000000
vt 0.489258 0.000000
vt 0.489258 0.184570
vt 0.000000 0.184570
vt 0.489258 1.000000
vt 0.000000 1.000000
vt1 0.978027 0.007812
vt1 0.507812 0.007812
vt1 0.978027 0.801270
vt1 0.507812 0.801270
vt1 0.507812 0.984375
vt1 0.978027 0.984375
vt1 0.507812 0.820312
vt1 0.978027 0.820312
vt1 0.007812 0.984375
vt1 0.478271 0.984375
vt1 0.007812 0.820312
vt1 0.478271 0.820312
vt1 0.478271 0.007812
vt1 0.007812 0.007812
vt1 0.478271 0.801270
vt1 0.007812 0.801270
vn -1.000000 0.000000 0.000000
vn -1.000000 0.000000 0.000000
vn -1.000000 0.000000 0.000000
vn -1.000000 0.000000 0.000000
vn -1.000000 0.000000 0.000000
vn -1.000000 0.000000 0.000000
vn -1.000000 0.000000 0.000000
vn -1.000000 0.000000 0.000000
vn -1.000000 0.000000 0.000000
vn -1.000000 0.000000 0.000000
vn -1.000000 0.000000 0.000000
vn -1.000000 0.000000 0.000000
vn -1.000000 0.000000 0.000000
vn -1.000000 0.000000 0.000000
vn -1.000000 0.000000 0.000000
vn -1.000000 0.000000 0.000000
tan 0.000000 1.000000 0.000000 1.000000
tan 0.000000 1.000000 0.000000 1.000000
tan 0.000000 1.000000 0.000000 1.000000
tan 0.000000 1.000000 0.000000 1.000000
tan 0.000000 1.000000 0.000000 1.000000
tan 0.000000 1.000000 0.000000 1.000000
tan 0.000000 1.000000 0.000000 1.000000
tan 0.000000 1.000000 0.000000 1.000000
tan 0.000000 1.000000 0.000000 1.000000
tan 0.000000 1.000000 0.000000 1.000000
tan 0.000000 1.000000 0.000000 1.000000
tan 0.000000 1.000000 0.000000 1.000000
tan 0.000000 1.000000 0.000000 1.000000
tan 0.000000 1.000000 0.000000 1.000000
tan 0.000000 1.000000 0.000000 1.000000
tan 0.000000 1.000000 0.000000 1.000000
f 3/3/3 2/2/2 1/1/1
f 3/3/3 4/4/4 2/2/2
f 7/7/7 6/6/6 5/5/5
f 6/6/6 7/7/7 8/8/8
f 11/11/11 10/10/10 9/9/9
f 10/10/10 11/11/11 12/12/12
f 15/15/15 14/14/14 13/13/13
f 15/15/15 16/16/16 14/14/14
