mtllib glass_B.mtl
g glass_B
#Vertices 28
#Indices 60
#Section 0 Offset 0 NumIndices 60 MaterialIndex 0 dummyLight1_Mat
v 0.101979 0.989513 3.278438
v 0.101979 0.023526 3.278438
v 0.101979 0.989512 1.611119
v 0.101979 0.023526 1.611119
v 0.101979 -0.982619 3.278439
v 0.101979 -0.982619 1.611119
v 0.101979 -0.016632 3.278438
v 0.101979 -0.016633 1.611119
v 0.101979 0.794810 3.589863
v 0.101979 0.023737 3.589863
v 0.101979 0.023652 3.547479
v 0.101979 0.872896 3.547479
v 0.101979 0.023577 3.486223
v 0.101979 0.942247 3.486223
v 0.101979 0.023538 3.400188
v 0.101979 0.978772 3.400188
v 0.101979 0.023526 3.312425
v 0.101979 0.989513 3.312424
v 0.101979 -0.016632 3.312425
v 0.101979 -0.971878 3.400188
v 0.101979 -0.982619 3.312425
v 0.101979 -0.016644 3.400188
v 0.101979 -0.935353 3.486223
v 0.101979 -0.016683 3.486223
v 0.101979 -0.866002 3.547479
v 0.101979 -0.016758 3.547479
v 0.101979 -0.787916 3.589863
v 0.101979 -0.016843 3.589863
vt 1.000000 0.157349
vt 0.509766 0.157349
vt 1.000000 1.000000
vt 0.509766 1.000000
vt 0.000000 0.157349
vt 0.000000 1.000000
vt 0.489746 0.157349
vt 0.489746 1.000000
vt 0.900879 0.000000
vt 0.510254 0.000000
vt 0.509766 0.021408
vt 0.940430 0.021408
vt 0.509766 0.052368
vt 0.975586 0.052368
vt 0.509766 0.095825
vt 0.994141 0.095825
vt 0.509766 0.140137
vt 1.000000 0.140137
vt 0.489746 0.140137
vt 0.005444 0.095825
vt 0.000000 0.140137
vt 0.489746 0.095825
vt 0.023956 0.052368
vt 0.489746 0.052368
vt 0.059113 0.021408
vt 0.489746 0.021408
vt 0.098694 0.000000
vt 0.489502 0.000000
vt1 0.487305 0.007812
vt1 0.007812 0.007812
vt1 0.487305 0.835449
vt1 0.007812 0.835449
vt1 0.507812 0.007812
vt1 0.507812 0.835449
vt1 0.987305 0.007812
vt1 0.987305 0.835449
vt1 0.890625 0.851562
vt1 0.507812 0.851562
vt1 0.507812 0.872559
vt1 0.929199 0.872559
vt1 0.507812 0.902832
vt1 0.963867 0.902832
vt1 0.507812 0.945312
vt1 0.981934 0.945312
vt1 0.507812 0.989258
vt1 0.987305 0.989258
vt1 0.487305 0.989258
vt1 0.013145 0.945312
vt1 0.007812 0.989258
vt1 0.487305 0.945312
vt1 0.031281 0.902832
vt1 0.487305 0.902832
vt1 0.065674 0.872559
vt1 0.487305 0.872559
vt1 0.104492 0.851562
vt1 0.487305 0.851562
vn -1.000000 0.000000 0.000000
vn -1.000000 0.000000 0.000000
vn -1.000000 0.000000 0.000000
vn -1.000000 0.000000 0.000000
vn -1.000000 0.000000 0.000000
vn -1.000000 0.000000 0.000000
vn -1.000000 0.000000 0.000000
vn -1.000000 0.000000 0.000000
vn -1.000000 0.000000 0.000000
vn -1.000000 0.000000 0.000000
vn -1.000000 0.000000 0.000000
vn -1.000000 0.000000 0.000000
vn -1.000000 0.000000 0.000000
vn -1.000000 0.000000 0.000000
vn -1.000000 0.000000 0.000000
vn -1.000000 0.000000 0.000000
vn -1.000000 0.000000 0.000000
vn -1.000000 0.000000 0.000000
vn -1.000000 0.000000 0.000000
vn -1.000000 0.000000 0.000000
vn -1.000000 0.000000 0.000000
vn -1.000000 0.000000 0.000000
vn -1.000000 0.000000 0.000000
vn -1.000000 0.000000 0.000000
vn -1.000000 0.000000 0.000000
vn -1.000000 0.000000 0.000000
vn -1.000000 0.000000 0.000000
vn -1.000000 0.000000 0.000000
tan 0.000000 1.000000 0.000000 1.000000
tan 0.000000 1.000000 0.000000 1.000000
tan 0.000000 1.000000 0.000000 1.000000
tan 0.000000 1.000000 0.000000 1.000000
tan 0.000000 1.000000 0.000000 1.000000
tan 0.000000 1.000000 0.000000 1.000000
tan 0.000000 1.000000 0.000000 1.000000
tan 0.000000 1.000000 0.000000 1.000000
tan 0.000000 1.000000 0.000000 1.000000
tan 0.000000 1.000000 0.000000 1.000000
tan 0.000000 1.000000 0.000000 1.000000
tan 0.000000 1.000000 0.000000 1.000000
tan 0.000000 1.000000 0.000000 1.000000
tan 0.000000 1.000000 0.000000 1.000000
tan 0.000000 1.000000 0.000000 1.000000
tan 0.000000 1.000000 0.000000 1.000000
tan 0.000000 1.000000 0.000000 1.000000
tan 0.000000 1.000000 0.000000 1.000000
tan 0.000000 1.000000 0.000000 1.000000
tan 0.000000 1.000000 0.000000 1.000000
tan 0.000000 1.000000 0.000000 1.000000
tan 0.000000 1.000000 0.000000 1.000000
tan 0.000000 1.000000 0.000000 1.000000
tan 0.000000 1.000000 0.000000 1.000000
tan 0.000000 1.000000 0.000000 1.000000
tan 0.000000 1.000000 0.000000 1.000000
tan 0.000000 1.000000 0.000000 1.000000
tan 0.000000 1.000000 0.000000 1.000000
f 3/3/3 2/2/2 1/1/1
f 3/3/3 4/4/4 2/2/2
f 7/7/7 6/6/6 5/5/5
f 8/8/8 6/6/6 7/7/7
f 11/11/11 10/10/10 9/9/9
f 9/9/9 12/12/12 11/11/11
f 13/13/13 11/11/11 12/12/12
f 12/12/12 14/14/14 13/13/13
f 15/15/15 13/13/13 14/14/14
f 14/14/14 16/16/16 15/15/15
f 15/15/15 16/16/16 17/17/17
f 18/18/18 17/17/17 16/16/16
f 21/21/21 20/20/20 19/19/19
f 22/22/22 19/19/19 20/20/20
f 20/20/20 23/23/23 22/22/22
f 24/24/24 22/22/22 23/23/23
f 23/23/23 25/25/25 24/24/24
f 26/26/26 24/24/24 25/25/25
f 27/27/27 26/26/26 25/25/25
f 28/28/28 26/26/26 27/27/27
