mtllib glass_F.mtl
g glass_F
#Vertices 8
#Indices 12
#Section 0 Offset 0 NumIndices 12 MaterialIndex 0 dummyLight1_Mat
v 0.108836 -0.026887 3.673315
v 0.108836 -1.065695 3.673316
v 0.108836 -0.026887 2.825288
v 0.108836 -1.065695 2.825289
v 0.108836 1.065873 3.673315
v 0.108836 0.027065 3.673315
v 0.108836 1.065873 2.825288
v 0.108836 0.027065 2.825288
vt 0.487305 0.000000
vt 0.000000 0.000000
vt 0.487305 1.000000
vt 0.000000 1.000000
vt 1.000000 0.000000
vt 0.512207 0.000000
vt 1.000000 1.000000
vt 0.512207 1.000000
vt1 0.600586 0.007812
vt1 0.007812 0.007812
vt1 0.600586 0.491699
vt1 0.007812 0.491699
vt1 0.600586 0.507812
vt1 0.007812 0.507812
vt1 0.600586 0.991699
vt1 0.007812 0.991699
vn -1.000000 0.000000 0.000000
vn -1.000000 0.000000 0.000000
vn -1.000000 0.000000 0.000000
vn -1.000000 0.000000 0.000000
vn -1.000000 0.000000 0.000000
vn -1.000000 0.000000 0.000000
vn -1.000000 0.000000 0.000000
vn -1.000000 0.000000 0.000000
tan 0.000000 1.000000 0.000000 1.000000
tan 0.000000 1.000000 0.000000 1.000000
tan 0.000000 1.000000 0.000000 1.000000
tan 0.000000 1.000000 0.000000 1.000000
tan 0.000000 1.000000 0.000000 1.000000
tan 0.000000 1.000000 0.000000 1.000000
tan 0.000000 1.000000 0.000000 1.000000
tan 0.000000 1.000000 0.000000 1.000000
f 3/3/3 2/2/2 1/1/1
f 3/3/3 4/4/4 2/2/2
f 7/7/7 6/6/6 5/5/5
f 7/7/7 8/8/8 6/6/6
