mtllib medicine_tiny_B.mtl
g medicine_tiny_B
#Vertices 22
#Indices 48
#Section 0 Offset 0 NumIndices 48 MaterialIndex 0 medicines_mat
v 0.011610 -0.015980 0.000000
v -0.011857 -0.016319 0.104895
v 0.011857 -0.016319 0.104895
v -0.011610 -0.015980 0.000000
v -0.019184 0.006233 0.104895
v -0.018785 0.006104 -0.000000
v 0.000000 0.020172 0.104895
v 0.000000 0.019752 -0.000000
v 0.018785 0.006104 -0.000000
v 0.019184 0.006233 0.104895
v 0.011610 -0.015980 0.000000
v 0.011857 -0.016319 0.104895
v 0.018785 0.006104 -0.000000
v -0.011610 -0.015980 0.000000
v 0.011610 -0.015980 0.000000
v -0.018785 0.006104 -0.000000
v 0.000000 0.019752 -0.000000
v 0.000000 0.020172 0.104895
v -0.011857 -0.016319 0.104895
v -0.019184 0.006233 0.104895
v 0.019184 0.006233 0.104895
v 0.011857 -0.016319 0.104895
vt 0.661133 0.195068
vt 0.697266 0.010826
vt 0.659180 0.010826
vt 0.698730 0.195068
vt 0.735352 0.010826
vt 0.735840 0.195068
vt 0.773438 0.010826
vt 0.772949 0.195068
vt 0.810059 0.195068
vt 0.811523 0.010826
vt 0.847656 0.195068
vt 0.849609 0.010826
vt 0.027618 0.703125
vt 0.135620 0.781738
vt 0.053131 0.781738
vt 0.161133 0.703125
vt 0.094421 0.654785
vt 0.068298 0.503906
vt 0.003479 0.503906
vt 0.035889 0.480469
vt 0.055908 0.541992
vt 0.015854 0.541992
vt1 0.016251 0.726562
vt1 0.170288 0.007812
vt1 0.007812 0.007812
vt1 0.175415 0.726562
vt1 0.332764 0.007812
vt1 0.334473 0.726562
vt1 0.495361 0.007812
vt1 0.493652 0.726562
vt1 0.652832 0.726562
vt1 0.657715 0.007812
vt1 0.812012 0.726562
vt1 0.820312 0.007812
vt1 0.007812 0.835449
vt1 0.216064 0.986816
vt1 0.056976 0.986816
vt1 0.265137 0.835449
vt1 0.136475 0.742188
vt1 0.989258 0.821777
vt1 0.726562 0.821777
vt1 0.857910 0.726562
vt1 0.938965 0.976562
vt1 0.776367 0.976562
vn 0.590551 -0.811024 -0.007874
vn -0.590551 -0.811024 -0.007874
vn 0.590551 -0.811024 -0.007874
vn -0.590551 -0.811024 -0.007874
vn -0.952756 0.307087 -0.007874
vn -0.952756 0.307087 -0.007874
vn 0.000000 1.000000 -0.007874
vn 0.000000 1.000000 -0.007874
vn 0.952756 0.307087 -0.007874
vn 0.952756 0.307087 -0.007874
vn 0.590551 -0.811024 -0.007874
vn 0.590551 -0.811024 -0.007874
vn 0.000000 0.000000 -1.000000
vn 0.000000 0.000000 -1.000000
vn 0.000000 0.000000 -1.000000
vn 0.000000 0.000000 -1.000000
vn 0.000000 0.000000 -1.000000
vn 0.000000 0.000000 1.000000
vn 0.000000 0.000000 1.000000
vn 0.000000 0.000000 1.000000
vn 0.000000 0.000000 1.000000
vn 0.000000 0.000000 1.000000
tan -0.811024 -0.590551 0.000000 1.000000
tan -0.811024 0.590551 0.000000 1.000000
tan -0.811024 -0.590551 0.000000 1.000000
tan -0.811024 0.590551 0.000000 1.000000
tan 0.307087 0.952756 0.000000 1.000000
tan 0.307087 0.952756 0.000000 1.000000
tan 1.000000 0.000000 0.000000 1.000000
tan 1.000000 0.000000 0.000000 1.000000
tan 0.307087 -0.952756 0.000000 1.000000
tan 0.307087 -0.952756 0.000000 1.000000
tan -0.811024 -0.590551 0.000000 1.000000
tan -0.811024 -0.590551 0.000000 1.000000
tan -1.000000 0.000000 0.000000 1.000000
tan -1.000000 0.000000 0.000000 1.000000
tan -1.000000 0.000000 0.000000 1.000000
tan -1.000000 0.000000 0.000000 1.000000
tan -1.000000 0.000000 0.000000 1.000000
tan 0.307087 0.952756 0.000000 1.000000
tan 0.307087 0.952756 0.000000 1.000000
tan 0.307087 0.952756 0.000000 1.000000
tan 0.307087 0.952756 0.000000 1.000000
tan 0.307087 0.952756 0.000000 1.000000
f 3/3/3 2/2/2 1/1/1
f 4/4/4 1/1/1 2/2/2
f 2/2/2 5/5/5 4/4/4
f 6/6/6 4/4/4 5/5/5
f 5/5/5 7/7/7 6/6/6
f 8/8/8 6/6/6 7/7/7
f 8/8/8 7/7/7 9/9/9
f 10/10/10 9/9/9 7/7/7
f 9/9/9 10/10/10 11/11/11
f 12/12/12 11/11/11 10/10/10
f 15/15/15 14/14/14 13/13/13
f 14/14/14 16/16/16 13/13/13
f 17/17/17 13/13/13 16/16/16
f 20/20/20 19/19/19 18/18/18
f 21/21/21 18/18/18 19/19/19
f 22/22/22 21/21/21 19/19/19
