mtllib medicine_box_C.mtl
g medicine_box_C
#Vertices 24
#Indices 36
#Section 0 Offset 0 NumIndices 36 MaterialIndex 0 medicines_mat
v 0.036376 0.037194 -0.000000
v 0.036376 -0.035558 0.165419
v 0.036376 0.037194 0.165419
v 0.036376 -0.035558 0.000000
v -0.036376 0.037194 -0.000000
v 0.036376 0.037194 0.165419
v -0.036376 0.037194 0.165419
v 0.036376 0.037194 -0.000000
v -0.036376 -0.035558 0.000000
v -0.036376 0.037194 0.165419
v -0.036376 -0.035558 0.165419
v -0.036376 0.037194 -0.000000
v 0.036376 -0.035558 0.000000
v -0.036376 -0.035558 0.165419
v 0.036376 -0.035558 0.165419
v -0.036376 -0.035558 0.000000
v -0.036376 -0.035558 0.000000
v 0.036376 -0.035558 0.000000
v -0.036376 0.037194 -0.000000
v 0.036376 0.037194 -0.000000
v 0.036376 0.037194 0.165419
v -0.036376 -0.035558 0.165419
v -0.036376 0.037194 0.165419
v 0.036376 -0.035558 0.165419
vt 0.248535 0.117920
vt 0.492676 0.229858
vt 0.492676 0.117920
vt 0.248535 0.229858
vt 0.248535 0.117920
vt 0.492676 0.229858
vt 0.492676 0.117920
vt 0.248535 0.229858
vt 0.248535 0.117920
vt 0.492676 0.229858
vt 0.492676 0.117920
vt 0.248535 0.229858
vt 0.248535 0.117920
vt 0.492676 0.229858
vt 0.492676 0.117920
vt 0.248535 0.229858
vt 0.248535 0.229858
vt 0.492676 0.229858
vt 0.248535 0.117920
vt 0.492676 0.117920
vt 0.248535 0.117920
vt 0.492676 0.229858
vt 0.492676 0.117920
vt 0.248535 0.229858
vt1 0.007812 0.257812
vt1 0.540039 0.491943
vt1 0.540039 0.257812
vt1 0.007812 0.491943
vt1 0.007812 0.507812
vt1 0.540039 0.741699
vt1 0.540039 0.507812
vt1 0.007812 0.741699
vt1 0.570312 0.540039
vt1 0.804199 0.007812
vt1 0.570312 0.007812
vt1 0.804199 0.540039
vt1 0.007812 0.007812
vt1 0.540039 0.242065
vt1 0.540039 0.007812
vt1 0.007812 0.242065
vt1 0.257812 0.991699
vt1 0.491943 0.991699
vt1 0.257812 0.757812
vt1 0.491943 0.757812
vt1 0.007812 0.757812
vt1 0.242065 0.991699
vt1 0.242065 0.757812
vt1 0.007812 0.991699
vn 1.000000 0.000000 0.000000
vn 1.000000 0.000000 0.000000
vn 1.000000 0.000000 0.000000
vn 1.000000 0.000000 0.000000
vn 0.000000 1.000000 0.000000
vn 0.000000 1.000000 0.000000
vn 0.000000 1.000000 0.000000
vn 0.000000 1.000000 0.000000
vn -1.000000 0.000000 0.000000
vn -1.000000 0.000000 0.000000
vn -1.000000 0.000000 0.000000
vn -1.000000 0.000000 0.000000
vn 0.000000 -1.000000 0.000000
vn 0.000000 -1.000000 0.000000
vn 0.000000 -1.000000 0.000000
vn 0.000000 -1.000000 0.000000
vn 0.000000 0.000000 -1.000000
vn 0.000000 0.000000 -1.000000
vn 0.000000 0.000000 -1.000000
vn 0.000000 0.000000 -1.000000
vn 0.000000 0.000000 1.000000
vn 0.000000 0.000000 1.000000
vn 0.000000 0.000000 1.000000
vn 0.000000 0.000000 1.000000
tan 0.000000 0.000000 1.000000 1.000000
tan 0.000000 0.000000 1.000000 1.000000
tan 0.000000 0.000000 1.000000 1.000000
tan 0.000000 0.000000 1.000000 1.000000
tan 0.000000 0.000000 1.000000 1.000000
tan 0.000000 0.000000 1.000000 1.000000
tan 0.000000 0.000000 1.000000 1.000000
tan 0.000000 0.000000 1.000000 1.000000
tan 0.000000 0.000000 1.000000 1.000000
tan 0.000000 0.000000 1.000000 1.000000
tan 0.000000 0.000000 1.000000 1.000000
tan 0.000000 0.000000 1.000000 1.000000
tan 0.000000 0.000000 1.000000 1.000000
tan 0.000000 0.000000 1.000000 1.000000
tan 0.000000 0.000000 1.000000 1.000000
tan 0.000000 0.000000 1.000000 1.000000
tan 1.000000 0.000000 0.000000 1.000000
tan 1.000000 0.000000 0.000000 1.000000
tan 1.000000 0.000000 0.000000 1.000000
tan 1.000000 0.000000 0.000000 1.000000
tan -1.000000 0.000000 0.000000 1.000000
tan -1.000000 0.000000 0.000000 1.000000
tan -1.000000 0.000000 0.000000 1.000000
tan -1.000000 0.000000 0.000000 1.000000
f 3/3/3 2/2/2 1/1/1
f 4/4/4 1/1/1 2/2/2
f 7/7/7 6/6/6 5/5/5
f 8/8/8 5/5/5 6/6/6
f 11/11/11 10/10/10 9/9/9
f 12/12/12 9/9/9 10/10/10
f 15/15/15 14/14/14 13/13/13
f 16/16/16 13/13/13 14/14/14
f 19/19/19 18/18/18 17/17/17
f 19/19/19 20/20/20 18/18/18
f 23/23/23 22/22/22 21/21/21
f 24/24/24 21/21/21 22/22/22
