mtllib medicine_mid_B.mtl
g medicine_mid_B
#Vertices 40
#Indices 108
#Section 0 Offset 0 NumIndices 108 MaterialIndex 0 medicines_mat
v 0.026477 -0.036442 0.000000
v -0.042840 0.013920 -0.000000
v -0.026477 -0.036442 0.000000
v 0.000000 0.045045 -0.000000
v 0.042840 0.013920 -0.000000
v 0.000000 0.026351 0.174199
v -0.015489 -0.021318 0.174199
v -0.025061 0.008143 0.174199
v 0.025061 0.008143 0.174199
v 0.015489 -0.021318 0.174199
v 0.015489 -0.021318 0.174199
v 0.025061 0.008143 0.146272
v 0.015489 -0.021318 0.146272
v 0.025061 0.008143 0.174199
v 0.000000 0.026351 0.146272
v 0.000000 0.026351 0.174199
v -0.025061 0.008143 0.146272
v -0.025061 0.008143 0.174199
v -0.015489 -0.021318 0.146272
v -0.015489 -0.021318 0.174199
v 0.015489 -0.021318 0.146272
v 0.015489 -0.021318 0.174199
v -0.026477 -0.036442 0.000000
v 0.026477 -0.036442 0.118023
v 0.026477 -0.036442 0.000000
v -0.026477 -0.036442 0.118023
v -0.042840 0.013920 -0.000000
v -0.015489 -0.021318 0.146272
v 0.015489 -0.021318 0.146272
v -0.042840 0.013920 0.118023
v 0.000000 0.045045 -0.000000
v -0.025061 0.008143 0.146272
v 0.000000 0.045045 0.118023
v 0.000000 0.026351 0.146272
v 0.042840 0.013920 -0.000000
v 0.025061 0.008143 0.146272
v 0.042840 0.013920 0.118023
v 0.026477 -0.036442 0.000000
v 0.015489 -0.021318 0.146272
v 0.026477 -0.036442 0.118023
vt 0.053131 0.781738
vt 0.161133 0.703125
vt 0.135620 0.781738
vt 0.094421 0.654785
vt 0.027618 0.703125
vt 0.068298 0.579590
vt 0.003479 0.579590
vt 0.035889 0.555664
vt 0.055908 0.617676
vt 0.015854 0.617676
vt 0.992676 0.797852
vt 0.895020 0.822754
vt 0.992676 0.822754
vt 0.895020 0.797852
vt 0.796875 0.822754
vt 0.796875 0.797852
vt 0.699219 0.822754
vt 0.699219 0.797852
vt 0.601562 0.822754
vt 0.601562 0.797852
vt 0.503906 0.822754
vt 0.503906 0.797852
vt 0.601562 0.983398
vt 0.503906 0.860840
vt 0.503906 0.983398
vt 0.601562 0.860840
vt 0.699219 0.983398
vt 0.601562 0.822754
vt 0.503906 0.822754
vt 0.699219 0.860840
vt 0.796875 0.983398
vt 0.699219 0.822754
vt 0.796875 0.860840
vt 0.796875 0.822754
vt 0.895020 0.983398
vt 0.895020 0.822754
vt 0.895020 0.860840
vt 0.992676 0.983398
vt 0.992676 0.822754
vt 0.992676 0.860840
vt1 0.067261 0.975586
vt1 0.319092 0.792480
vt1 0.259521 0.975586
vt1 0.163452 0.679688
vt1 0.007812 0.792480
vt1 0.518066 0.745605
vt1 0.335938 0.745605
vt1 0.427002 0.679688
vt1 0.483154 0.852539
vt1 0.370605 0.852539
vt1 0.875000 0.007812
vt1 0.701660 0.096008
vt1 0.875000 0.096008
vt1 0.701660 0.007812
vt1 0.528320 0.096008
vt1 0.528320 0.007812
vt1 0.354736 0.096008
vt1 0.354736 0.007812
vt1 0.181274 0.096008
vt1 0.181274 0.007812
vt1 0.007812 0.096008
vt1 0.007812 0.007812
vt1 0.181274 0.661133
vt1 0.007812 0.229736
vt1 0.007812 0.661133
vt1 0.181274 0.229736
vt1 0.354736 0.661133
vt1 0.181274 0.096008
vt1 0.007812 0.096008
vt1 0.354736 0.229736
vt1 0.528320 0.661133
vt1 0.354736 0.096008
vt1 0.528320 0.229736
vt1 0.528320 0.096008
vt1 0.701660 0.661133
vt1 0.701660 0.096008
vt1 0.701660 0.229736
vt1 0.875000 0.661133
vt1 0.875000 0.096008
vt1 0.875000 0.229736
vn 0.000000 0.000000 -1.000000
vn 0.000000 0.000000 -1.000000
vn 0.000000 0.000000 -1.000000
vn 0.000000 0.000000 -1.000000
vn 0.000000 0.000000 -1.000000
vn 0.000000 0.000000 1.000000
vn 0.000000 0.000000 1.000000
vn 0.000000 0.000000 1.000000
vn 0.000000 0.000000 1.000000
vn 0.000000 0.000000 1.000000
vn 0.590551 -0.811024 0.000000
vn 0.952756 0.307087 0.000000
vn 0.590551 -0.811024 0.000000
vn 0.952756 0.307087 0.000000
vn 0.000000 1.000000 0.000000
vn 0.000000 1.000000 0.000000
vn -0.952756 0.307087 0.000000
vn -0.952756 0.307087 0.000000
vn -0.590551 -0.811024 0.000000
vn -0.590551 -0.811024 0.000000
vn 0.590551 -0.811024 0.000000
vn 0.590551 -0.811024 0.000000
vn -0.590551 -0.811024 0.000000
vn 0.566929 -0.779528 0.259843
vn 0.590551 -0.811024 0.000000
vn -0.566929 -0.779528 0.259843
vn -0.952756 0.307087 0.000000
vn -0.488189 -0.677165 0.551181
vn 0.488189 -0.677165 0.551181
vn -0.921260 0.299213 0.259843
vn 0.000000 1.000000 0.000000
vn -0.795276 0.259843 0.551181
vn 0.000000 0.968504 0.259843
vn 0.000000 0.834646 0.551181
vn 0.952756 0.307087 0.000000
vn 0.795276 0.259843 0.551181
vn 0.921260 0.299213 0.259843
vn 0.590551 -0.811024 0.000000
vn 0.488189 -0.677165 0.551181
vn 0.566929 -0.779528 0.259843
tan -1.000000 0.000000 0.000000 1.000000
tan -1.000000 0.000000 0.000000 1.000000
tan -1.000000 0.000000 0.000000 1.000000
tan -1.000000 0.000000 0.000000 1.000000
tan -1.000000 0.000000 0.000000 1.000000
tan 0.307087 0.952756 0.000000 1.000000
tan 0.307087 0.952756 0.000000 1.000000
tan 0.307087 0.952756 0.000000 1.000000
tan 0.307087 0.952756 0.000000 1.000000
tan 0.307087 0.952756 0.000000 1.000000
tan -0.811024 -0.590551 0.000000 1.000000
tan 0.307087 -0.952756 0.000000 1.000000
tan -0.811024 -0.590551 0.000000 1.000000
tan 0.307087 -0.952756 0.000000 1.000000
tan 1.000000 0.000000 0.000000 1.000000
tan 1.000000 0.000000 0.000000 1.000000
tan 0.307087 0.952756 0.000000 1.000000
tan 0.307087 0.952756 0.000000 1.000000
tan -0.811024 0.590551 0.000000 1.000000
tan -0.811024 0.590551 0.000000 1.000000
tan -0.811024 -0.590551 0.000000 1.000000
tan -0.811024 -0.590551 0.000000 1.000000
tan -0.811024 0.590551 0.000000 1.000000
tan -0.826772 -0.535433 0.181102 1.000000
tan -0.811024 -0.590551 0.000000 1.000000
tan -0.811024 0.590551 0.000000 1.000000
tan 0.307087 0.952756 0.000000 1.000000
tan -0.811024 0.590551 0.000000 1.000000
tan -0.874016 -0.377953 0.307087 1.000000
tan 0.307087 0.952756 0.000000 1.000000
tan 1.000000 0.000000 0.000000 1.000000
tan 0.307087 0.952756 0.000000 1.000000
tan 1.000000 0.000000 0.000000 1.000000
tan 1.000000 0.000000 0.000000 1.000000
tan 0.307087 -0.952756 0.000000 1.000000
tan 0.307087 -0.952756 0.000000 1.000000
tan 0.307087 -0.952756 0.000000 1.000000
tan -0.811024 -0.590551 0.000000 1.000000
tan -0.629921 -0.708661 -0.307087 1.000000
tan -0.763780 -0.614173 -0.181102 1.000000
f 3/3/3 2/2/2 1/1/1
f 4/4/4 1/1/1 2/2/2
f 5/5/5 1/1/1 4/4/4
f 8/8/8 7/7/7 6/6/6
f 9/9/9 6/6/6 7/7/7
f 10/10/10 9/9/9 7/7/7
f 13/13/13 12/12/12 11/11/11
f 12/12/12 14/14/14 11/11/11
f 12/12/12 15/15/15 14/14/14
f 15/15/15 16/16/16 14/14/14
f 15/15/15 17/17/17 16/16/16
f 17/17/17 18/18/18 16/16/16
f 17/17/17 19/19/19 18/18/18
f 19/19/19 20/20/20 18/18/18
f 19/19/19 21/21/21 20/20/20
f 21/21/21 22/22/22 20/20/20
f 25/25/25 24/24/24 23/23/23
f 26/26/26 23/23/23 24/24/24
f 23/23/23 26/26/26 27/27/27
f 29/29/29 28/28/28 24/24/24
f 28/28/28 26/26/26 24/24/24
f 30/30/30 27/27/27 26/26/26
f 26/26/26 28/28/28 30/30/30
f 27/27/27 30/30/30 31/31/31
f 32/32/32 30/30/30 28/28/28
f 33/33/33 31/31/31 30/30/30
f 30/30/30 32/32/32 33/33/33
f 34/34/34 33/33/33 32/32/32
f 31/31/31 33/33/33 35/35/35
f 33/33/33 34/34/34 36/36/36
f 37/37/37 35/35/35 33/33/33
f 36/36/36 37/37/37 33/33/33
f 35/35/35 37/37/37 38/38/38
f 36/36/36 39/39/39 37/37/37
f 40/40/40 38/38/38 37/37/37
f 39/39/39 40/40/40 37/37/37
