mtllib medicine_box_H.mtl
g medicine_box_H
#Vertices 48
#Indices 72
#Section 0 Offset 0 NumIndices 72 MaterialIndex 0 medicines_mat
v 0.036376 0.037194 -0.000000
v 0.036376 -0.035558 0.165419
v 0.036376 0.037194 0.165419
v 0.036376 -0.035558 0.000000
v -0.036376 0.037194 0.165419
v -0.036376 0.037194 -0.000000
v 0.036376 0.037194 0.165419
v 0.036376 0.037194 -0.000000
v -0.036376 -0.035558 0.000000
v -0.036376 0.037194 0.165419
v -0.036376 -0.035558 0.165419
v -0.036376 0.037194 -0.000000
v 0.036376 -0.035558 0.165419
v 0.036376 -0.035558 0.000000
v -0.036376 -0.035558 0.165419
v -0.036376 -0.035558 0.000000
v -0.036376 -0.035558 0.000000
v 0.036376 -0.035558 0.000000
v -0.036376 0.037194 -0.000000
v 0.036376 0.037194 -0.000000
v -0.036376 -0.064591 0.235670
v 0.036376 -0.064591 0.235670
v 0.036376 -0.035558 0.165419
v -0.036376 -0.035558 0.165419
v 0.036092 0.036910 0.165419
v 0.036144 -0.035326 0.000232
v 0.036144 0.036962 0.000232
v 0.036194 -0.035208 0.165488
v -0.036092 0.036910 0.165419
v 0.036144 0.036962 0.000232
v -0.036144 0.036962 0.000232
v 0.036092 0.036910 0.165419
v -0.036144 -0.035326 0.000232
v -0.036194 -0.035208 0.165488
v -0.036092 0.036910 0.165419
v -0.036144 0.036962 0.000232
v 0.036144 -0.035326 0.000232
v 0.036194 -0.035208 0.165488
v -0.036194 -0.035208 0.165488
v -0.036144 -0.035326 0.000232
v -0.036144 0.036962 0.000232
v 0.036144 0.036962 0.000232
v 0.036144 -0.035326 0.000232
v -0.036144 -0.035326 0.000232
v -0.036376 -0.064220 0.235823
v 0.036194 -0.035208 0.165488
v 0.036376 -0.064220 0.235823
v -0.036194 -0.035208 0.165488
vt 0.249512 0.353027
vt 0.490967 0.465820
vt 0.490967 0.353027
vt 0.249512 0.465820
vt 0.490967 0.353027
vt 0.249512 0.353027
vt 0.490967 0.465820
vt 0.249512 0.465820
vt 0.249512 0.353027
vt 0.490967 0.465820
vt 0.490967 0.353027
vt 0.249512 0.465820
vt 0.490967 0.353027
vt 0.249512 0.353027
vt 0.490967 0.465820
vt 0.249512 0.465820
vt 0.249512 0.465820
vt 0.490967 0.465820
vt 0.249512 0.353027
vt 0.490967 0.353027
vt 0.249512 0.353027
vt 0.249512 0.465820
vt 0.490967 0.465820
vt 0.490967 0.353027
vt 0.096619 0.481201
vt 0.313965 0.583008
vt 0.313965 0.481201
vt 0.096619 0.583008
vt 0.096619 0.481201
vt 0.313965 0.583008
vt 0.313965 0.481201
vt 0.096619 0.583008
vt 0.313965 0.481201
vt 0.096619 0.481201
vt 0.096619 0.583008
vt 0.313965 0.583008
vt 0.313965 0.481201
vt 0.096619 0.481201
vt 0.096619 0.583008
vt 0.313965 0.583008
vt 0.313965 0.481201
vt 0.096619 0.481201
vt 0.096619 0.583008
vt 0.313965 0.583008
vt 0.313965 0.481201
vt 0.096619 0.583008
vt 0.313965 0.583008
vt 0.096619 0.481201
vt1 0.007812 0.414062
vt1 0.399902 0.586426
vt1 0.399902 0.414062
vt1 0.007812 0.586426
vt1 0.399902 0.210938
vt1 0.007812 0.210938
vt1 0.399902 0.383301
vt1 0.007812 0.383301
vt1 0.429688 0.399902
vt1 0.602051 0.007812
vt1 0.429688 0.007812
vt1 0.602051 0.399902
vt1 0.399902 0.007812
vt1 0.007812 0.007812
vt1 0.399902 0.180176
vt1 0.007812 0.180176
vt1 0.210938 0.977051
vt1 0.383301 0.977051
vt1 0.210938 0.804688
vt1 0.383301 0.804688
vt1 0.007812 0.617188
vt1 0.007812 0.789551
vt1 0.187988 0.789551
vt1 0.187988 0.617188
vt1 0.632812 0.399414
vt1 0.803711 0.007812
vt1 0.632812 0.007812
vt1 0.803711 0.399414
vt1 0.617188 0.820801
vt1 0.788086 0.429688
vt1 0.617188 0.429688
vt1 0.788086 0.820801
vt1 0.804688 0.429688
vt1 0.804688 0.821289
vt1 0.975586 0.821289
vt1 0.975586 0.429688
vt1 0.429688 0.429688
vt1 0.429688 0.821289
vt1 0.601074 0.821289
vt1 0.601074 0.429688
vt1 0.179077 0.820312
vt1 0.007812 0.820312
vt1 0.007812 0.991211
vt1 0.179077 0.991211
vt1 0.391113 0.617188
vt1 0.210938 0.789062
vt1 0.391113 0.789062
vt1 0.210938 0.617188
vn 1.000000 0.000000 0.000000
vn 1.000000 0.000000 0.000000
vn 1.000000 0.000000 0.000000
vn 1.000000 0.000000 0.000000
vn 0.000000 1.000000 0.000000
vn 0.000000 1.000000 0.000000
vn 0.000000 1.000000 0.000000
vn 0.000000 1.000000 0.000000
vn -1.000000 0.000000 0.000000
vn -1.000000 0.000000 0.000000
vn -1.000000 0.000000 0.000000
vn -1.000000 0.000000 0.000000
vn 0.000000 -1.000000 0.000000
vn 0.000000 -1.000000 0.000000
vn 0.000000 -1.000000 0.000000
vn 0.000000 -1.000000 0.000000
vn 0.000000 0.000000 -1.000000
vn 0.000000 0.000000 -1.000000
vn 0.000000 0.000000 -1.000000
vn 0.000000 0.000000 -1.000000
vn 0.000000 -0.921260 -0.385827
vn 0.000000 -0.921260 -0.385827
vn 0.000000 -0.921260 -0.385827
vn 0.000000 -0.921260 -0.385827
vn -1.000000 0.000000 0.000000
vn -1.000000 0.000000 0.000000
vn -1.000000 0.000000 0.000000
vn -1.000000 0.000000 0.000000
vn 0.000000 -1.000000 0.000000
vn 0.000000 -1.000000 0.000000
vn 0.000000 -1.000000 0.000000
vn 0.000000 -1.000000 0.000000
vn 1.000000 0.000000 0.000000
vn 1.000000 0.000000 0.000000
vn 1.000000 0.000000 0.000000
vn 1.000000 0.000000 0.000000
vn 0.000000 1.000000 0.000000
vn 0.000000 1.000000 0.000000
vn 0.000000 1.000000 0.000000
vn 0.000000 1.000000 0.000000
vn 0.000000 0.000000 1.000000
vn 0.000000 0.000000 1.000000
vn 0.000000 0.000000 1.000000
vn 0.000000 0.000000 1.000000
vn 0.000000 0.921260 0.377953
vn 0.000000 0.921260 0.377953
vn 0.000000 0.921260 0.377953
vn 0.000000 0.921260 0.377953
tan 0.000000 0.000000 1.000000 1.000000
tan 0.000000 0.000000 1.000000 1.000000
tan 0.000000 0.000000 1.000000 1.000000
tan 0.000000 0.000000 1.000000 1.000000
tan 0.000000 0.000000 1.000000 1.000000
tan 0.000000 0.000000 1.000000 1.000000
tan 0.000000 0.000000 1.000000 1.000000
tan 0.000000 0.000000 1.000000 1.000000
tan 0.000000 0.000000 1.000000 1.000000
tan 0.000000 0.000000 1.000000 1.000000
tan 0.000000 0.000000 1.000000 1.000000
tan 0.000000 0.000000 1.000000 1.000000
tan 0.000000 0.000000 1.000000 1.000000
tan 0.000000 0.000000 1.000000 1.000000
tan 0.000000 0.000000 1.000000 1.000000
tan 0.000000 0.000000 1.000000 1.000000
tan 1.000000 0.000000 0.000000 1.000000
tan 1.000000 0.000000 0.000000 1.000000
tan 1.000000 0.000000 0.000000 1.000000
tan 1.000000 0.000000 0.000000 1.000000
tan 0.000000 0.385827 -0.921260 1.000000
tan 0.000000 0.385827 -0.921260 1.000000
tan 0.000000 0.385827 -0.921260 1.000000
tan 0.000000 0.385827 -0.921260 1.000000
tan 0.000000 0.000000 -1.000000 1.000000
tan 0.000000 0.000000 -1.000000 1.000000
tan 0.000000 0.000000 -1.000000 1.000000
tan 0.000000 0.000000 -1.000000 1.000000
tan 0.000000 0.000000 -1.000000 1.000000
tan 0.000000 0.000000 -1.000000 1.000000
tan 0.000000 0.000000 -1.000000 1.000000
tan 0.000000 0.000000 -1.000000 1.000000
tan 0.000000 0.000000 -1.000000 1.000000
tan 0.000000 0.000000 -1.000000 1.000000
tan 0.000000 0.000000 -1.000000 1.000000
tan 0.000000 0.000000 -1.000000 1.000000
tan 0.000000 0.000000 -1.000000 1.000000
tan 0.000000 0.000000 -1.000000 1.000000
tan 0.000000 0.000000 -1.000000 1.000000
tan 0.000000 0.000000 -1.000000 1.000000
tan -1.000000 0.000000 0.000000 1.000000
tan -1.000000 0.000000 0.000000 1.000000
tan -1.000000 0.000000 0.000000 1.000000
tan -1.000000 0.000000 0.000000 1.000000
tan 0.000000 -0.377953 0.921260 1.000000
tan 0.000000 -0.377953 0.921260 1.000000
tan 0.000000 -0.377953 0.921260 1.000000
tan 0.000000 -0.377953 0.921260 1.000000
f 3/3/3 2/2/2 1/1/1
f 4/4/4 1/1/1 2/2/2
f 7/7/7 6/6/6 5/5/5
f 8/8/8 6/6/6 7/7/7
f 11/11/11 10/10/10 9/9/9
f 12/12/12 9/9/9 10/10/10
f 15/15/15 14/14/14 13/13/13
f 16/16/16 14/14/14 15/15/15
f 19/19/19 18/18/18 17/17/17
f 19/19/19 20/20/20 18/18/18
f 23/23/23 22/22/22 21/21/21
f 24/24/24 23/23/23 21/21/21
f 27/27/27 26/26/26 25/25/25
f 28/28/28 25/25/25 26/26/26
f 31/31/31 30/30/30 29/29/29
f 32/32/32 29/29/29 30/30/30
f 35/35/35 34/34/34 33/33/33
f 33/33/33 36/36/36 35/35/35
f 39/39/39 38/38/38 37/37/37
f 37/37/37 40/40/40 39/39/39
f 43/43/43 42/42/42 41/41/41
f 44/44/44 43/43/43 41/41/41
f 47/47/47 46/46/46 45/45/45
f 48/48/48 45/45/45 46/46/46
