mtllib morgue_doors.mtl
g morgue_doors
#Vertices 130
#Indices 228
#Section 0 Offset 0 NumIndices 228 MaterialIndex 0 hospitalFurniture_Mat
v -0.000000 0.000000 0.289014
v -0.025536 0.025536 -0.263479
v -0.000000 0.000000 -0.289014
v -0.025536 0.025536 0.263479
v -0.025536 0.025536 0.263479
v -0.794696 0.000000 0.289015
v -0.769160 0.025536 0.263479
v -0.000000 0.000000 0.289014
v -0.794696 0.000000 -0.289014
v -0.025536 0.025536 -0.263479
v -0.769160 0.025536 -0.263479
v -0.000000 0.000000 -0.289014
v -0.794696 0.000000 0.289015
v -0.769160 0.025536 -0.263479
v -0.769160 0.025536 0.263479
v -0.794696 0.000000 -0.289014
v -0.794696 -0.045156 0.289015
v -0.794696 0.000000 -0.289014
v -0.794696 0.000000 0.289015
v -0.794696 -0.045156 -0.289014
v -0.000000 -0.045156 -0.289014
v -0.794696 0.000000 -0.289014
v -0.794696 -0.045156 -0.289014
v -0.000000 0.000000 -0.289014
v -0.000000 -0.045156 0.289014
v -0.794696 -0.045156 0.289015
v -0.794696 0.000000 0.289015
v -0.000000 0.000000 0.289014
v -0.000000 -0.045156 0.289014
v -0.000000 0.000000 -0.289014
v -0.000000 -0.045156 -0.289014
v -0.000000 0.000000 0.289014
v -0.776763 -0.061746 0.275971
v -0.794696 -0.045156 -0.289014
v -0.794696 -0.045156 0.289015
v -0.776763 -0.061746 -0.275971
v -0.000000 -0.045156 -0.289014
v -0.794696 -0.045156 -0.289014
v -0.776763 -0.061746 -0.275971
v -0.017932 -0.061746 -0.275971
v -0.794696 -0.045156 0.289015
v -0.000000 -0.045156 0.289014
v -0.017932 -0.061746 0.275971
v -0.776763 -0.061746 0.275971
v -0.017932 -0.061746 -0.275971
v -0.017932 -0.061746 0.275971
v -0.000000 -0.045156 0.289014
v -0.000000 -0.045156 -0.289014
v -0.776763 -0.061746 0.275971
v -0.017932 -0.061746 0.275971
v -0.776763 -0.061746 -0.275971
v -0.017932 -0.061746 -0.275971
v -0.705693 -0.077946 -0.083784
v -0.705693 -0.059382 0.083784
v -0.705693 -0.077946 0.083784
v -0.705693 -0.059382 -0.083784
v -0.644000 -0.077946 -0.083784
v -0.705693 -0.077946 0.083784
v -0.644000 -0.077946 0.083784
v -0.705693 -0.077946 -0.083784
v -0.644000 -0.059382 -0.083784
v -0.644000 -0.077946 0.083784
v -0.644000 -0.059382 0.083784
v -0.644000 -0.077946 -0.083784
v -0.705693 -0.077946 -0.083784
v -0.644000 -0.077946 -0.083784
v -0.644000 -0.059382 -0.083784
v -0.705693 -0.059382 -0.083784
v -0.705693 -0.059382 0.083784
v -0.644000 -0.077946 0.083784
v -0.705693 -0.077946 0.083784
v -0.644000 -0.059382 0.083784
v -0.687746 -0.119061 -0.124919
v -0.661947 -0.119061 -0.124919
v -0.661947 -0.109390 -0.124919
v -0.687746 -0.109390 -0.124919
v -0.769160 0.025536 0.263479
v -0.025536 0.025536 -0.263479
v -0.025536 0.025536 0.263479
v -0.769160 0.025536 -0.263479
v 0.014465 -0.014465 -0.241838
v 0.014465 0.014465 -0.241838
v -0.014465 -0.014465 -0.241838
v -0.014465 0.014465 -0.241838
v -0.014465 0.014465 0.241838
v 0.014465 -0.014465 0.241838
v -0.014465 -0.014465 0.241838
v 0.014465 0.014465 0.241838
v -0.661947 -0.077946 0.027914
v -0.687746 -0.077946 0.027914
v -0.687746 -0.109390 0.027914
v -0.661947 -0.109390 0.027914
v -0.687746 -0.109390 -0.124919
v -0.661947 -0.109390 -0.124919
v -0.687746 -0.077946 0.055660
v -0.661947 -0.077946 0.055660
v -0.661947 -0.109390 0.055660
v -0.687746 -0.109390 0.055660
v -0.661947 -0.123698 0.047180
v -0.687746 -0.123698 0.047180
v -0.661947 -0.129156 0.027914
v -0.687746 -0.129156 0.027914
v -0.661947 -0.119061 -0.124919
v -0.687746 -0.119061 -0.124919
v -0.014465 -0.014465 0.241838
v -0.014465 -0.014465 -0.241838
v -0.014465 0.014465 0.241838
v -0.014465 0.014465 -0.241838
v 0.014465 0.014465 0.241838
v 0.014465 0.014465 -0.241838
v 0.014465 -0.014465 0.241838
v 0.014465 -0.014465 -0.241838
v -0.014465 -0.014465 0.241838
v -0.014465 -0.014465 -0.241838
v -0.687746 -0.109390 0.055660
v -0.687746 -0.077946 0.027914
v -0.687746 -0.077946 0.055660
v -0.687746 -0.109390 0.027914
v -0.687746 -0.123698 0.047180
v -0.687746 -0.129156 0.027914
v -0.687746 -0.119061 -0.124919
v -0.687746 -0.109390 -0.124919
v -0.661947 -0.077946 0.055660
v -0.661947 -0.077946 0.027914
v -0.661947 -0.109390 0.027914
v -0.661947 -0.109390 0.055660
v -0.661947 -0.123698 0.047180
v -0.661947 -0.129156 0.027914
v -0.661947 -0.119061 -0.124919
v -0.661947 -0.109390 -0.124919
vt 0.149292 0.886719
vt 0.160522 0.753418
vt 0.149292 0.753418
vt 0.160522 0.886719
vt 0.149292 0.886719
vt 0.160522 0.753418
vt 0.149292 0.753418
vt 0.160522 0.886719
vt 0.149292 0.753418
vt 0.160522 0.886719
vt 0.160522 0.753418
vt 0.149292 0.886719
vt 0.160522 0.886719
vt 0.149292 0.753418
vt 0.149292 0.886719
vt 0.160522 0.753418
vt 0.160400 0.887207
vt 0.149414 0.752930
vt 0.149414 0.887207
vt 0.160400 0.752930
vt 0.160400 0.752930
vt 0.149414 0.887207
vt 0.160400 0.887207
vt 0.149414 0.752930
vt 0.160400 0.887207
vt 0.160400 0.752930
vt 0.149414 0.752930
vt 0.149414 0.887207
vt 0.160400 0.752930
vt 0.149414 0.887207
vt 0.160400 0.887207
vt 0.149414 0.752930
vt 0.160400 0.887207
vt 0.149414 0.752930
vt 0.149414 0.887207
vt 0.160400 0.752930
vt 0.149414 0.752930
vt 0.149414 0.887207
vt 0.160400 0.887207
vt 0.160400 0.752930
vt 0.149414 0.752930
vt 0.149414 0.887207
vt 0.160400 0.887207
vt 0.160400 0.752930
vt 0.160400 0.887207
vt 0.160400 0.752930
vt 0.149414 0.752930
vt 0.149414 0.887207
vt 0.142212 0.754395
vt 0.005665 0.754395
vt 0.142212 0.986328
vt 0.005665 0.986816
vt 0.045410 0.888672
vt 0.049500 0.814453
vt 0.045410 0.814453
vt 0.049500 0.888672
vt 0.160400 0.752930
vt 0.149292 0.886719
vt 0.160400 0.886719
vt 0.149292 0.752930
vt 0.027664 0.888672
vt 0.031769 0.814453
vt 0.027664 0.814453
vt 0.031769 0.888672
vt 0.045410 0.888672
vt 0.031769 0.888672
vt 0.031769 0.896973
vt 0.045410 0.896973
vt 0.045410 0.806152
vt 0.031769 0.814453
vt 0.045410 0.814453
vt 0.031769 0.806152
vt 0.073303 0.753418
vt 0.073303 0.765625
vt 0.076965 0.765625
vt 0.076965 0.753418
vt 0.066223 0.859375
vt 0.006039 0.754883
vt 0.006039 0.859375
vt 0.066223 0.754883
vt 0.000000 1.000000
vt 0.000000 1.000000
vt 0.000000 1.000000
vt 0.000000 1.000000
vt 0.000000 1.000000
vt 0.000000 1.000000
vt 0.000000 1.000000
vt 0.000000 1.000000
vt 0.121216 0.765625
vt 0.121216 0.753418
vt 0.113647 0.753418
vt 0.113647 0.765625
vt 0.076965 0.753418
vt 0.076965 0.765625
vt 0.160522 0.754883
vt 0.149414 0.754883
vt 0.149414 0.772949
vt 0.160522 0.772949
vt 0.149414 0.781250
vt 0.160522 0.781250
vt 0.149414 0.795410
vt 0.160522 0.795410
vt 0.149414 0.887207
vt 0.160522 0.887207
vt 0.215942 0.081909
vt 0.374268 0.081909
vt 0.215942 0.069580
vt 0.374268 0.069580
vt 0.215942 0.057220
vt 0.374268 0.057220
vt 0.215942 0.044861
vt 0.374268 0.044861
vt 0.215942 0.032501
vt 0.374268 0.032501
vt 0.125244 0.815918
vt 0.137207 0.834473
vt 0.137207 0.815918
vt 0.125244 0.834473
vt 0.119812 0.821777
vt 0.117737 0.834473
vt 0.121582 0.937988
vt 0.125244 0.937988
vt 0.098328 0.815918
vt 0.098328 0.834473
vt 0.110229 0.834473
vt 0.110229 0.815918
vt 0.115662 0.821777
vt 0.117737 0.834473
vt 0.113892 0.937988
vt 0.110229 0.937988
vt1 0.695312 0.982910
vt1 0.727051 0.585938
vt1 0.695312 0.585938
vt1 0.727051 0.982910
vt1 0.695312 0.561035
vt1 0.727051 0.007812
vt1 0.695312 0.007812
vt1 0.727051 0.561035
vt1 0.757812 0.007812
vt1 0.789551 0.561035
vt1 0.789551 0.007812
vt1 0.757812 0.561035
vt1 0.789551 0.982910
vt1 0.757812 0.585938
vt1 0.757812 0.982910
vt1 0.789551 0.585938
vt1 0.852539 0.423584
vt1 0.820312 0.007812
vt1 0.820312 0.423584
vt1 0.852539 0.007812
vt1 0.602539 0.382812
vt1 0.570312 0.954102
vt1 0.602539 0.954102
vt1 0.570312 0.382812
vt1 0.665039 0.954102
vt1 0.665039 0.382812
vt1 0.632812 0.382812
vt1 0.632812 0.954102
vt1 0.852539 0.445312
vt1 0.820312 0.860840
vt1 0.852539 0.860840
vt1 0.820312 0.445312
vt1 0.414062 0.882812
vt1 0.007812 0.902344
vt1 0.414062 0.902344
vt1 0.007812 0.882812
vt1 0.882812 0.007812
vt1 0.882812 0.566406
vt1 0.902344 0.566406
vt1 0.902344 0.007812
vt1 0.929688 0.007812
vt1 0.929688 0.566406
vt1 0.949219 0.566406
vt1 0.949219 0.007812
vt1 0.414062 0.835449
vt1 0.007812 0.835449
vt1 0.007812 0.855469
vt1 0.414062 0.855469
vt1 0.553223 0.007812
vt1 0.007812 0.008156
vt1 0.553223 0.404785
vt1 0.007812 0.405029
vt1 0.929688 0.909180
vt1 0.942871 0.789062
vt1 0.929688 0.789062
vt1 0.942871 0.909180
vt1 0.473877 0.835938
vt1 0.429688 0.956055
vt1 0.473877 0.956055
vt1 0.429688 0.835938
vt1 0.960938 0.909180
vt1 0.974121 0.789062
vt1 0.960938 0.789062
vt1 0.974121 0.909180
vt1 0.070312 0.929688
vt1 0.070312 0.973633
vt1 0.083618 0.973633
vt1 0.083618 0.929688
vt1 0.052185 0.929688
vt1 0.007812 0.942871
vt1 0.052185 0.942871
vt1 0.007812 0.929688
vt1 0.929688 0.771973
vt1 0.948242 0.771973
vt1 0.948242 0.761230
vt1 0.929688 0.761230
vt1 0.542480 0.808594
vt1 0.007812 0.429688
vt1 0.007812 0.808594
vt1 0.542480 0.429688
vt1 0.007812 0.007812
vt1 0.007812 0.007812
vt1 0.007812 0.007812
vt1 0.007812 0.007812
vt1 0.007812 0.007812
vt1 0.007812 0.007812
vt1 0.007812 0.007812
vt1 0.007812 0.007812
vt1 0.948242 0.632812
vt1 0.929688 0.632812
vt1 0.929688 0.654297
vt1 0.948242 0.654297
vt1 0.929688 0.761230
vt1 0.948242 0.761230
vt1 0.901367 0.742188
vt1 0.882812 0.742188
vt1 0.882812 0.763184
vt1 0.901367 0.763184
vt1 0.882812 0.773926
vt1 0.901367 0.773926
vt1 0.882812 0.791016
vt1 0.901367 0.791016
vt1 0.882812 0.900879
vt1 0.901367 0.900879
vt1 0.653320 0.355713
vt1 0.653320 0.007812
vt1 0.632324 0.355713
vt1 0.632324 0.007812
vt1 0.611816 0.355713
vt1 0.611816 0.007812
vt1 0.590820 0.355713
vt1 0.590820 0.007812
vt1 0.570312 0.355713
vt1 0.570312 0.007812
vt1 0.896973 0.585938
vt1 0.919434 0.605469
vt1 0.919434 0.585938
vt1 0.896973 0.605469
vt1 0.886719 0.591797
vt1 0.882812 0.605469
vt1 0.889648 0.715820
vt1 0.896973 0.715820
vt1 0.492188 0.835938
vt1 0.492188 0.855469
vt1 0.514648 0.855469
vt1 0.514648 0.835938
vt1 0.524902 0.841797
vt1 0.528809 0.855469
vt1 0.521484 0.965820
vt1 0.514648 0.965820
vn 0.708661 0.708661 0.000000
vn 0.708661 0.708661 0.000000
vn 0.708661 0.708661 0.000000
vn 0.708661 0.708661 0.000000
vn 0.000000 0.708661 0.708661
vn 0.000000 0.708661 0.708661
vn 0.000000 0.708661 0.708661
vn 0.000000 0.708661 0.708661
vn 0.000000 0.708661 -0.708661
vn 0.000000 0.708661 -0.708661
vn 0.000000 0.708661 -0.708661
vn 0.000000 0.708661 -0.708661
vn -0.708661 0.708661 0.000000
vn -0.708661 0.708661 0.000000
vn -0.708661 0.708661 0.000000
vn -0.708661 0.708661 0.000000
vn -1.000000 0.000000 0.000000
vn -1.000000 0.000000 0.000000
vn -1.000000 0.000000 0.000000
vn -1.000000 0.000000 0.000000
vn 0.000000 0.000000 -1.000000
vn 0.000000 0.000000 -1.000000
vn 0.000000 0.000000 -1.000000
vn 0.000000 0.000000 -1.000000
vn 0.000000 0.000000 1.000000
vn 0.000000 0.000000 1.000000
vn 0.000000 0.000000 1.000000
vn 0.000000 0.000000 1.000000
vn 1.000000 0.000000 0.000000
vn 1.000000 0.000000 0.000000
vn 1.000000 0.000000 0.000000
vn 1.000000 0.000000 0.000000
vn -0.677165 -0.732283 0.000000
vn -0.677165 -0.732283 0.000000
vn -0.677165 -0.732283 0.000000
vn -0.677165 -0.732283 0.000000
vn 0.000000 -0.614173 -0.787402
vn 0.000000 -0.614173 -0.787402
vn 0.000000 -0.614173 -0.787402
vn 0.000000 -0.614173 -0.787402
vn 0.000000 -0.614173 0.787402
vn 0.000000 -0.614173 0.787402
vn 0.000000 -0.614173 0.787402
vn 0.000000 -0.614173 0.787402
vn 0.677165 -0.732283 0.000000
vn 0.677165 -0.732283 0.000000
vn 0.677165 -0.732283 0.000000
vn 0.677165 -0.732283 0.000000
vn 0.000000 -1.000000 0.000000
vn 0.000000 -1.000000 0.000000
vn 0.000000 -1.000000 0.000000
vn 0.000000 -1.000000 0.000000
vn -1.000000 0.000000 0.000000
vn -1.000000 0.000000 0.000000
vn -1.000000 0.000000 0.000000
vn -1.000000 0.000000 0.000000
vn 0.000000 -1.000000 0.000000
vn 0.000000 -1.000000 0.000000
vn 0.000000 -1.000000 0.000000
vn 0.000000 -1.000000 0.000000
vn 1.000000 0.000000 0.000000
vn 1.000000 0.000000 0.000000
vn 1.000000 0.000000 0.000000
vn 1.000000 0.000000 0.000000
vn 0.000000 0.000000 -1.000000
vn 0.000000 0.000000 -1.000000
vn 0.000000 0.000000 -1.000000
vn 0.000000 0.000000 -1.000000
vn 0.000000 0.000000 1.000000
vn 0.000000 0.000000 1.000000
vn 0.000000 0.000000 1.000000
vn 0.000000 0.000000 1.000000
vn 0.000000 0.000000 -1.000000
vn 0.000000 0.000000 -1.000000
vn 0.000000 0.000000 -1.000000
vn 0.000000 0.000000 -1.000000
vn 0.000000 1.000000 0.000000
vn 0.000000 1.000000 0.000000
vn 0.000000 1.000000 0.000000
vn 0.000000 1.000000 0.000000
vn 0.000000 0.000000 -1.000000
vn 0.000000 0.000000 -1.000000
vn 0.000000 0.000000 -1.000000
vn 0.000000 0.000000 -1.000000
vn 0.000000 0.000000 1.000000
vn 0.000000 0.000000 1.000000
vn 0.000000 0.000000 1.000000
vn 0.000000 0.000000 1.000000
vn 0.000000 0.000000 -1.000000
vn 0.000000 0.000000 -1.000000
vn 0.000000 0.708661 -0.708661
vn 0.000000 0.708661 -0.708661
vn 0.000000 1.000000 0.000000
vn 0.000000 1.000000 0.000000
vn 0.000000 0.000000 1.000000
vn 0.000000 0.000000 1.000000
vn 0.000000 -0.267717 0.960630
vn 0.000000 -0.267717 0.960630
vn 0.000000 -0.795276 0.606299
vn 0.000000 -0.795276 0.606299
vn 0.000000 -0.992126 0.102362
vn 0.000000 -0.992126 0.102362
vn 0.000000 -1.000000 -0.062992
vn 0.000000 -1.000000 -0.062992
vn -0.708661 -0.708661 0.000000
vn -0.708661 -0.708661 0.000000
vn -0.708661 0.708661 0.000000
vn -0.708661 0.708661 0.000000
vn 0.708661 0.708661 0.000000
vn 0.708661 0.708661 0.000000
vn 0.708661 -0.708661 0.000000
vn 0.708661 -0.708661 0.000000
vn -0.708661 -0.708661 0.000000
vn -0.708661 -0.708661 0.000000
vn -1.000000 0.000000 0.000000
vn -1.000000 0.000000 0.000000
vn -1.000000 0.000000 0.000000
vn -1.000000 0.000000 0.000000
vn -1.000000 0.000000 0.000000
vn -1.000000 0.000000 0.000000
vn -1.000000 0.000000 0.000000
vn -1.000000 0.000000 0.000000
vn 1.000000 0.000000 0.000000
vn 1.000000 0.000000 0.000000
vn 1.000000 0.000000 0.000000
vn 1.000000 0.000000 0.000000
vn 1.000000 0.000000 0.000000
vn 1.000000 0.000000 0.000000
vn 1.000000 0.000000 0.000000
vn 1.000000 0.000000 0.000000
tan -0.606299 0.606299 -0.519685 1.000000
tan -0.590551 0.590551 0.551181 1.000000
tan -0.574803 0.574803 0.574803 1.000000
tan -0.574803 0.574803 -0.574803 1.000000
tan 0.559055 -0.582677 0.582677 1.000000
tan -0.535433 -0.598425 0.598425 1.000000
tan -0.574803 -0.574803 0.574803 1.000000
tan 0.574803 -0.574803 0.574803 1.000000
tan 0.535433 0.598425 0.598425 1.000000
tan -0.559055 0.582677 0.582677 1.000000
tan 0.574803 0.574803 0.574803 1.000000
tan -0.574803 0.574803 0.574803 1.000000
tan -0.606299 -0.606299 0.519685 1.000000
tan -0.590551 -0.590551 -0.551181 1.000000
tan -0.574803 -0.574803 0.574803 1.000000
tan -0.574803 -0.574803 -0.574803 1.000000
tan 0.000000 -1.000000 0.000000 1.000000
tan 0.000000 -1.000000 0.000000 1.000000
tan 0.000000 -1.000000 0.000000 1.000000
tan 0.000000 -1.000000 0.000000 1.000000
tan 0.000000 -1.000000 0.000000 1.000000
tan 0.000000 -1.000000 0.000000 1.000000
tan 0.000000 -1.000000 0.000000 1.000000
tan 0.000000 -1.000000 0.000000 1.000000
tan 0.000000 -1.000000 0.000000 1.000000
tan 0.000000 -1.000000 0.000000 1.000000
tan 0.000000 -1.000000 0.000000 1.000000
tan 0.000000 -1.000000 0.000000 1.000000
tan 0.000000 -1.000000 0.000000 1.000000
tan 0.000000 -1.000000 0.000000 1.000000
tan 0.000000 -1.000000 0.000000 1.000000
tan 0.000000 -1.000000 0.000000 1.000000
tan 0.653543 -0.606299 -0.456693 1.000000
tan 0.661417 -0.606299 0.440945 1.000000
tan 0.645669 -0.598425 -0.472441 1.000000
tan 0.645669 -0.598425 0.472441 1.000000
tan -0.622047 -0.614173 0.480315 1.000000
tan 0.645669 -0.598425 0.472441 1.000000
tan 0.637795 -0.606299 0.472441 1.000000
tan -0.645669 -0.598425 0.472441 1.000000
tan 0.622047 -0.614173 -0.480315 1.000000
tan -0.645669 -0.598425 -0.472441 1.000000
tan -0.637795 -0.606299 -0.472441 1.000000
tan 0.645669 -0.598425 -0.472441 1.000000
tan -0.653543 -0.606299 0.456693 1.000000
tan -0.645669 -0.598425 -0.472441 1.000000
tan -0.661417 -0.606299 -0.440945 1.000000
tan -0.645669 -0.598425 0.472441 1.000000
tan -1.000000 0.000000 0.000000 1.000000
tan -1.000000 0.000000 0.000000 1.000000
tan -1.000000 0.000000 0.000000 1.000000
tan -1.000000 0.000000 0.000000 1.000000
tan 0.000000 1.000000 0.000000 1.000000
tan 0.000000 1.000000 0.000000 1.000000
tan 0.000000 1.000000 0.000000 1.000000
tan 0.000000 1.000000 0.000000 1.000000
tan 1.000000 0.000000 0.000000 1.000000
tan 1.000000 0.000000 0.000000 1.000000
tan 1.000000 0.000000 0.000000 1.000000
tan 1.000000 0.000000 0.000000 1.000000
tan 0.000000 -1.000000 0.000000 1.000000
tan 0.000000 -1.000000 0.000000 1.000000
tan 0.000000 -1.000000 0.000000 1.000000
tan 0.000000 -1.000000 0.000000 1.000000
tan -1.000000 0.000000 0.000000 1.000000
tan -1.000000 0.000000 0.000000 1.000000
tan -1.000000 0.000000 0.000000 1.000000
tan -1.000000 0.000000 0.000000 1.000000
tan -1.000000 0.000000 0.000000 1.000000
tan -1.000000 0.000000 0.000000 1.000000
tan -1.000000 0.000000 0.000000 1.000000
tan -1.000000 0.000000 0.000000 1.000000
tan 0.000000 1.000000 0.000000 1.000000
tan 0.000000 1.000000 0.000000 1.000000
tan 0.000000 1.000000 0.000000 1.000000
tan 0.000000 1.000000 0.000000 1.000000
tan -1.000000 0.000000 0.000000 1.000000
tan -1.000000 0.000000 0.000000 1.000000
tan -1.000000 0.000000 0.000000 1.000000
tan -1.000000 0.000000 0.000000 1.000000
tan 1.000000 0.000000 0.000000 1.000000
tan 1.000000 0.000000 0.000000 1.000000
tan 1.000000 0.000000 0.000000 1.000000
tan 1.000000 0.000000 0.000000 1.000000
tan 1.000000 0.000000 0.000000 1.000000
tan 1.000000 0.000000 0.000000 1.000000
tan 1.000000 0.000000 0.000000 1.000000
tan 1.000000 0.000000 0.000000 1.000000
tan 0.000000 1.000000 0.000000 1.000000
tan 0.000000 1.000000 0.000000 1.000000
tan 0.000000 0.708661 0.708661 1.000000
tan 0.000000 0.708661 0.708661 1.000000
tan 0.000000 0.000000 1.000000 1.000000
tan 0.000000 0.000000 1.000000 1.000000
tan -1.000000 0.000000 0.000000 1.000000
tan -1.000000 0.000000 0.000000 1.000000
tan -1.000000 0.000000 0.000000 1.000000
tan -1.000000 0.000000 0.000000 1.000000
tan -1.000000 0.000000 0.000000 1.000000
tan -1.000000 0.000000 0.000000 1.000000
tan -1.000000 0.000000 0.000000 1.000000
tan -1.000000 0.000000 0.000000 1.000000
tan -1.000000 0.000000 0.000000 1.000000
tan -1.000000 0.000000 0.000000 1.000000
tan 0.000000 0.000000 -1.000000 1.000000
tan 0.000000 0.000000 -1.000000 1.000000
tan 0.000000 0.000000 -1.000000 1.000000
tan 0.000000 0.000000 -1.000000 1.000000
tan 0.000000 0.000000 -1.000000 1.000000
tan 0.000000 0.000000 -1.000000 1.000000
tan 0.000000 0.000000 -1.000000 1.000000
tan 0.000000 0.000000 -1.000000 1.000000
tan 0.000000 0.000000 -1.000000 1.000000
tan 0.000000 0.000000 -1.000000 1.000000
tan 0.000000 1.000000 0.000000 1.000000
tan 0.000000 1.000000 0.000000 1.000000
tan 0.000000 1.000000 0.000000 1.000000
tan 0.000000 1.000000 0.000000 1.000000
tan 0.000000 1.000000 0.000000 1.000000
tan 0.000000 1.000000 0.000000 1.000000
tan 0.000000 1.000000 0.000000 1.000000
tan 0.000000 1.000000 0.000000 1.000000
tan 0.000000 -1.000000 0.000000 1.000000
tan 0.000000 -1.000000 0.000000 1.000000
tan 0.000000 -1.000000 0.000000 1.000000
tan 0.000000 -1.000000 0.000000 1.000000
tan 0.000000 -1.000000 0.000000 1.000000
tan 0.000000 -1.000000 0.000000 1.000000
tan 0.000000 -1.000000 0.000000 1.000000
tan 0.000000 -1.000000 0.000000 1.000000
f 3/3/3 2/2/2 1/1/1
f 4/4/4 1/1/1 2/2/2
f 7/7/7 6/6/6 5/5/5
f 5/5/5 6/6/6 8/8/8
f 11/11/11 10/10/10 9/9/9
f 12/12/12 9/9/9 10/10/10
f 15/15/15 14/14/14 13/13/13
f 16/16/16 13/13/13 14/14/14
f 19/19/19 18/18/18 17/17/17
f 20/20/20 17/17/17 18/18/18
f 23/23/23 22/22/22 21/21/21
f 24/24/24 21/21/21 22/22/22
f 27/27/27 26/26/26 25/25/25
f 25/25/25 28/28/28 27/27/27
f 31/31/31 30/30/30 29/29/29
f 32/32/32 29/29/29 30/30/30
f 35/35/35 34/34/34 33/33/33
f 36/36/36 33/33/33 34/34/34
f 39/39/39 38/38/38 37/37/37
f 40/40/40 39/39/39 37/37/37
f 43/43/43 42/42/42 41/41/41
f 44/44/44 43/43/43 41/41/41
f 47/47/47 46/46/46 45/45/45
f 45/45/45 48/48/48 47/47/47
f 51/51/51 50/50/50 49/49/49
f 51/51/51 52/52/52 50/50/50
f 55/55/55 54/54/54 53/53/53
f 56/56/56 53/53/53 54/54/54
f 59/59/59 58/58/58 57/57/57
f 60/60/60 57/57/57 58/58/58
f 63/63/63 62/62/62 61/61/61
f 64/64/64 61/61/61 62/62/62
f 67/67/67 66/66/66 65/65/65
f 65/65/65 68/68/68 67/67/67
f 71/71/71 70/70/70 69/69/69
f 72/72/72 69/69/69 70/70/70
f 75/75/75 74/74/74 73/73/73
f 73/73/73 76/76/76 75/75/75
f 79/79/79 78/78/78 77/77/77
f 80/80/80 77/77/77 78/78/78
f 83/83/83 82/82/82 81/81/81
f 83/83/83 84/84/84 82/82/82
f 87/87/87 86/86/86 85/85/85
f 88/88/88 85/85/85 86/86/86
f 91/91/91 90/90/90 89/89/89
f 91/91/91 89/89/89 92/92/92
f 91/91/91 92/92/92 93/93/93
f 94/94/94 93/93/93 92/92/92
f 97/97/97 96/96/96 95/95/95
f 97/97/97 95/95/95 98/98/98
f 99/99/99 97/97/97 98/98/98
f 98/98/98 100/100/100 99/99/99
f 99/99/99 100/100/100 101/101/101
f 102/102/102 101/101/101 100/100/100
f 102/102/102 103/103/103 101/101/101
f 104/104/104 103/103/103 102/102/102
f 107/107/107 106/106/106 105/105/105
f 108/108/108 106/106/106 107/107/107
f 109/109/109 108/108/108 107/107/107
f 110/110/110 108/108/108 109/109/109
f 111/111/111 110/110/110 109/109/109
f 112/112/112 110/110/110 111/111/111
f 113/113/113 112/112/112 111/111/111
f 114/114/114 112/112/112 113/113/113
f 117/117/117 116/116/116 115/115/115
f 118/118/118 115/115/115 116/116/116
f 115/115/115 118/118/118 119/119/119
f 120/120/120 119/119/119 118/118/118
f 118/118/118 121/121/121 120/120/120
f 122/122/122 121/121/121 118/118/118
f 125/125/125 124/124/124 123/123/123
f 125/125/125 123/123/123 126/126/126
f 126/126/126 127/127/127 125/125/125
f 128/128/128 125/125/125 127/127/127
f 128/128/128 129/129/129 125/125/125
f 130/130/130 125/125/125 129/129/129
