mtllib operating_lamp_B.mtl
g operating_lamp_B
#Vertices 125
#Indices 444
#Section 0 Offset 0 NumIndices 372 MaterialIndex 0 medical_furniture_mat
#Section 1 Offset 372 NumIndices 72 MaterialIndex 1 medical_furniture_mat
v 0.189651 0.349971 0.035630
v 0.293188 0.242186 0.122507
v 0.172948 0.359555 0.066093
v 0.190632 0.239809 0.240092
v 0.088111 0.346536 0.154067
v 0.279074 0.248819 0.156468
v 0.350646 0.086433 0.170721
v 0.247526 0.085585 0.287832
v 0.337953 0.088800 0.206024
v 0.350646 -0.086440 0.170721
v 0.337953 -0.088807 0.206024
v 0.247526 -0.085591 0.287832
v 0.279074 -0.248825 0.156468
v 0.293188 -0.242193 0.122507
v 0.190632 -0.239816 0.240092
v 0.172948 -0.359562 0.066093
v 0.189651 -0.349977 0.035630
v 0.088111 -0.346542 0.154067
v 0.038642 -0.399083 -0.046603
v 0.060543 -0.388445 -0.072704
v -0.039730 -0.384632 0.046796
v -0.068565 -0.349977 -0.181039
v -0.167570 -0.346542 -0.060475
v -0.095665 -0.359562 -0.159299
v -0.172102 -0.242193 -0.267917
v -0.270091 -0.239816 -0.146500
v -0.202502 -0.248825 -0.249068
v -0.229560 -0.086440 -0.316130
v -0.326986 -0.085591 -0.194240
v -0.261534 -0.088807 -0.298474
v -0.261534 0.088800 -0.298474
v -0.229560 0.086433 -0.316130
v -0.326986 0.085585 -0.194240
v -0.202502 0.248819 -0.249068
v -0.172102 0.242186 -0.267917
v -0.270091 0.239809 -0.146500
v -0.095665 0.359555 -0.159300
v -0.068565 0.349971 -0.181039
v -0.167570 0.346536 -0.060475
v 0.038642 0.399077 -0.046604
v 0.060543 0.388439 -0.072705
v -0.039730 0.384626 0.046796
v 0.189651 0.349971 0.035630
v 0.088111 0.346536 0.154067
v 0.172948 0.359555 0.066093
v 0.046428 -0.000003 -0.055882
v 0.060543 0.388439 -0.072705
v -0.068565 0.349971 -0.181039
v 0.189651 0.349971 0.035630
v -0.172102 0.242186 -0.267917
v 0.293188 0.242186 0.122507
v -0.229560 0.086433 -0.316130
v 0.350646 0.086433 0.170721
v -0.229560 -0.086440 -0.316130
v 0.350646 -0.086440 0.170721
v -0.172102 -0.242193 -0.267917
v 0.293188 -0.242193 0.122507
v -0.068565 -0.349977 -0.181039
v 0.189651 -0.349977 0.035630
v 0.060543 -0.388445 -0.072704
v 0.127681 0.199590 0.236653
v 0.088111 0.346536 0.154067
v 0.190632 0.239809 0.240092
v 0.247526 0.085585 0.287832
v 0.042355 0.288418 0.165056
v -0.039730 0.384626 0.046796
v 0.175034 0.071231 0.276387
v -0.064046 0.320120 0.075775
v 0.175034 -0.071237 0.276387
v 0.247526 -0.085591 0.287832
v -0.065269 0.144951 0.128703
v -0.170447 0.288418 -0.013506
v -0.167570 0.346536 -0.060475
v -0.270091 0.239809 -0.146500
v 0.012004 0.064507 0.193543
v -0.255774 0.199590 -0.085103
v -0.326986 0.085585 -0.194240
v -0.161627 0.116241 0.047850
v -0.303126 0.071231 -0.124837
v -0.326986 -0.085591 -0.194240
v -0.204510 -0.000003 0.011866
v 0.012004 -0.064514 0.193543
v -0.303126 -0.071237 -0.124837
v -0.161627 -0.116247 0.047850
v -0.255774 -0.199597 -0.085103
v -0.270091 -0.239816 -0.146500
v -0.170447 -0.288424 -0.013506
v -0.167570 -0.346542 -0.060475
v -0.039730 -0.384632 0.046796
v -0.065269 -0.144957 0.128703
v -0.064046 -0.320126 0.075775
v 0.042355 -0.288424 0.165056
v 0.088111 -0.346542 0.154067
v 0.127681 -0.199597 0.236654
v 0.190632 -0.239816 0.240092
v -0.020736 0.468321 0.026001
v -0.020736 -0.468321 0.026001
v -0.033258 -0.468321 -0.000000
v -0.033258 0.468321 -0.000001
v -0.020736 -0.468321 -0.026002
v -0.020736 0.468321 -0.026002
v 0.007401 -0.468321 -0.032424
v 0.007401 0.468321 -0.032424
v 0.029964 -0.468321 -0.014430
v 0.029964 0.468321 -0.014430
v 0.029964 -0.468321 0.014429
v 0.029964 0.468321 0.014429
v 0.007401 -0.468321 0.032423
v 0.007401 0.468321 0.032423
v -0.020736 -0.468321 0.026001
v -0.020736 0.468321 0.026001
v 0.029964 0.468321 -0.014430
v 0.029964 0.468321 0.014429
v 0.007401 0.468321 0.032423
v 0.007401 0.468321 -0.032424
v -0.020736 0.468321 0.026001
v -0.020736 0.468321 -0.026002
v -0.033258 0.468321 -0.000001
v 0.029964 -0.468321 -0.014430
v 0.007401 -0.468321 0.032423
v 0.029964 -0.468321 0.014429
v 0.007401 -0.468321 -0.032424
v -0.020736 -0.468321 0.026001
v -0.020736 -0.468321 -0.026002
v -0.033258 -0.468321 -0.000000
vt 0.507324 0.993652
vt 0.500977 0.958984
vt 0.500488 0.995117
vt 0.470215 0.964355
vt 0.476074 0.999023
vt 0.493896 0.959961
vt 0.496338 0.924316
vt 0.464355 0.929199
vt 0.488770 0.925293
vt 0.492188 0.889160
vt 0.484619 0.890137
vt 0.459473 0.893066
vt 0.480957 0.855469
vt 0.488281 0.854492
vt 0.456787 0.856934
vt 0.478516 0.821289
vt 0.485352 0.820801
vt 0.454834 0.822266
vt 0.477051 0.787598
vt 0.483643 0.787598
vt 0.453857 0.788574
vt 0.483643 0.754395
vt 0.452881 0.754883
vt 0.476807 0.753906
vt 0.484619 0.720703
vt 0.452881 0.719727
vt 0.477295 0.719727
vt 0.486572 0.685547
vt 0.454102 0.684082
vt 0.479004 0.685059
vt 0.481689 0.649414
vt 0.489014 0.649902
vt 0.456299 0.647461
vt 0.484863 0.614746
vt 0.491943 0.615234
vt 0.460693 0.611328
vt 0.489014 0.581055
vt 0.495850 0.581543
vt 0.465576 0.576660
vt 0.494141 0.547363
vt 0.500488 0.548828
vt 0.471436 0.543457
vt 0.507324 0.516113
vt 0.477051 0.510254
vt 0.500977 0.513672
vt 0.075439 0.323730
vt 0.150024 0.306396
vt 0.135254 0.275146
vt 0.150024 0.340820
vt 0.108643 0.253662
vt 0.135254 0.372070
vt 0.075439 0.246094
vt 0.108643 0.393555
vt 0.042236 0.253662
vt 0.075439 0.401123
vt 0.015617 0.275146
vt 0.042236 0.393555
vt 0.000845 0.306396
vt 0.015617 0.372070
vt 0.000845 0.340820
vt 0.578613 0.389404
vt 0.605469 0.411621
vt 0.590332 0.379883
vt 0.562988 0.357910
vt 0.590820 0.415039
vt 0.605469 0.447021
vt 0.556152 0.371582
vt 0.590820 0.443604
vt 0.528809 0.365479
vt 0.529297 0.350098
vt 0.558105 0.429199
vt 0.578613 0.469238
vt 0.590332 0.478760
vt 0.562988 0.500488
vt 0.546875 0.406494
vt 0.556641 0.487061
vt 0.529297 0.508789
vt 0.547363 0.452148
vt 0.529297 0.493408
vt 0.495361 0.500488
vt 0.522949 0.457764
vt 0.522461 0.400879
vt 0.501953 0.487061
vt 0.503418 0.442139
vt 0.479980 0.469482
vt 0.468018 0.478760
vt 0.467773 0.443848
vt 0.452881 0.447021
vt 0.452881 0.411865
vt 0.502930 0.416748
vt 0.467529 0.415283
vt 0.479736 0.389648
vt 0.468018 0.379883
vt 0.501465 0.371826
vt 0.495361 0.357910
vt 0.894043 0.309082
vt 0.894043 0.496094
vt 0.899902 0.496094
vt 0.899902 0.309082
vt 0.905273 0.496094
vt 0.905273 0.309082
vt 0.911133 0.496094
vt 0.911133 0.309082
vt 0.916992 0.496094
vt 0.916992 0.309082
vt 0.922363 0.496094
vt 0.922363 0.309082
vt 0.928223 0.496094
vt 0.928223 0.309082
vt 0.933594 0.496094
vt 0.933594 0.309082
vt 0.925781 0.299072
vt 0.924805 0.304688
vt 0.928223 0.309082
vt 0.931152 0.296387
vt 0.933594 0.309082
vt 0.936035 0.299072
vt 0.937500 0.304688
vt 0.925781 0.505859
vt 0.928223 0.496094
vt 0.924805 0.500488
vt 0.931152 0.508789
vt 0.933594 0.496094
vt 0.936035 0.505859
vt 0.937500 0.500488
vt1 0.710938 0.980957
vt1 0.723633 0.911621
vt1 0.725098 0.983887
vt1 0.786133 0.922363
vt1 0.773926 0.992188
vt1 0.738281 0.913574
vt1 0.732910 0.841797
vt1 0.797852 0.851074
vt1 0.748535 0.843750
vt1 0.741699 0.770508
vt1 0.756836 0.772949
vt1 0.807129 0.778320
vt1 0.764160 0.703125
vt1 0.749512 0.700684
vt1 0.812988 0.706055
vt1 0.769043 0.634277
vt1 0.755371 0.632812
vt1 0.816895 0.635742
vt1 0.772461 0.566406
vt1 0.758789 0.566406
vt1 0.818848 0.567871
vt1 0.758789 0.499756
vt1 0.820801 0.500000
vt1 0.772949 0.498779
vt1 0.756836 0.431396
vt1 0.820801 0.429932
vt1 0.771484 0.430176
vt1 0.752930 0.360840
vt1 0.818359 0.357422
vt1 0.768066 0.359619
vt1 0.762695 0.288330
vt1 0.748047 0.289307
vt1 0.813965 0.283691
vt1 0.756348 0.218384
vt1 0.742188 0.219238
vt1 0.805176 0.211304
vt1 0.748047 0.150024
vt1 0.733887 0.151123
vt1 0.794922 0.141724
vt1 0.737305 0.082642
vt1 0.724121 0.085083
vt1 0.783691 0.074585
vt1 0.710938 0.019272
vt1 0.771973 0.007812
vt1 0.724121 0.014664
vt1 0.464600 0.736328
vt1 0.702637 0.681641
vt1 0.655273 0.583984
vt1 0.702637 0.790527
vt1 0.570312 0.516113
vt1 0.655273 0.888672
vt1 0.464600 0.492188
vt1 0.570312 0.956543
vt1 0.358643 0.516113
vt1 0.464600 0.980469
vt1 0.273682 0.583984
vt1 0.358643 0.956543
vt1 0.226562 0.681641
vt1 0.273682 0.888672
vt1 0.226562 0.790527
vt1 0.408447 0.131470
vt1 0.494629 0.201660
vt1 0.446289 0.101685
vt1 0.359375 0.032410
vt1 0.447510 0.212158
vt1 0.494629 0.312744
vt1 0.338135 0.075623
vt1 0.447754 0.301758
vt1 0.250732 0.055908
vt1 0.250977 0.007812
vt1 0.343018 0.256836
vt1 0.408936 0.382568
vt1 0.446289 0.412842
vt1 0.359375 0.482178
vt1 0.308105 0.185303
vt1 0.338867 0.438721
vt1 0.251221 0.506836
vt1 0.308594 0.328857
vt1 0.251465 0.458984
vt1 0.142944 0.482422
vt1 0.231079 0.346924
vt1 0.230469 0.167969
vt1 0.164062 0.438965
vt1 0.168457 0.297607
vt1 0.093811 0.383301
vt1 0.056061 0.413086
vt1 0.054779 0.302490
vt1 0.007843 0.312988
vt1 0.007812 0.201904
vt1 0.168213 0.217896
vt1 0.054626 0.212891
vt1 0.093445 0.132080
vt1 0.056030 0.101868
vt1 0.163452 0.075989
vt1 0.142822 0.032562
vt1 0.851562 0.047516
vt1 0.851562 0.635742
vt1 0.869629 0.635742
vt1 0.869629 0.047516
vt1 0.887695 0.635742
vt1 0.887695 0.047516
vt1 0.905762 0.635742
vt1 0.905762 0.047516
vt1 0.923828 0.635742
vt1 0.923828 0.047516
vt1 0.941895 0.635742
vt1 0.941895 0.047516
vt1 0.959961 0.635742
vt1 0.959961 0.047516
vt1 0.978027 0.635742
vt1 0.978027 0.047516
vt1 0.952637 0.015671
vt1 0.948730 0.033356
vt1 0.959961 0.047516
vt1 0.969238 0.007812
vt1 0.978027 0.047516
vt1 0.985352 0.015671
vt1 0.989746 0.033356
vt1 0.952637 0.667969
vt1 0.959961 0.635742
vt1 0.948730 0.649902
vt1 0.969238 0.675781
vt1 0.978027 0.635742
vt1 0.985352 0.667969
vt1 0.989746 0.649902
vn 0.511811 0.858268 0.015748
vn 0.779528 0.590551 0.212598
vn 0.393701 0.897638 0.204724
vn 0.165354 0.527559 0.826772
vn -0.055118 0.771654 0.637795
vn 0.661417 0.614173 0.425197
vn 0.921260 0.212598 0.314961
vn 0.291339 0.188976 0.937008
vn 0.811024 0.220472 0.543307
vn 0.921260 -0.212598 0.314961
vn 0.811024 -0.220472 0.543307
vn 0.291339 -0.188976 0.937008
vn 0.661417 -0.614173 0.425197
vn 0.779528 -0.590551 0.212598
vn 0.165354 -0.527559 0.826772
vn 0.393701 -0.897638 0.204724
vn 0.511811 -0.858268 0.015748
vn -0.055118 -0.771654 0.637795
vn 0.055118 -0.992126 -0.070866
vn 0.196850 -0.952756 -0.236220
vn -0.338583 -0.850394 0.401575
vn -0.102362 -0.858268 -0.503937
vn -0.622047 -0.771654 0.165354
vn -0.267717 -0.897638 -0.354331
vn -0.330709 -0.590551 -0.732283
vn -0.850394 -0.527559 -0.023622
vn -0.527559 -0.614173 -0.582677
vn -0.456693 -0.212598 -0.866142
vn -0.976378 -0.188976 -0.125984
vn -0.669291 -0.220472 -0.708661
vn -0.669291 0.220472 -0.708661
vn -0.456693 0.212598 -0.866142
vn -0.976378 0.188976 -0.125984
vn -0.527559 0.614173 -0.582677
vn -0.330709 0.590551 -0.732283
vn -0.850394 0.527559 -0.023622
vn -0.267717 0.897638 -0.354331
vn -0.102362 0.858268 -0.503937
vn -0.622047 0.771654 0.165354
vn 0.055118 0.992126 -0.070866
vn 0.196850 0.952756 -0.236220
vn -0.338583 0.850394 0.401575
vn 0.511811 0.858268 0.015748
vn -0.055118 0.771654 0.637795
vn 0.393701 0.897638 0.204724
vn 0.645669 0.000000 -0.763780
vn 0.645669 -0.055118 -0.763780
vn 0.661417 -0.047244 -0.748031
vn 0.622047 -0.047244 -0.779528
vn 0.677165 -0.031496 -0.740157
vn 0.606299 -0.031496 -0.795276
vn 0.685039 -0.015748 -0.732283
vn 0.598425 -0.015748 -0.803150
vn 0.685039 0.015748 -0.732283
vn 0.598425 0.015748 -0.803150
vn 0.677165 0.031496 -0.740157
vn 0.606299 0.031496 -0.795276
vn 0.661417 0.047244 -0.748031
vn 0.622047 0.047244 -0.779528
vn 0.645669 0.055118 -0.763780
vn -0.362205 0.244094 0.897638
vn -0.055118 0.771654 0.637795
vn 0.165354 0.527559 0.826772
vn 0.291339 0.188976 0.937008
vn -0.464567 0.346457 0.818898
vn -0.338583 0.850394 0.401575
vn -0.299213 0.086614 0.952756
vn -0.590551 0.385827 0.700787
vn -0.299213 -0.086614 0.952756
vn 0.291339 -0.188976 0.937008
vn -0.614173 0.133858 0.779528
vn -0.716535 0.354331 0.598425
vn -0.622047 0.771654 0.165354
vn -0.850394 0.527559 -0.023622
vn -0.543307 0.062992 0.834646
vn -0.826772 0.244094 0.511811
vn -0.976378 0.188976 -0.125984
vn -0.700787 0.110236 0.700787
vn -0.881890 0.086614 0.464567
vn -0.976378 -0.188976 -0.125984
vn -0.740157 0.000000 0.669291
vn -0.543307 -0.062992 0.834646
vn -0.881890 -0.086614 0.464567
vn -0.700787 -0.110236 0.700787
vn -0.826772 -0.244094 0.511811
vn -0.850394 -0.527559 -0.023622
vn -0.716535 -0.354331 0.598425
vn -0.622047 -0.771654 0.165354
vn -0.338583 -0.850394 0.401575
vn -0.614173 -0.133858 0.779528
vn -0.590551 -0.385827 0.700787
vn -0.464567 -0.346457 0.818898
vn -0.055118 -0.771654 0.637795
vn -0.362205 -0.244094 0.897638
vn 0.165354 -0.527559 0.826772
vn -0.622047 0.000000 0.779528
vn -0.622047 0.000000 0.779528
vn -1.000000 0.000000 0.000000
vn -1.000000 0.000000 0.000000
vn -0.622047 0.000000 -0.779528
vn -0.622047 0.000000 -0.779528
vn 0.220472 0.000000 -0.976378
vn 0.220472 0.000000 -0.976378
vn 0.897638 0.000000 -0.433071
vn 0.897638 0.000000 -0.433071
vn 0.897638 0.000000 0.433071
vn 0.897638 0.000000 0.433071
vn 0.220472 0.000000 0.976378
vn 0.220472 0.000000 0.976378
vn -0.622047 0.000000 0.779528
vn -0.622047 0.000000 0.779528
vn 0.000000 1.000000 0.000000
vn 0.000000 1.000000 0.000000
vn 0.000000 1.000000 0.000000
vn 0.000000 1.000000 0.000000
vn 0.000000 1.000000 0.000000
vn 0.000000 1.000000 0.000000
vn 0.000000 1.000000 0.000000
vn 0.000000 -1.000000 0.000000
vn 0.000000 -1.000000 0.000000
vn 0.000000 -1.000000 0.000000
vn 0.000000 -1.000000 0.000000
vn 0.000000 -1.000000 0.000000
vn 0.000000 -1.000000 0.000000
vn 0.000000 -1.000000 0.000000
tan 0.314961 -0.173228 -0.937008 1.000000
tan 0.322835 -0.086614 -0.944882 1.000000
tan 0.456693 0.000000 -0.889764 1.000000
tan 0.755906 0.464567 -0.456693 1.000000
tan 0.606299 0.535433 -0.590551 1.000000
tan 0.496063 0.062992 -0.866142 1.000000
tan 0.314961 0.047244 -0.944882 1.000000
tan 0.905512 0.267717 -0.338583 1.000000
tan 0.527559 0.125984 -0.842520 1.000000
tan 0.354331 0.188976 -0.913386 1.000000
tan 0.574803 0.149606 -0.803150 1.000000
tan 0.952756 -0.015748 -0.299213 1.000000
tan 0.622047 0.133858 -0.771654 1.000000
tan 0.448819 0.291339 -0.842520 1.000000
tan 0.889764 -0.283465 -0.362205 1.000000
tan 0.645669 0.110236 -0.755906 1.000000
tan 0.551181 0.314961 -0.771654 1.000000
tan 0.748031 -0.456693 -0.488189 1.000000
tan 0.661417 0.094488 -0.748031 1.000000
tan 0.629921 0.307087 -0.708661 1.000000
tan 0.566929 -0.519685 -0.637795 1.000000
tan 0.708661 0.299213 -0.645669 1.000000
tan 0.393701 -0.480315 -0.787402 1.000000
tan 0.669291 0.086614 -0.740157 1.000000
tan 0.787402 0.251969 -0.559055 1.000000
tan 0.228346 -0.322835 -0.913386 1.000000
tan 0.685039 0.094488 -0.716535 1.000000
tan 0.858268 0.141732 -0.496063 1.000000
tan 0.141732 -0.062992 -0.984252 1.000000
tan 0.708661 0.078740 -0.700787 1.000000
tan 0.732283 0.055118 -0.677165 1.000000
tan 0.881890 -0.007874 -0.472441 1.000000
tan 0.165354 0.228346 -0.960630 1.000000
tan 0.755906 0.023622 -0.661417 1.000000
tan 0.850394 -0.141732 -0.496063 1.000000
tan 0.299213 0.440945 -0.842520 1.000000
tan 0.763780 -0.023622 -0.645669 1.000000
tan 0.795276 -0.228346 -0.559055 1.000000
tan 0.488189 0.543307 -0.685039 1.000000
tan 0.763780 -0.086614 -0.645669 1.000000
tan 0.732283 -0.299213 -0.606299 1.000000
tan 0.677165 0.511811 -0.527559 1.000000
tan 0.677165 -0.393701 -0.622047 1.000000
tan 0.818898 0.401575 -0.409449 1.000000
tan 0.740157 -0.181102 -0.645669 1.000000
tan 0.173228 0.976378 0.141732 1.000000
tan 0.204724 0.976378 0.102362 1.000000
tan 0.196850 0.976378 0.110236 1.000000
tan 0.204724 0.976378 0.102362 1.000000
tan 0.188976 0.976378 0.125984 1.000000
tan 0.196850 0.976378 0.110236 1.000000
tan 0.173228 0.976378 0.141732 1.000000
tan 0.188976 0.976378 0.125984 1.000000
tan 0.157480 0.976378 0.165354 1.000000
tan 0.173228 0.976378 0.141732 1.000000
tan 0.141732 0.976378 0.173228 1.000000
tan 0.157480 0.976378 0.165354 1.000000
tan 0.133858 0.976378 0.181102 1.000000
tan 0.141732 0.976378 0.173228 1.000000
tan 0.133858 0.976378 0.181102 1.000000
tan 0.330709 0.937008 -0.118110 1.000000
tan 0.527559 0.566929 -0.637795 1.000000
tan 0.322835 0.763780 -0.559055 1.000000
tan 0.204724 0.944882 -0.251969 1.000000
tan 0.393701 0.905512 -0.165354 1.000000
tan 0.724409 0.503937 -0.464567 1.000000
tan 0.244094 0.968504 -0.007874 1.000000
tan 0.417323 0.897638 -0.141732 1.000000
tan 0.173228 0.976378 0.141732 1.000000
tan 0.173228 0.976378 0.141732 1.000000
tan 0.251969 0.968504 0.039370 1.000000
tan 0.385827 0.921260 -0.070866 1.000000
tan 0.740157 0.637795 -0.204724 1.000000
tan 0.527559 0.850394 0.007874 1.000000
tan 0.212598 0.976378 0.070866 1.000000
tan 0.299213 0.952756 0.039370 1.000000
tan 0.173228 0.976378 0.141732 1.000000
tan 0.228346 0.968504 0.078740 1.000000
tan 0.173228 0.976378 0.141732 1.000000
tan -0.212598 0.944882 0.251969 1.000000
tan 0.149606 0.976378 0.157480 1.000000
tan 0.149606 0.976378 0.165354 1.000000
tan 0.031496 0.968504 0.244094 1.000000
tan 0.086614 0.968504 0.228346 1.000000
tan -0.062992 0.937008 0.338583 1.000000
tan -0.488189 0.763780 0.417323 1.000000
tan -0.094488 0.905512 0.417323 1.000000
tan -0.527559 0.559055 0.637795 1.000000
tan -0.330709 0.503937 0.795276 1.000000
tan 0.094488 0.968504 0.236220 1.000000
tan -0.062992 0.897638 0.440945 1.000000
tan 0.000000 0.921260 0.393701 1.000000
tan -0.062992 0.637795 0.763780 1.000000
tan 0.078740 0.952756 0.291339 1.000000
tan 0.102362 0.850394 0.519685 1.000000
tan -0.779528 0.000000 -0.622047 1.000000
tan -0.779528 0.000000 -0.622047 1.000000
tan 0.000000 0.000000 -1.000000 1.000000
tan 0.000000 0.000000 -1.000000 1.000000
tan 0.779528 0.000000 -0.622047 1.000000
tan 0.779528 0.000000 -0.622047 1.000000
tan 0.976378 0.000000 0.220472 1.000000
tan 0.976378 0.000000 0.220472 1.000000
tan 0.433071 0.000000 0.897638 1.000000
tan 0.433071 0.000000 0.897638 1.000000
tan -0.433071 0.000000 0.897638 1.000000
tan -0.433071 0.000000 0.897638 1.000000
tan -0.976378 0.000000 0.220472 1.000000
tan -0.976378 0.000000 0.220472 1.000000
tan -0.779528 0.000000 -0.622047 1.000000
tan -0.779528 0.000000 -0.622047 1.000000
tan -0.976378 0.000000 -0.220472 1.000000
tan -0.976378 0.000000 -0.220472 1.000000
tan -0.976378 0.000000 -0.220472 1.000000
tan -0.976378 0.000000 -0.220472 1.000000
tan -0.976378 0.000000 -0.220472 1.000000
tan -0.976378 0.000000 -0.220472 1.000000
tan -0.976378 0.000000 -0.220472 1.000000
tan -0.976378 0.000000 -0.220472 1.000000
tan -0.976378 0.000000 -0.220472 1.000000
tan -0.976378 0.000000 -0.220472 1.000000
tan -0.976378 0.000000 -0.220472 1.000000
tan -0.976378 0.000000 -0.220472 1.000000
tan -0.976378 0.000000 -0.220472 1.000000
tan -0.976378 0.000000 -0.220472 1.000000
f 3/3/3 2/2/2 1/1/1
f 5/5/5 4/4/4 3/3/3
f 3/3/3 6/6/6 2/2/2
f 6/6/6 3/3/3 4/4/4
f 6/6/6 7/7/7 2/2/2
f 4/4/4 8/8/8 6/6/6
f 9/9/9 7/7/7 6/6/6
f 9/9/9 6/6/6 8/8/8
f 7/7/7 9/9/9 10/10/10
f 8/8/8 11/11/11 9/9/9
f 11/11/11 10/10/10 9/9/9
f 12/12/12 11/11/11 8/8/8
f 11/11/11 13/13/13 10/10/10
f 12/12/12 13/13/13 11/11/11
f 14/14/14 10/10/10 13/13/13
f 12/12/12 15/15/15 13/13/13
f 13/13/13 16/16/16 14/14/14
f 13/13/13 15/15/15 16/16/16
f 17/17/17 14/14/14 16/16/16
f 16/16/16 15/15/15 18/18/18
f 16/16/16 19/19/19 17/17/17
f 16/16/16 18/18/18 19/19/19
f 20/20/20 17/17/17 19/19/19
f 19/19/19 18/18/18 21/21/21
f 20/20/20 19/19/19 22/22/22
f 21/21/21 23/23/23 19/19/19
f 22/22/22 19/19/19 24/24/24
f 24/24/24 19/19/19 23/23/23
f 24/24/24 25/25/25 22/22/22
f 23/23/23 26/26/26 24/24/24
f 25/25/25 24/24/24 27/27/27
f 27/27/27 24/24/24 26/26/26
f 27/27/27 28/28/28 25/25/25
f 26/26/26 29/29/29 27/27/27
f 28/28/28 27/27/27 30/30/30
f 30/30/30 27/27/27 29/29/29
f 30/30/30 31/31/31 28/28/28
f 30/30/30 29/29/29 31/31/31
f 32/32/32 28/28/28 31/31/31
f 33/33/33 31/31/31 29/29/29
f 31/31/31 34/34/34 32/32/32
f 31/31/31 33/33/33 34/34/34
f 35/35/35 32/32/32 34/34/34
f 36/36/36 34/34/34 33/33/33
f 34/34/34 37/37/37 35/35/35
f 37/37/37 34/34/34 36/36/36
f 38/38/38 35/35/35 37/37/37
f 36/36/36 39/39/39 37/37/37
f 37/37/37 40/40/40 38/38/38
f 39/39/39 40/40/40 37/37/37
f 41/41/41 38/38/38 40/40/40
f 39/39/39 42/42/42 40/40/40
f 40/40/40 43/43/43 41/41/41
f 42/42/42 44/44/44 40/40/40
f 40/40/40 45/45/45 43/43/43
f 45/45/45 40/40/40 44/44/44
f 48/48/48 47/47/47 46/46/46
f 47/47/47 49/49/49 46/46/46
f 50/50/50 48/48/48 46/46/46
f 49/49/49 51/51/51 46/46/46
f 52/52/52 50/50/50 46/46/46
f 51/51/51 53/53/53 46/46/46
f 54/54/54 52/52/52 46/46/46
f 53/53/53 55/55/55 46/46/46
f 56/56/56 54/54/54 46/46/46
f 55/55/55 57/57/57 46/46/46
f 58/58/58 56/56/56 46/46/46
f 57/57/57 59/59/59 46/46/46
f 60/60/60 58/58/58 46/46/46
f 59/59/59 60/60/60 46/46/46
f 63/63/63 62/62/62 61/61/61
f 63/63/63 61/61/61 64/64/64
f 65/65/65 61/61/61 62/62/62
f 62/62/62 66/66/66 65/65/65
f 67/67/67 64/64/64 61/61/61
f 68/68/68 65/65/65 66/66/66
f 64/64/64 67/67/67 69/69/69
f 69/69/69 70/70/70 64/64/64
f 71/71/71 65/65/65 68/68/68
f 65/65/65 71/71/71 61/61/61
f 68/68/68 66/66/66 72/72/72
f 72/72/72 71/71/71 68/68/68
f 73/73/73 72/72/72 66/66/66
f 72/72/72 73/73/73 74/74/74
f 75/75/75 61/61/61 71/71/71
f 75/75/75 67/67/67 61/61/61
f 76/76/76 72/72/72 74/74/74
f 76/76/76 74/74/74 77/77/77
f 78/78/78 71/71/71 72/72/72
f 78/78/78 72/72/72 76/76/76
f 71/71/71 78/78/78 75/75/75
f 77/77/77 79/79/79 76/76/76
f 78/78/78 76/76/76 79/79/79
f 77/77/77 80/80/80 79/79/79
f 78/78/78 81/81/81 75/75/75
f 78/78/78 79/79/79 81/81/81
f 82/82/82 67/67/67 75/75/75
f 82/82/82 75/75/75 81/81/81
f 82/82/82 69/69/69 67/67/67
f 81/81/81 79/79/79 83/83/83
f 80/80/80 83/83/83 79/79/79
f 81/81/81 83/83/83 84/84/84
f 84/84/84 82/82/82 81/81/81
f 83/83/83 80/80/80 85/85/85
f 85/85/85 84/84/84 83/83/83
f 86/86/86 85/85/85 80/80/80
f 85/85/85 86/86/86 87/87/87
f 84/84/84 85/85/85 87/87/87
f 88/88/88 87/87/87 86/86/86
f 87/87/87 88/88/88 89/89/89
f 84/84/84 87/87/87 90/90/90
f 90/90/90 82/82/82 84/84/84
f 91/91/91 87/87/87 89/89/89
f 91/91/91 90/90/90 87/87/87
f 91/91/91 89/89/89 92/92/92
f 90/90/90 91/91/91 92/92/92
f 93/93/93 92/92/92 89/89/89
f 82/82/82 90/90/90 94/94/94
f 92/92/92 94/94/94 90/90/90
f 92/92/92 93/93/93 94/94/94
f 82/82/82 94/94/94 69/69/69
f 95/95/95 94/94/94 93/93/93
f 69/69/69 94/94/94 70/70/70
f 94/94/94 95/95/95 70/70/70
f 98/98/98 97/97/97 96/96/96
f 99/99/99 98/98/98 96/96/96
f 100/100/100 98/98/98 99/99/99
f 101/101/101 100/100/100 99/99/99
f 100/100/100 101/101/101 102/102/102
f 103/103/103 102/102/102 101/101/101
f 102/102/102 103/103/103 104/104/104
f 105/105/105 104/104/104 103/103/103
f 104/104/104 105/105/105 106/106/106
f 105/105/105 107/107/107 106/106/106
f 108/108/108 106/106/106 107/107/107
f 107/107/107 109/109/109 108/108/108
f 110/110/110 108/108/108 109/109/109
f 109/109/109 111/111/111 110/110/110
f 114/114/114 113/113/113 112/112/112
f 112/112/112 115/115/115 114/114/114
f 114/114/114 115/115/115 116/116/116
f 117/117/117 116/116/116 115/115/115
f 118/118/118 116/116/116 117/117/117
f 121/121/121 120/120/120 119/119/119
f 119/119/119 120/120/120 122/122/122
f 120/120/120 123/123/123 122/122/122
f 124/124/124 122/122/122 123/123/123
f 125/125/125 124/124/124 123/123/123
