mtllib pictureFrame_A.mtl
g pictureFrame_A
#Vertices 40
#Indices 60
#Section 0 Offset 0 NumIndices 54 MaterialIndex 0 hospitalFurniture_Mat
#Section 1 Offset 54 NumIndices 6 MaterialIndex 1 picture_A
v 0.460898 -0.000000 0.000000
v 0.460898 -0.000000 -0.565296
v -0.460898 0.000000 0.000000
v -0.460898 0.000000 -0.565296
v 0.460898 0.024938 0.000000
v 0.460898 0.024938 -0.565296
v 0.460898 -0.000000 -0.565296
v 0.460898 -0.000000 0.000000
v -0.460898 0.024938 0.000000
v 0.460898 0.024938 0.000000
v 0.460898 -0.000000 0.000000
v -0.460898 0.000000 0.000000
v 0.460898 0.024938 -0.565296
v -0.460898 0.000000 -0.565296
v 0.460898 -0.000000 -0.565296
v -0.460898 0.024938 -0.565296
v -0.460898 0.000000 0.000000
v -0.460898 0.000000 -0.565296
v -0.460898 0.024938 -0.565296
v -0.460898 0.024938 0.000000
v 0.460898 0.024938 0.000000
v -0.431794 0.003472 -0.029104
v 0.431794 0.003472 -0.029104
v -0.460898 0.024938 0.000000
v -0.431794 0.003472 -0.536192
v -0.431794 0.003472 -0.029104
v -0.460898 0.024938 0.000000
v -0.460898 0.024938 -0.565296
v 0.460898 0.024938 0.000000
v 0.431794 0.003472 -0.536192
v 0.460898 0.024938 -0.565296
v 0.431794 0.003472 -0.029104
v -0.460898 0.024938 -0.565296
v 0.460898 0.024938 -0.565296
v 0.431794 0.003472 -0.536192
v -0.431794 0.003472 -0.536192
v 0.431794 0.003472 -0.029104
v -0.431794 0.003472 -0.029104
v 0.431794 0.003472 -0.536192
v -0.431794 0.003472 -0.536192
vt 0.000393 0.727539
vt 0.191895 0.727539
vt 0.000393 0.000537
vt 0.191895 0.000538
vt 0.001318 0.114990
vt 0.001318 0.621582
vt 0.012497 0.621582
vt 0.012497 0.114990
vt 0.001318 0.036774
vt 0.001318 0.693359
vt 0.012497 0.693359
vt 0.012497 0.036774
vt 0.001318 0.046997
vt 0.012497 0.684082
vt 0.012497 0.046997
vt 0.001318 0.684082
vt 0.012497 0.633301
vt 0.012497 0.126709
vt 0.001318 0.126709
vt 0.001318 0.633301
vt 0.192261 0.728516
vt 0.182373 0.022995
vt 0.182373 0.705078
vt 0.192261 0.000000
vt 0.009895 0.022995
vt 0.182373 0.022995
vt 0.192261 0.000000
vt 0.000000 0.000000
vt 0.192261 0.728516
vt 0.009895 0.705078
vt 0.000000 0.728516
vt 0.182373 0.705078
vt 0.000000 0.000000
vt 0.000000 0.728516
vt 0.009895 0.705078
vt 0.009895 0.022995
vt 1.000000 0.000000
vt 0.000000 0.000000
vt 1.000000 0.999512
vt 0.000000 1.000000
vt1 0.539062 0.737305
vt1 0.986328 0.737305
vt1 0.539062 0.007812
vt1 0.986328 0.007812
vt1 0.007812 0.980469
vt1 0.455322 0.980469
vt1 0.455322 0.960938
vt1 0.007812 0.960938
vt1 0.007812 0.886719
vt1 0.737305 0.886719
vt1 0.737305 0.867188
vt1 0.007812 0.867188
vt1 0.007812 0.839844
vt1 0.737305 0.820312
vt1 0.007812 0.820312
vt1 0.737305 0.839844
vt1 0.455322 0.914062
vt1 0.007812 0.914062
vt1 0.007812 0.933594
vt1 0.455322 0.933594
vt1 0.522949 0.803711
vt1 0.496582 0.032928
vt1 0.496582 0.778809
vt1 0.522949 0.007812
vt1 0.034332 0.032928
vt1 0.496582 0.032928
vt1 0.522949 0.007812
vt1 0.007812 0.007812
vt1 0.522949 0.803711
vt1 0.034332 0.778809
vt1 0.007812 0.803711
vt1 0.496582 0.778809
vt1 0.007812 0.007812
vt1 0.007812 0.803711
vt1 0.034332 0.778809
vt1 0.034332 0.032928
vt1 0.054688 0.054688
vt1 0.054688 0.738281
vt1 0.456055 0.054688
vt1 0.456055 0.738281
vn 0.000000 -1.000000 0.000000
vn 0.000000 -1.000000 0.000000
vn 0.000000 -1.000000 0.000000
vn 0.000000 -1.000000 0.000000
vn 1.000000 0.000000 0.000000
vn 1.000000 0.000000 0.000000
vn 1.000000 0.000000 0.000000
vn 1.000000 0.000000 0.000000
vn 0.000000 0.000000 1.000000
vn 0.000000 0.000000 1.000000
vn 0.000000 0.000000 1.000000
vn 0.000000 0.000000 1.000000
vn 0.000000 0.000000 -1.000000
vn 0.000000 0.000000 -1.000000
vn 0.000000 0.000000 -1.000000
vn 0.000000 0.000000 -1.000000
vn -1.000000 0.000000 0.000000
vn -1.000000 0.000000 0.000000
vn -1.000000 0.000000 0.000000
vn -1.000000 0.000000 0.000000
vn 0.000000 0.803150 -0.590551
vn 0.000000 0.803150 -0.590551
vn 0.000000 0.803150 -0.590551
vn 0.000000 0.803150 -0.590551
vn 0.590551 0.803150 0.000000
vn 0.590551 0.803150 0.000000
vn 0.590551 0.803150 0.000000
vn 0.590551 0.803150 0.000000
vn -0.590551 0.803150 0.000000
vn -0.590551 0.803150 0.000000
vn -0.590551 0.803150 0.000000
vn -0.590551 0.803150 0.000000
vn 0.000000 0.803150 0.590551
vn 0.000000 0.803150 0.590551
vn 0.000000 0.803150 0.590551
vn 0.000000 0.803150 0.590551
vn 0.000000 1.000000 0.000000
vn 0.000000 1.000000 0.000000
vn 0.000000 1.000000 0.000000
vn 0.000000 1.000000 0.000000
tan 0.000000 0.000000 -1.000000 1.000000
tan 0.000000 0.000000 -1.000000 1.000000
tan 0.000000 0.000000 -1.000000 1.000000
tan 0.000000 0.000000 -1.000000 1.000000
tan 0.000000 -1.000000 0.000000 1.000000
tan 0.000000 -1.000000 0.000000 1.000000
tan 0.000000 -1.000000 0.000000 1.000000
tan 0.000000 -1.000000 0.000000 1.000000
tan 0.000000 -1.000000 0.000000 1.000000
tan 0.000000 -1.000000 0.000000 1.000000
tan 0.000000 -1.000000 0.000000 1.000000
tan 0.000000 -1.000000 0.000000 1.000000
tan 0.000000 -1.000000 0.000000 1.000000
tan 0.000000 -1.000000 0.000000 1.000000
tan 0.000000 -1.000000 0.000000 1.000000
tan 0.000000 -1.000000 0.000000 1.000000
tan 0.000000 -1.000000 0.000000 1.000000
tan 0.000000 -1.000000 0.000000 1.000000
tan 0.000000 -1.000000 0.000000 1.000000
tan 0.000000 -1.000000 0.000000 1.000000
tan 0.000000 0.590551 0.803150 1.000000
tan 0.000000 0.590551 0.803150 1.000000
tan 0.000000 0.590551 0.803150 1.000000
tan 0.000000 0.590551 0.803150 1.000000
tan 0.000000 0.000000 1.000000 1.000000
tan 0.000000 0.000000 1.000000 1.000000
tan 0.000000 0.000000 1.000000 1.000000
tan 0.000000 0.000000 1.000000 1.000000
tan 0.000000 0.000000 1.000000 1.000000
tan 0.000000 0.000000 1.000000 1.000000
tan 0.000000 0.000000 1.000000 1.000000
tan 0.000000 0.000000 1.000000 1.000000
tan 0.000000 -0.590551 0.803150 1.000000
tan 0.000000 -0.590551 0.803150 1.000000
tan 0.000000 -0.590551 0.803150 1.000000
tan 0.000000 -0.590551 0.803150 1.000000
tan 1.000000 0.000000 0.000000 1.000000
tan 1.000000 0.000000 0.000000 1.000000
tan 1.000000 0.000000 0.000000 1.000000
tan 1.000000 0.000000 0.000000 1.000000
f 3/3/3 2/2/2 1/1/1
f 3/3/3 4/4/4 2/2/2
f 7/7/7 6/6/6 5/5/5
f 8/8/8 7/7/7 5/5/5
f 11/11/11 10/10/10 9/9/9
f 9/9/9 12/12/12 11/11/11
f 15/15/15 14/14/14 13/13/13
f 16/16/16 13/13/13 14/14/14
f 19/19/19 18/18/18 17/17/17
f 20/20/20 19/19/19 17/17/17
f 23/23/23 22/22/22 21/21/21
f 22/22/22 24/24/24 21/21/21
f 27/27/27 26/26/26 25/25/25
f 28/28/28 27/27/27 25/25/25
f 31/31/31 30/30/30 29/29/29
f 32/32/32 29/29/29 30/30/30
f 35/35/35 34/34/34 33/33/33
f 36/36/36 35/35/35 33/33/33
f 39/39/39 38/38/38 37/37/37
f 40/40/40 38/38/38 39/39/39
