mtllib pipe_Bt.mtl
g pipe_Bt
#Vertices 46
#Indices 96
#Section 0 Offset 0 NumIndices 96 MaterialIndex 0 heaterAndPipes_Mat
v -0.015804 1.300000 0.015803
v -0.015804 1.300000 -0.015804
v 0.015804 1.300000 0.015803
v 0.015804 1.300000 -0.015804
v 0.015804 -1.300000 0.015804
v 0.015804 -1.300000 -0.015803
v -0.015804 -1.300000 0.015804
v -0.015804 -1.300000 -0.015803
v -0.027767 0.042089 0.027767
v -0.027767 0.042089 -0.027767
v 0.027767 0.042089 0.027767
v 0.027767 0.042089 -0.027767
v 0.027767 -0.004486 0.027767
v 0.027767 -0.004486 -0.027767
v -0.027767 -0.004486 0.027767
v -0.027767 -0.004486 -0.027767
v 0.015804 -1.300000 -0.015803
v 0.015804 1.300000 -0.015804
v -0.015804 1.300000 -0.015804
v -0.015804 -1.300000 -0.015803
v -0.015804 1.300000 0.015803
v -0.015804 -1.300000 0.015804
v 0.015804 1.300000 0.015803
v 0.015804 -1.300000 0.015804
v 0.015804 1.300000 -0.015804
v 0.015804 -1.300000 -0.015803
v 0.027767 -0.004486 -0.027767
v 0.027767 0.042089 -0.027767
v -0.027767 0.042089 -0.027767
v -0.027767 -0.004486 -0.027767
v -0.027767 0.042089 0.027767
v -0.027767 -0.004486 0.027767
v 0.027767 0.042089 0.027767
v 0.027767 -0.004486 0.027767
v 0.027767 0.042089 -0.027767
v 0.027767 -0.004486 -0.027767
v 0.027767 -1.314254 -0.027767
v 0.027767 -1.267679 -0.027767
v -0.027767 -1.267679 -0.027767
v -0.027767 -1.314254 -0.027767
v -0.027767 -1.267679 0.027767
v -0.027767 -1.314253 0.027767
v 0.027767 -1.267679 0.027767
v 0.027767 -1.314253 0.027767
v 0.027767 -1.267679 -0.027767
v 0.027767 -1.314254 -0.027767
vt 0.902832 0.200806
vt 0.902832 0.169434
vt 0.882812 0.200806
vt 0.882812 0.169434
vt 0.902832 0.200806
vt 0.902832 0.169434
vt 0.882812 0.200806
vt 0.882812 0.169434
vt 0.902832 0.200806
vt 0.902832 0.169434
vt 0.882812 0.200806
vt 0.882812 0.169434
vt 0.902832 0.200806
vt 0.902832 0.169434
vt 0.882812 0.200806
vt 0.882812 0.169434
vt -0.000065 0.086548
vt 0.999512 0.086548
vt 0.999512 0.065125
vt 0.000013 0.065125
vt 0.999512 0.043671
vt 0.000092 0.043671
vt 1.000000 0.022247
vt 0.000170 0.022247
vt 1.000000 0.000822
vt 0.000248 0.000822
vt 0.496094 0.556152
vt 0.543945 0.556152
vt 0.543945 0.493408
vt 0.496094 0.493408
vt 0.543945 0.430664
vt 0.496094 0.430664
vt 0.543945 0.367920
vt 0.496094 0.367920
vt 0.543945 0.305176
vt 0.496094 0.305176
vt 0.496094 0.556152
vt 0.543945 0.556152
vt 0.543945 0.493408
vt 0.496094 0.493408
vt 0.543945 0.430664
vt 0.496094 0.430664
vt 0.543945 0.367920
vt 0.496094 0.367920
vt 0.543945 0.305176
vt 0.496094 0.305176
vt1 0.613281 0.800781
vt1 0.613281 0.632812
vt1 0.445312 0.800781
vt1 0.445312 0.632812
vt1 0.613281 0.988281
vt1 0.613281 0.820312
vt1 0.445312 0.988281
vt1 0.445312 0.820312
vt1 0.740723 0.303223
vt1 0.740723 0.007812
vt1 0.445312 0.303223
vt1 0.445312 0.007812
vt1 0.740723 0.615723
vt1 0.740723 0.320312
vt1 0.445312 0.615723
vt1 0.445312 0.320312
vt1 0.841797 0.992188
vt1 0.841797 0.008118
vt1 0.820801 0.008041
vt1 0.820801 0.991699
vt1 0.799805 0.007965
vt1 0.799805 0.991699
vt1 0.778809 0.007889
vt1 0.778809 0.991699
vt1 0.757812 0.007812
vt1 0.757812 0.991699
vt1 0.007812 0.992188
vt1 0.196655 0.992188
vt1 0.196655 0.745605
vt1 0.007820 0.745605
vt1 0.196777 0.500000
vt1 0.007835 0.500000
vt1 0.196777 0.253906
vt1 0.007851 0.253906
vt1 0.196777 0.007812
vt1 0.007866 0.007812
vt1 0.226562 0.992188
vt1 0.415283 0.992188
vt1 0.415283 0.745605
vt1 0.226562 0.745605
vt1 0.415527 0.500000
vt1 0.226562 0.500000
vt1 0.415527 0.253906
vt1 0.226562 0.253906
vt1 0.415527 0.007812
vt1 0.226562 0.007812
vn 0.000000 1.000000 0.000000
vn 0.000000 1.000000 0.000000
vn 0.000000 1.000000 0.000000
vn 0.000000 1.000000 0.000000
vn 0.000000 -1.000000 0.000000
vn 0.000000 -1.000000 0.000000
vn 0.000000 -1.000000 0.000000
vn 0.000000 -1.000000 0.000000
vn 0.000000 1.000000 0.000000
vn 0.000000 1.000000 0.000000
vn 0.000000 1.000000 0.000000
vn 0.000000 1.000000 0.000000
vn 0.000000 -1.000000 0.000000
vn 0.000000 -1.000000 0.000000
vn 0.000000 -1.000000 0.000000
vn 0.000000 -1.000000 0.000000
vn 0.708661 0.000000 -0.708661
vn 0.708661 0.000000 -0.708661
vn -0.708661 0.000000 -0.708661
vn -0.708661 0.000000 -0.708661
vn -0.708661 0.000000 0.708661
vn -0.708661 0.000000 0.708661
vn 0.708661 0.000000 0.708661
vn 0.708661 0.000000 0.708661
vn 0.708661 0.000000 -0.708661
vn 0.708661 0.000000 -0.708661
vn 0.708661 0.000000 -0.708661
vn 0.708661 0.000000 -0.708661
vn -0.708661 0.000000 -0.708661
vn -0.708661 0.000000 -0.708661
vn -0.708661 0.000000 0.708661
vn -0.708661 0.000000 0.708661
vn 0.708661 0.000000 0.708661
vn 0.708661 0.000000 0.708661
vn 0.708661 0.000000 -0.708661
vn 0.708661 0.000000 -0.708661
vn 0.708661 0.000000 -0.708661
vn 0.708661 0.000000 -0.708661
vn -0.708661 0.000000 -0.708661
vn -0.708661 0.000000 -0.708661
vn -0.708661 0.000000 0.708661
vn -0.708661 0.000000 0.708661
vn 0.708661 0.000000 0.708661
vn 0.708661 0.000000 0.708661
vn 0.708661 0.000000 -0.708661
vn 0.708661 0.000000 -0.708661
tan -1.000000 0.000000 0.000000 1.000000
tan -1.000000 0.000000 0.000000 1.000000
tan -1.000000 0.000000 0.000000 1.000000
tan -1.000000 0.000000 0.000000 1.000000
tan 1.000000 0.000000 0.000000 1.000000
tan 1.000000 0.000000 0.000000 1.000000
tan 1.000000 0.000000 0.000000 1.000000
tan 1.000000 0.000000 0.000000 1.000000
tan -1.000000 0.000000 0.000000 1.000000
tan -1.000000 0.000000 0.000000 1.000000
tan -1.000000 0.000000 0.000000 1.000000
tan -1.000000 0.000000 0.000000 1.000000
tan 1.000000 0.000000 0.000000 1.000000
tan 1.000000 0.000000 0.000000 1.000000
tan 1.000000 0.000000 0.000000 1.000000
tan 1.000000 0.000000 0.000000 1.000000
tan 0.000000 1.000000 0.000000 1.000000
tan 0.000000 1.000000 0.000000 1.000000
tan 0.000000 1.000000 0.000000 1.000000
tan 0.000000 1.000000 0.000000 1.000000
tan 0.000000 1.000000 0.000000 1.000000
tan 0.000000 1.000000 0.000000 1.000000
tan 0.000000 1.000000 0.000000 1.000000
tan 0.000000 1.000000 0.000000 1.000000
tan 0.000000 1.000000 0.000000 1.000000
tan 0.000000 1.000000 0.000000 1.000000
tan 0.000000 1.000000 0.000000 1.000000
tan 0.000000 1.000000 0.000000 1.000000
tan 0.000000 1.000000 0.000000 1.000000
tan 0.000000 1.000000 0.000000 1.000000
tan 0.000000 1.000000 0.000000 1.000000
tan 0.000000 1.000000 0.000000 1.000000
tan 0.000000 1.000000 0.000000 1.000000
tan 0.000000 1.000000 0.000000 1.000000
tan 0.000000 1.000000 0.000000 1.000000
tan 0.000000 1.000000 0.000000 1.000000
tan 0.000000 1.000000 0.000000 1.000000
tan 0.000000 1.000000 0.000000 1.000000
tan 0.000000 1.000000 0.000000 1.000000
tan 0.000000 1.000000 0.000000 1.000000
tan 0.000000 1.000000 0.000000 1.000000
tan 0.000000 1.000000 0.000000 1.000000
tan 0.000000 1.000000 0.000000 1.000000
tan 0.000000 1.000000 0.000000 1.000000
tan 0.000000 1.000000 0.000000 1.000000
tan 0.000000 1.000000 0.000000 1.000000
f 3/3/3 2/2/2 1/1/1
f 4/4/4 2/2/2 3/3/3
f 7/7/7 6/6/6 5/5/5
f 8/8/8 6/6/6 7/7/7
f 11/11/11 10/10/10 9/9/9
f 12/12/12 10/10/10 11/11/11
f 15/15/15 14/14/14 13/13/13
f 16/16/16 14/14/14 15/15/15
f 19/19/19 18/18/18 17/17/17
f 17/17/17 20/20/20 19/19/19
f 19/19/19 20/20/20 21/21/21
f 22/22/22 21/21/21 20/20/20
f 21/21/21 22/22/22 23/23/23
f 24/24/24 23/23/23 22/22/22
f 23/23/23 24/24/24 25/25/25
f 26/26/26 25/25/25 24/24/24
f 29/29/29 28/28/28 27/27/27
f 29/29/29 27/27/27 30/30/30
f 29/29/29 30/30/30 31/31/31
f 31/31/31 30/30/30 32/32/32
f 31/31/31 32/32/32 33/33/33
f 34/34/34 33/33/33 32/32/32
f 34/34/34 35/35/35 33/33/33
f 36/36/36 35/35/35 34/34/34
f 39/39/39 38/38/38 37/37/37
f 39/39/39 37/37/37 40/40/40
f 39/39/39 40/40/40 41/41/41
f 41/41/41 40/40/40 42/42/42
f 41/41/41 42/42/42 43/43/43
f 44/44/44 43/43/43 42/42/42
f 44/44/44 45/45/45 43/43/43
f 46/46/46 45/45/45 44/44/44
