mtllib roundCeiling_cap.mtl
g roundCeiling_cap
#Vertices 8
#Indices 18
#Section 0 Offset 0 NumIndices 18 MaterialIndex 0 ceiling_A_Mat
v 1.300000 1.300000 -0.000000
v 1.300000 -1.003567 0.429958
v 1.300000 -1.300000 0.000000
v 1.300000 1.003567 0.429958
v 1.300000 0.694420 0.689298
v 1.300000 -0.694420 0.689298
v 1.300000 -0.320318 0.803136
v 1.300000 0.320318 0.803136
vt 0.999512 0.309570
vt 0.114014 0.144287
vt 0.000056 0.309570
vt 0.885742 0.144287
vt 0.766602 0.044617
vt 0.232910 0.044617
vt 0.376709 0.000840
vt 0.623047 0.000840
vt1 0.991699 0.992188
vt1 0.119995 0.465088
vt1 0.007812 0.991699
vt1 0.879883 0.465088
vt1 0.762695 0.147339
vt1 0.237061 0.147339
vt1 0.378662 0.007812
vt1 0.621094 0.007812
vn -1.000000 0.000000 0.000000
vn -1.000000 0.000000 0.000000
vn -1.000000 0.000000 0.000000
vn -1.000000 0.000000 0.000000
vn -1.000000 0.000000 0.000000
vn -1.000000 0.000000 0.000000
vn -1.000000 0.000000 0.000000
vn -1.000000 0.000000 0.000000
tan 0.000000 1.000000 0.000000 1.000000
tan 0.000000 1.000000 0.000000 1.000000
tan 0.000000 1.000000 0.000000 1.000000
tan 0.000000 1.000000 0.000000 1.000000
tan 0.000000 1.000000 0.000000 1.000000
tan 0.000000 1.000000 0.000000 1.000000
tan 0.000000 1.000000 0.000000 1.000000
tan 0.000000 1.000000 0.000000 1.000000
f 3/3/3 2/2/2 1/1/1
f 4/4/4 1/1/1 2/2/2
f 5/5/5 4/4/4 2/2/2
f 6/6/6 5/5/5 2/2/2
f 6/6/6 7/7/7 5/5/5
f 8/8/8 5/5/5 7/7/7
