mtllib roundCeiling_cross.mtl
g roundCeiling_cross
#Vertices 60
#Indices 270
#Section 0 Offset 0 NumIndices 270 MaterialIndex 0 ceiling_A_Mat
v 1.003567 -1.300000 0.028390
v 1.300000 -1.300000 -0.401568
v 1.261515 -1.261515 -0.352861
v 1.300000 -1.003567 0.028390
v 0.973857 -1.261515 0.064368
v 0.694420 -1.300000 0.287730
v 1.261515 -0.973857 0.064368
v 1.300000 -0.694420 0.287730
v 0.673863 -1.261515 0.316031
v 0.320318 -1.300000 0.401568
v 1.261515 -0.673862 0.316031
v 1.300000 -0.320318 0.401568
v 0.310835 -1.261515 0.426499
v -0.320318 -1.300000 0.401568
v 1.261515 -0.310835 0.426498
v 1.261515 0.310835 0.426498
v 1.300000 0.320318 0.401568
v 0.320318 -0.335819 0.401568
v 1.261515 0.673863 0.316031
v 1.300000 0.694420 0.287730
v 0.320318 0.335819 0.401568
v 0.310835 1.261515 0.426498
v 1.261515 0.973857 0.064368
v 1.300000 1.003567 0.028390
v 1.261515 1.261515 -0.352862
v 1.300000 1.300000 -0.401568
v 1.003567 1.300000 0.028390
v 0.973857 1.261515 0.064368
v 0.694420 1.300000 0.287730
v 0.673863 1.261515 0.316030
v 0.320318 1.300000 0.401568
v -0.310835 1.261515 0.426498
v -0.320318 1.300000 0.401568
v -0.320318 0.335819 0.401568
v -0.673863 1.261515 0.316030
v -0.694420 1.300000 0.287730
v -1.261515 0.310835 0.426498
v -0.320318 -0.335819 0.401568
v -1.261515 -0.310835 0.426498
v -0.310835 -1.261515 0.426499
v -1.300000 0.320318 0.401568
v -0.673863 -1.261515 0.316031
v -0.694420 -1.300000 0.287730
v -1.261515 -0.673862 0.316031
v -1.300000 -0.320317 0.401568
v -1.300000 -0.694420 0.287730
v -1.261515 0.673863 0.316031
v -1.300000 0.694420 0.287730
v -1.261515 -0.973857 0.064368
v -1.300000 -1.003566 0.028390
v -0.973857 -1.261515 0.064368
v -1.003567 -1.300000 0.028390
v -1.261515 -1.261515 -0.352861
v -1.300000 -1.300000 -0.401568
v -1.261515 0.973858 0.064368
v -1.300000 1.003567 0.028390
v -0.973857 1.261515 0.064368
v -1.003567 1.300000 0.028390
v -1.261515 1.261515 -0.352862
v -1.300000 1.300000 -0.401568
vt -0.035889 0.916016
vt -0.087219 1.086914
vt -0.068237 1.067383
vt 0.082581 1.036133
vt -0.017380 0.903320
vt -0.000816 0.766602
vt 0.095398 1.018555
vt 0.231689 1.000977
vt 0.016403 0.757324
vt 0.009071 0.619629
vt 0.240845 0.983887
vt 0.379150 0.990234
vt 0.026108 0.615234
vt 0.009377 0.381348
vt 0.383545 0.973633
vt 0.613281 0.973633
vt 0.617676 0.990723
vt 0.372803 0.620117
vt 0.755859 0.983398
vt 0.765137 1.000000
vt 0.624023 0.620605
vt 0.972168 0.615723
vt 0.901855 1.016602
vt 0.914551 1.035156
vt 1.066406 1.067383
vt 1.084961 1.086914
vt 1.035156 0.916992
vt 1.016602 0.904297
vt 1.000000 0.767578
vt 0.982910 0.758301
vt 0.989258 0.619629
vt 0.972168 0.385254
vt 0.989258 0.380859
vt 0.624023 0.380859
vt 0.981934 0.242676
vt 0.999023 0.233521
vt 0.613770 0.026520
vt 0.373047 0.380615
vt 0.384033 0.028519
vt 0.026291 0.385498
vt 0.618164 0.009552
vt 0.015671 0.243164
vt -0.001600 0.234009
vt 0.242065 0.018967
vt 0.379639 0.011497
vt 0.232788 0.001781
vt 0.756836 0.015594
vt 0.765625 -0.001753
vt 0.096436 -0.014717
vt 0.083496 -0.033203
vt -0.018555 0.097961
vt -0.036896 0.085083
vt -0.067993 -0.065430
vt -0.086792 -0.084412
vt 0.902344 -0.018860
vt 0.915527 -0.037262
vt 1.015625 0.096558
vt 1.034180 0.083557
vt 1.066406 -0.068542
vt 1.084961 -0.087463
vt1 0.050873 0.848633
vt1 0.007812 0.991699
vt1 0.023743 0.976074
vt1 0.150269 0.949707
vt1 0.066406 0.837891
vt1 0.080322 0.723633
vt1 0.161011 0.934570
vt1 0.275391 0.920410
vt1 0.094727 0.715820
vt1 0.088623 0.600098
vt1 0.282959 0.905762
vt1 0.399170 0.911133
vt1 0.102905 0.596680
vt1 0.088867 0.400635
vt1 0.402832 0.896973
vt1 0.595703 0.896973
vt1 0.599121 0.911133
vt1 0.393799 0.600586
vt1 0.715332 0.905273
vt1 0.723145 0.919434
vt1 0.604492 0.601074
vt1 0.896484 0.596680
vt1 0.837891 0.933594
vt1 0.848633 0.948730
vt1 0.976074 0.976074
vt1 0.991699 0.992188
vt1 0.949707 0.849609
vt1 0.934570 0.838867
vt1 0.920410 0.724121
vt1 0.905762 0.716797
vt1 0.911133 0.600586
vt1 0.896973 0.403809
vt1 0.911133 0.400391
vt1 0.604492 0.400146
vt1 0.904785 0.284424
vt1 0.919434 0.276611
vt1 0.596191 0.103333
vt1 0.394043 0.400146
vt1 0.403320 0.104980
vt1 0.103027 0.404297
vt1 0.599609 0.089111
vt1 0.094116 0.284912
vt1 0.079651 0.277100
vt1 0.283936 0.096985
vt1 0.399658 0.090698
vt1 0.276367 0.082581
vt1 0.715820 0.094177
vt1 0.723633 0.079590
vt1 0.161865 0.068726
vt1 0.151001 0.053284
vt1 0.065430 0.163086
vt1 0.050018 0.152344
vt1 0.023941 0.026245
vt1 0.008156 0.010368
vt1 0.838379 0.065247
vt1 0.849121 0.049866
vt1 0.933105 0.161987
vt1 0.948730 0.151123
vt1 0.976074 0.023636
vt1 0.992188 0.007812
vn -0.787402 -0.031496 -0.614173
vn -0.472441 0.472441 -0.748031
vn -0.503937 0.503937 -0.700787
vn 0.031496 0.787402 -0.614173
vn -0.645669 0.377953 -0.661417
vn -0.527559 0.307087 -0.795276
vn -0.377953 0.645669 -0.661417
vn -0.307087 0.527559 -0.795276
vn -0.370079 0.385827 -0.842520
vn -0.149606 0.511811 -0.842520
vn -0.385827 0.370079 -0.842520
vn -0.511811 0.149606 -0.842520
vn -0.086614 0.291339 -0.952756
vn 0.149606 0.511811 -0.842520
vn -0.291339 0.086614 -0.952756
vn -0.291339 -0.086614 -0.952756
vn -0.511811 -0.149606 -0.842520
vn 0.015748 -0.015748 -1.000000
vn -0.385827 -0.370079 -0.842520
vn -0.307087 -0.527559 -0.795276
vn 0.015748 0.015748 -1.000000
vn -0.086614 -0.291339 -0.952756
vn -0.377953 -0.645669 -0.661417
vn 0.031496 -0.787402 -0.614173
vn -0.503937 -0.503937 -0.700787
vn -0.472441 -0.472441 -0.748031
vn -0.787402 0.031496 -0.614173
vn -0.645669 -0.377953 -0.661417
vn -0.527559 -0.307087 -0.795276
vn -0.370079 -0.385827 -0.842520
vn -0.149606 -0.511811 -0.842520
vn 0.086614 -0.291339 -0.952756
vn 0.149606 -0.511811 -0.842520
vn -0.015748 0.015748 -1.000000
vn 0.370079 -0.385827 -0.842520
vn 0.527559 -0.307087 -0.795276
vn 0.291339 -0.086614 -0.952756
vn -0.015748 -0.015748 -1.000000
vn 0.291339 0.086614 -0.952756
vn 0.086614 0.291339 -0.952756
vn 0.511811 -0.149606 -0.842520
vn 0.370079 0.385827 -0.842520
vn 0.527559 0.307087 -0.795276
vn 0.385827 0.370079 -0.842520
vn 0.511811 0.149606 -0.842520
vn 0.307087 0.527559 -0.795276
vn 0.385827 -0.370079 -0.842520
vn 0.307087 -0.527559 -0.795276
vn 0.377953 0.645669 -0.661417
vn -0.031496 0.787402 -0.614173
vn 0.645669 0.377953 -0.661417
vn 0.787402 -0.031496 -0.614173
vn 0.503937 0.503937 -0.700787
vn 0.472441 0.472441 -0.748031
vn 0.377953 -0.645669 -0.661417
vn -0.031496 -0.787402 -0.614173
vn 0.645669 -0.377953 -0.661417
vn 0.787402 0.031496 -0.614173
vn 0.503937 -0.503937 -0.700787
vn 0.472441 -0.472441 -0.748031
tan -0.149606 0.976378 0.141732 1.000000
tan 0.078740 0.866142 0.496063 1.000000
tan 0.102362 0.842520 0.535433 1.000000
tan 0.259843 0.590551 0.763780 1.000000
tan 0.039370 0.881890 0.464567 1.000000
tan -0.007874 0.929134 0.362205 1.000000
tan 0.212598 0.755906 0.614173 1.000000
tan 0.181102 0.850394 0.496063 1.000000
tan 0.047244 0.913386 0.401575 1.000000
tan 0.039370 0.858268 0.511811 1.000000
tan 0.110236 0.929134 0.354331 1.000000
tan 0.039370 0.984252 0.149606 1.000000
tan 0.023622 0.960630 0.291339 1.000000
tan -0.031496 0.858268 0.511811 1.000000
tan 0.023622 1.000000 0.086614 1.000000
tan -0.023622 1.000000 -0.086614 1.000000
tan -0.039370 0.984252 -0.157480 1.000000
tan 0.000000 1.000000 -0.015748 1.000000
tan -0.102362 0.929134 -0.354331 1.000000
tan -0.181102 0.850394 -0.496063 1.000000
tan 0.000000 1.000000 0.015748 1.000000
tan -0.023622 0.960630 -0.291339 1.000000
tan -0.212598 0.755906 -0.614173 1.000000
tan -0.259843 0.590551 -0.763780 1.000000
tan -0.118110 0.842520 -0.527559 1.000000
tan -0.094488 0.866142 -0.488189 1.000000
tan 0.149606 0.976378 -0.141732 1.000000
tan -0.055118 0.889764 -0.456693 1.000000
tan 0.015748 0.929134 -0.362205 1.000000
tan -0.055118 0.913386 -0.401575 1.000000
tan -0.031496 0.858268 -0.511811 1.000000
tan 0.023622 0.960630 -0.291339 1.000000
tan 0.039370 0.858268 -0.511811 1.000000
tan 0.000000 1.000000 0.015748 1.000000
tan 0.055118 0.913386 -0.393701 1.000000
tan -0.007874 0.929134 -0.362205 1.000000
tan 0.023622 1.000000 -0.086614 1.000000
tan 0.000000 1.000000 -0.015748 1.000000
tan -0.015748 0.992126 0.086614 1.000000
tan -0.023622 0.960630 0.291339 1.000000
tan 0.039370 0.984252 -0.149606 1.000000
tan -0.055118 0.913386 0.401575 1.000000
tan 0.007874 0.929134 0.362205 1.000000
tan -0.102362 0.929134 0.354331 1.000000
tan -0.031496 0.984252 0.157480 1.000000
tan -0.181102 0.850394 0.496063 1.000000
tan 0.110236 0.929134 -0.354331 1.000000
tan 0.181102 0.850394 -0.496063 1.000000
tan -0.212598 0.755906 0.614173 1.000000
tan -0.259843 0.590551 0.763780 1.000000
tan -0.047244 0.889764 0.464567 1.000000
tan 0.149606 0.976378 0.141732 1.000000
tan -0.118110 0.842520 0.527559 1.000000
tan -0.094488 0.866142 0.488189 1.000000
tan 0.212598 0.755906 -0.614173 1.000000
tan 0.259843 0.590551 -0.763780 1.000000
tan 0.047244 0.889764 -0.456693 1.000000
tan -0.149606 0.976378 -0.141732 1.000000
tan 0.102362 0.842520 -0.535433 1.000000
tan 0.078740 0.866142 -0.496063 1.000000
f 3/3/3 2/2/2 1/1/1
f 2/2/2 3/3/3 4/4/4
f 1/1/1 5/5/5 3/3/3
f 5/5/5 1/1/1 6/6/6
f 7/7/7 4/4/4 3/3/3
f 5/5/5 7/7/7 3/3/3
f 4/4/4 7/7/7 8/8/8
f 6/6/6 9/9/9 5/5/5
f 5/5/5 9/9/9 7/7/7
f 9/9/9 6/6/6 10/10/10
f 11/11/11 8/8/8 7/7/7
f 11/11/11 7/7/7 9/9/9
f 8/8/8 11/11/11 12/12/12
f 10/10/10 13/13/13 9/9/9
f 9/9/9 13/13/13 11/11/11
f 13/13/13 10/10/10 14/14/14
f 15/15/15 12/12/12 11/11/11
f 15/15/15 11/11/11 13/13/13
f 15/15/15 16/16/16 12/12/12
f 17/17/17 12/12/12 16/16/16
f 18/18/18 15/15/15 13/13/13
f 16/16/16 19/19/19 17/17/17
f 19/19/19 20/20/20 17/17/17
f 16/16/16 15/15/15 21/21/21
f 18/18/18 21/21/21 15/15/15
f 19/19/19 16/16/16 22/22/22
f 22/22/22 16/16/16 21/21/21
f 19/19/19 23/23/23 20/20/20
f 23/23/23 24/24/24 20/20/20
f 24/24/24 23/23/23 25/25/25
f 25/25/25 26/26/26 24/24/24
f 26/26/26 25/25/25 27/27/27
f 25/25/25 23/23/23 28/28/28
f 28/28/28 27/27/27 25/25/25
f 23/23/23 19/19/19 28/28/28
f 27/27/27 28/28/28 29/29/29
f 30/30/30 28/28/28 19/19/19
f 30/30/30 29/29/29 28/28/28
f 30/30/30 19/19/19 22/22/22
f 29/29/29 30/30/30 31/31/31
f 22/22/22 31/31/31 30/30/30
f 31/31/31 22/22/22 32/32/32
f 22/22/22 21/21/21 32/32/32
f 33/33/33 31/31/31 32/32/32
f 34/34/34 32/32/32 21/21/21
f 33/33/33 32/32/32 35/35/35
f 36/36/36 33/33/33 35/35/35
f 37/37/37 32/32/32 34/34/34
f 35/35/35 32/32/32 37/37/37
f 34/34/34 21/21/21 38/38/38
f 18/18/18 38/38/38 21/21/21
f 18/18/18 13/13/13 38/38/38
f 38/38/38 39/39/39 34/34/34
f 37/37/37 34/34/34 39/39/39
f 40/40/40 38/38/38 13/13/13
f 40/40/40 39/39/39 38/38/38
f 40/40/40 13/13/13 14/14/14
f 41/41/41 37/37/37 39/39/39
f 40/40/40 14/14/14 42/42/42
f 43/43/43 42/42/42 14/14/14
f 39/39/39 40/40/40 44/44/44
f 42/42/42 44/44/44 40/40/40
f 39/39/39 45/45/45 41/41/41
f 45/45/45 39/39/39 44/44/44
f 44/44/44 46/46/46 45/45/45
f 37/37/37 41/41/41 47/47/47
f 47/47/47 35/35/35 37/37/37
f 48/48/48 47/47/47 41/41/41
f 46/46/46 44/44/44 49/49/49
f 44/44/44 42/42/42 49/49/49
f 49/49/49 50/50/50 46/46/46
f 51/51/51 49/49/49 42/42/42
f 42/42/42 43/43/43 51/51/51
f 52/52/52 51/51/51 43/43/43
f 50/50/50 49/49/49 53/53/53
f 53/53/53 49/49/49 51/51/51
f 51/51/51 52/52/52 53/53/53
f 53/53/53 54/54/54 50/50/50
f 54/54/54 53/53/53 52/52/52
f 47/47/47 48/48/48 55/55/55
f 56/56/56 55/55/55 48/48/48
f 55/55/55 57/57/57 47/47/47
f 35/35/35 47/47/47 57/57/57
f 36/36/36 35/35/35 57/57/57
f 58/58/58 36/36/36 57/57/57
f 55/55/55 56/56/56 59/59/59
f 57/57/57 55/55/55 59/59/59
f 58/58/58 57/57/57 59/59/59
f 60/60/60 59/59/59 56/56/56
f 59/59/59 60/60/60 58/58/58
