mtllib rubberFloorPlane_B.mtl
g rubberFloorPlane_B
#Vertices 32
#Indices 75
#Section 0 Offset 0 NumIndices 69 MaterialIndex 0 floorRubbery_Mat
#Section 1 Offset 69 NumIndices 6 MaterialIndex 1 ceiling_A_Mat
v -1.279246 0.650000 0.064968
v -1.300000 0.325000 -0.000000
v -1.279246 0.650000 0.047715
v -1.279246 0.975000 0.064968
v -1.279246 0.975000 0.047715
v -1.300000 1.300000 -0.000000
v -1.279246 -0.650000 0.039821
v -1.300000 -0.975000 0.003199
v -1.279246 -0.650000 0.022568
v -1.264215 -0.325000 0.039821
v -1.264215 -0.325000 0.022568
v -1.279246 0.000000 0.028022
v -1.279246 0.000000 0.010769
v -1.300000 0.325000 -0.000000
v -0.599828 1.300000 -0.000000
v -1.279246 0.975000 0.064968
v -1.300000 1.300000 -0.000000
v -1.279246 0.650000 0.064968
v -0.599828 -0.000000 0.000000
v 1.300000 1.300000 -0.000000
v -1.300000 0.325000 -0.000000
v 1.300000 -1.300000 0.000000
v -1.279246 0.000000 0.028022
v -1.264215 -0.325000 0.039821
v -1.279246 -0.650000 0.039821
v -0.599828 -1.300000 0.000000
v -1.300000 -0.975000 0.003199
v -1.300000 -1.300000 0.000000
v -1.300000 1.300000 -0.000000
v -0.619469 -1.300000 0.000000
v -1.300000 -1.300000 0.000000
v -0.619469 1.300000 -0.000000
vt 0.250000 0.949707
vt 0.000036 0.999512
vt 0.250000 0.962891
vt 0.500000 0.949707
vt 0.500000 0.962891
vt 0.749512 0.999512
vt 0.249878 0.920898
vt 0.000036 0.949707
vt 0.249878 0.934082
vt 0.499756 0.920410
vt 0.499756 0.933594
vt 0.749512 0.928711
vt 0.749512 0.941895
vt 0.999512 0.949707
vt 0.730469 0.000100
vt 0.999512 0.125000
vt 0.999512 0.000100
vt 0.999512 0.250000
vt 0.730469 0.500000
vt 0.000100 0.000100
vt 0.999512 0.375000
vt 0.000100 0.999512
vt 0.999512 0.500000
vt 0.999512 0.624512
vt 0.999512 0.749512
vt 0.730469 0.999512
vt 0.999512 0.874512
vt 0.999512 0.999512
vt 0.999512 0.999512
vt 0.000100 0.737793
vt 0.000100 0.999512
vt 0.999512 0.737793
vt1 0.103882 0.804688
vt1 0.007812 0.823730
vt1 0.103882 0.809570
vt1 0.199951 0.804688
vt1 0.199951 0.809570
vt1 0.295898 0.823730
vt1 0.103882 0.851562
vt1 0.007812 0.862793
vt1 0.103882 0.856445
vt1 0.199951 0.851562
vt1 0.199951 0.856445
vt1 0.296143 0.854492
vt1 0.296143 0.859863
vt1 0.392334 0.862793
vt1 0.565918 0.007812
vt1 0.771484 0.103882
vt1 0.771484 0.007812
vt1 0.771484 0.199951
vt1 0.565918 0.392090
vt1 0.007812 0.007812
vt1 0.771484 0.295898
vt1 0.007812 0.776367
vt1 0.771484 0.392090
vt1 0.771484 0.488281
vt1 0.771484 0.583984
vt1 0.565918 0.776367
vt1 0.771484 0.680176
vt1 0.771484 0.776367
vt1 0.989746 0.007812
vt1 0.789062 0.775391
vt1 0.989746 0.775391
vt1 0.789062 0.007812
vn -1.000000 0.031496 0.000000
vn -1.000000 0.062992 0.000000
vn -1.000000 0.031496 0.000000
vn -1.000000 -0.031496 0.000000
vn -1.000000 -0.031496 0.000000
vn -1.000000 -0.062992 0.000000
vn -1.000000 0.055118 0.000000
vn -1.000000 0.062992 0.000000
vn -1.000000 0.055118 0.000000
vn -1.000000 0.000000 0.000000
vn -1.000000 0.000000 0.000000
vn -1.000000 -0.055118 0.000000
vn -1.000000 -0.055118 0.000000
vn -1.000000 -0.062992 0.000000
vn 0.031496 0.031496 1.000000
vn 0.062992 0.070866 0.992126
vn 0.000000 0.196850 0.984252
vn 0.047244 -0.055118 1.000000
vn 0.023622 0.000000 1.000000
vn 0.000000 0.000000 1.000000
vn -0.039370 -0.094488 0.992126
vn 0.000000 0.000000 1.000000
vn 0.039370 0.062992 1.000000
vn 0.055118 0.015748 1.000000
vn 0.031496 -0.031496 1.000000
vn 0.007874 -0.015748 1.000000
vn -0.031496 -0.070866 1.000000
vn 0.000000 -0.007874 1.000000
vn 0.000000 0.000000 1.000000
vn 0.000000 0.000000 1.000000
vn 0.000000 0.000000 1.000000
vn 0.000000 0.000000 1.000000
tan 0.031496 1.000000 0.000000 1.000000
tan 0.062992 1.000000 0.000000 1.000000
tan 0.031496 1.000000 0.000000 1.000000
tan -0.031496 1.000000 0.000000 1.000000
tan -0.031496 1.000000 0.000000 1.000000
tan -0.062992 1.000000 0.000000 1.000000
tan 0.055118 1.000000 0.000000 1.000000
tan 0.062992 1.000000 0.000000 1.000000
tan 0.055118 1.000000 0.000000 1.000000
tan 0.000000 1.000000 0.000000 1.000000
tan 0.000000 1.000000 0.000000 1.000000
tan -0.055118 1.000000 0.000000 1.000000
tan -0.055118 1.000000 0.000000 1.000000
tan -0.062992 1.000000 0.000000 1.000000
tan -1.000000 0.000000 0.031496 1.000000
tan -1.000000 0.000000 0.062992 1.000000
tan -1.000000 0.000000 0.000000 1.000000
tan -1.000000 0.000000 0.047244 1.000000
tan -1.000000 0.000000 0.023622 1.000000
tan -1.000000 0.000000 0.000000 1.000000
tan -1.000000 0.000000 -0.039370 1.000000
tan -1.000000 0.000000 0.000000 1.000000
tan -1.000000 0.000000 0.039370 1.000000
tan -1.000000 0.000000 0.055118 1.000000
tan -1.000000 0.000000 0.031496 1.000000
tan -1.000000 0.000000 0.007874 1.000000
tan -1.000000 0.000000 -0.031496 1.000000
tan -1.000000 0.000000 0.000000 1.000000
tan 0.000000 1.000000 0.000000 1.000000
tan 0.000000 1.000000 0.000000 1.000000
tan 0.000000 1.000000 0.000000 1.000000
tan 0.000000 1.000000 0.000000 1.000000
f 3/3/3 2/2/2 1/1/1
f 3/3/3 1/1/1 4/4/4
f 5/5/5 3/3/3 4/4/4
f 6/6/6 5/5/5 4/4/4
f 9/9/9 8/8/8 7/7/7
f 9/9/9 7/7/7 10/10/10
f 11/11/11 9/9/9 10/10/10
f 11/11/11 10/10/10 12/12/12
f 13/13/13 11/11/11 12/12/12
f 14/14/14 13/13/13 12/12/12
f 17/17/17 16/16/16 15/15/15
f 18/18/18 15/15/15 16/16/16
f 18/18/18 19/19/19 15/15/15
f 19/19/19 20/20/20 15/15/15
f 18/18/18 21/21/21 19/19/19
f 22/22/22 20/20/20 19/19/19
f 21/21/21 23/23/23 19/19/19
f 24/24/24 19/19/19 23/23/23
f 25/25/25 19/19/19 24/24/24
f 22/22/22 19/19/19 26/26/26
f 25/25/25 26/26/26 19/19/19
f 27/27/27 26/26/26 25/25/25
f 27/27/27 28/28/28 26/26/26
f 31/31/31 30/30/30 29/29/29
f 32/32/32 29/29/29 30/30/30
