mtllib showerc_urtain_B.mtl
g showerc_urtain_B
#Vertices 130
#Indices 444
#Section 0 Offset 0 NumIndices 228 MaterialIndex 0 showerCurtain_Mat
#Section 1 Offset 228 NumIndices 216 MaterialIndex 1 hospitalFurniture_Mat
v -1.094695 -0.643179 0.498434
v -1.164315 -0.677647 2.529401
v -1.147122 -0.733531 0.498434
v -1.111889 -0.659908 2.529401
v -1.062808 -0.683997 2.529401
v -1.045615 -0.765879 0.498434
v -0.975341 -0.640948 0.498434
v -0.992535 -0.659470 2.529401
v -0.916683 -0.679837 2.529401
v -0.899490 -0.744686 0.498434
v -0.848179 -0.642063 0.498434
v -0.865372 -0.659689 2.529401
v -0.810715 -0.683559 2.529401
v -0.793522 -0.763648 0.498434
v -0.748903 -0.635371 0.498434
v -0.766097 -0.658375 2.529401
v -0.722594 -0.682902 2.529401
v -0.705401 -0.760302 0.498434
v -0.647858 -0.659032 2.529401
v -0.630665 -0.638717 0.498434
v -0.579815 -0.678961 2.529401
v -0.562622 -0.740224 0.498434
v -0.503503 -0.637602 0.498434
v -0.520696 -0.658813 2.529401
v -0.486117 -0.682245 2.529401
v -0.468924 -0.756956 0.498434
v -0.412497 -0.658375 2.529401
v -0.395303 -0.635371 0.498434
v -0.368994 -0.680493 2.529401
v -0.351800 -0.748032 0.498434
v -0.296489 -0.659470 2.529401
v -0.279296 -0.640948 0.498434
v -0.244062 -0.678522 2.529401
v -0.226869 -0.737993 0.498434
v -0.176674 -0.647641 0.498434
v -0.193867 -0.660784 2.529401
v -0.157057 -0.669982 2.529401
v -0.139863 -0.694490 0.498434
v -0.103736 -0.662623 0.660376
v -0.085222 -0.669982 2.529401
v -1.094695 -0.643179 0.498434
v -1.147122 -0.733531 0.498434
v -1.164315 -0.677647 2.529401
v -1.111889 -0.659908 2.529401
v -1.062808 -0.683997 2.529401
v -1.045615 -0.765879 0.498434
v -0.975341 -0.640948 0.498434
v -0.992535 -0.659470 2.529401
v -0.916683 -0.679837 2.529401
v -0.899490 -0.744686 0.498434
v -0.848179 -0.642063 0.498434
v -0.865372 -0.659689 2.529401
v -0.810715 -0.683559 2.529401
v -0.793522 -0.763648 0.498434
v -0.748903 -0.635371 0.498434
v -0.766097 -0.658375 2.529401
v -0.722594 -0.682902 2.529401
v -0.705401 -0.760302 0.498434
v -0.647858 -0.659032 2.529401
v -0.630665 -0.638717 0.498434
v -0.579815 -0.678961 2.529401
v -0.562622 -0.740224 0.498434
v -0.503503 -0.637602 0.498434
v -0.520696 -0.658813 2.529401
v -0.486117 -0.682245 2.529401
v -0.468924 -0.756956 0.498434
v -0.412497 -0.658375 2.529401
v -0.395303 -0.635371 0.498434
v -0.368994 -0.680493 2.529401
v -0.351800 -0.748032 0.498434
v -0.296489 -0.659470 2.529401
v -0.279296 -0.640948 0.498434
v -0.244062 -0.678522 2.529401
v -0.226869 -0.737993 0.498434
v -0.176674 -0.647641 0.498434
v -0.193867 -0.660784 2.529401
v -0.157057 -0.669982 2.529401
v -0.139863 -0.694490 0.498434
v -0.103736 -0.662623 0.660376
v -0.085222 -0.669982 2.529401
v -1.177472 -0.669488 2.560626
v 0.237415 -0.669489 2.529401
v 0.237415 -0.669489 2.560627
v -1.177472 -0.669489 2.529400
v 0.235077 -0.693769 2.529401
v -1.230272 -0.643689 2.560626
v -1.195112 -0.693769 2.529400
v -1.230272 -0.643689 2.529400
v -1.195112 -0.693769 2.560626
v 0.235077 -0.693769 2.560627
v -1.177472 -0.669488 2.560626
v 0.237415 -0.669489 2.560627
v -1.230272 -0.643689 2.560626
v -1.248652 -0.667039 2.560626
v -1.248652 -0.667039 2.529400
v -1.288287 -0.625044 2.560627
v -1.269358 -0.603156 2.560627
v -1.288287 -0.625044 2.529401
v -1.314015 -0.570519 2.560627
v -1.294731 -0.550530 2.560627
v -1.269358 -0.603156 2.529401
v -1.269358 -0.603156 2.560627
v -1.294731 -0.550530 2.560627
v -1.314015 -0.570519 2.529401
v -1.294731 -0.550530 2.529401
v -1.294731 0.541720 2.560626
v -1.314015 0.561137 2.560626
v -1.294731 0.541720 2.560626
v -1.269358 0.593214 2.560626
v -1.294731 0.541720 2.529400
v -1.269358 0.593214 2.560626
v -1.314015 0.561137 2.529400
v -1.269358 0.593214 2.529400
v -1.288287 0.614489 2.560626
v -1.230272 0.632576 2.560626
v -1.288287 0.614489 2.529400
v -1.230272 0.632576 2.529401
v -1.230272 0.632576 2.560626
v -1.177472 0.657243 2.560626
v -1.248652 0.655271 2.529401
v -1.248652 0.655271 2.560626
v -1.195112 0.680828 2.560626
v -1.177472 0.657243 2.560626
v 0.235077 0.680828 2.560626
v 0.237415 0.657243 2.560626
v -1.195112 0.680828 2.529401
v 0.235077 0.680828 2.529400
v -1.177472 0.657243 2.529401
v 0.237415 0.657243 2.529400
v 0.237415 0.657243 2.560626
vt 0.049103 0.999512
vt 0.009796 0.000023
vt 0.009796 0.999512
vt 0.049103 0.000187
vt 0.095093 0.000379
vt 0.095093 0.999512
vt 0.148682 0.999512
vt 0.148682 0.000603
vt 0.199585 0.000816
vt 0.199585 0.999512
vt 0.241455 0.999512
vt 0.241455 0.000991
vt 0.288818 0.001189
vt 0.288818 0.999512
vt 0.334961 0.999512
vt 0.334961 0.001381
vt 0.379639 0.001569
vt 0.379639 0.999512
vt 0.434082 0.001796
vt 0.434082 0.999512
vt 0.481689 0.001995
vt 0.481689 0.999512
vt 0.525879 0.999512
vt 0.525879 0.002180
vt 0.566895 0.002352
vt 0.566895 0.999512
vt 0.621094 0.002577
vt 0.621094 0.999512
vt 0.662598 0.002750
vt 0.662598 0.999512
vt 0.712891 0.002962
vt 0.712891 0.999512
vt 0.753906 0.003132
vt 0.753906 0.999512
vt 0.792480 0.999512
vt 0.792480 0.003294
vt 0.816406 0.003393
vt 0.816406 0.999512
vt 0.875977 0.999512
vt 0.875977 0.003641
vt 0.049103 0.999512
vt 0.009796 0.999512
vt 0.009796 0.000023
vt 0.049103 0.000187
vt 0.095093 0.000379
vt 0.095093 0.999512
vt 0.148682 0.999512
vt 0.148682 0.000603
vt 0.199585 0.000816
vt 0.199585 0.999512
vt 0.241455 0.999512
vt 0.241455 0.000991
vt 0.288818 0.001189
vt 0.288818 0.999512
vt 0.334961 0.999512
vt 0.334961 0.001381
vt 0.379639 0.001569
vt 0.379639 0.999512
vt 0.434082 0.001796
vt 0.434082 0.999512
vt 0.481689 0.001995
vt 0.481689 0.999512
vt 0.525879 0.999512
vt 0.525879 0.002180
vt 0.566895 0.002352
vt 0.566895 0.999512
vt 0.621094 0.002577
vt 0.621094 0.999512
vt 0.662598 0.002750
vt 0.662598 0.999512
vt 0.712891 0.002962
vt 0.712891 0.999512
vt 0.753906 0.003132
vt 0.753906 0.999512
vt 0.792480 0.999512
vt 0.792480 0.003294
vt 0.816406 0.003393
vt 0.816406 0.999512
vt 0.875977 0.999512
vt 0.875977 0.003641
vt 0.999023 1.549805
vt 0.977051 3.126953
vt 0.999023 3.126953
vt 0.977051 1.549805
vt 0.957031 3.126953
vt 0.999023 1.464844
vt 0.957031 1.549805
vt 0.977051 1.464844
vt 0.935059 1.549805
vt 0.935059 3.126953
vt 0.915527 1.549805
vt 0.915527 3.126953
vt 0.915527 1.464844
vt 0.935059 1.464844
vt 0.957031 1.464844
vt 0.935059 1.382812
vt 0.915527 1.382812
vt 0.957031 1.382812
vt 0.935059 1.297852
vt 0.915527 1.297852
vt 0.977051 1.382812
vt 0.999023 1.382812
vt 0.999023 1.297852
vt 0.957031 1.297852
vt 0.977051 1.297852
vt 0.999023 -0.296875
vt 0.935059 -0.296875
vt 0.915527 -0.296875
vt 0.915527 -0.380615
vt 0.977051 -0.296875
vt 0.999023 -0.380615
vt 0.957031 -0.296875
vt 0.977051 -0.380615
vt 0.935059 -0.380615
vt 0.915527 -0.461182
vt 0.957031 -0.380615
vt 0.977051 -0.461182
vt 0.999023 -0.461182
vt 0.999023 -0.545410
vt 0.957031 -0.461182
vt 0.935059 -0.461182
vt 0.935059 -0.545410
vt 0.915527 -0.545410
vt 0.935059 -2.123047
vt 0.915527 -2.123047
vt 0.957031 -0.545410
vt 0.957031 -2.123047
vt 0.977051 -0.545410
vt 0.977051 -2.123047
vt 0.999023 -2.123047
vt1 0.029739 0.564453
vt1 0.007812 0.007812
vt1 0.007812 0.564453
vt1 0.029739 0.007904
vt1 0.055359 0.008011
vt1 0.055359 0.564453
vt1 0.085205 0.564453
vt1 0.085205 0.008133
vt1 0.113647 0.008247
vt1 0.113647 0.564453
vt1 0.136963 0.564453
vt1 0.136963 0.008347
vt1 0.163452 0.008461
vt1 0.163452 0.564453
vt1 0.189087 0.564453
vt1 0.189087 0.008568
vt1 0.214111 0.008667
vt1 0.214111 0.564453
vt1 0.244385 0.008797
vt1 0.244385 0.564453
vt1 0.270752 0.008911
vt1 0.270752 0.564453
vt1 0.295654 0.564453
vt1 0.295654 0.009010
vt1 0.318359 0.009109
vt1 0.318359 0.564453
vt1 0.348633 0.009232
vt1 0.348633 0.564453
vt1 0.371826 0.009331
vt1 0.371826 0.564453
vt1 0.399902 0.009445
vt1 0.399902 0.564453
vt1 0.422852 0.009544
vt1 0.422852 0.564453
vt1 0.444336 0.564453
vt1 0.444336 0.009628
vt1 0.457520 0.009689
vt1 0.457520 0.564453
vt1 0.490723 0.564453
vt1 0.490723 0.009827
vt1 0.529297 0.564453
vt1 0.507812 0.564453
vt1 0.507812 0.007812
vt1 0.529297 0.007904
vt1 0.555176 0.008011
vt1 0.555176 0.564453
vt1 0.584961 0.564453
vt1 0.584961 0.008133
vt1 0.613281 0.008247
vt1 0.613281 0.564453
vt1 0.636719 0.564453
vt1 0.636719 0.008347
vt1 0.663086 0.008461
vt1 0.663086 0.564453
vt1 0.688965 0.564453
vt1 0.688965 0.008568
vt1 0.713867 0.008667
vt1 0.713867 0.564453
vt1 0.744141 0.008797
vt1 0.744141 0.564453
vt1 0.770508 0.008911
vt1 0.770508 0.564453
vt1 0.795410 0.564453
vt1 0.795410 0.009010
vt1 0.818359 0.009109
vt1 0.818359 0.564453
vt1 0.848633 0.009232
vt1 0.848633 0.564453
vt1 0.871582 0.009331
vt1 0.871582 0.564453
vt1 0.899902 0.009445
vt1 0.899902 0.564453
vt1 0.922852 0.009544
vt1 0.922852 0.564453
vt1 0.944336 0.564453
vt1 0.944336 0.009628
vt1 0.957520 0.009689
vt1 0.957520 0.564453
vt1 0.990723 0.564453
vt1 0.990723 0.009827
vt1 0.696289 0.585938
vt1 0.992188 0.589844
vt1 0.992188 0.585938
vt1 0.696289 0.589844
vt1 0.992188 0.593262
vt1 0.680176 0.585938
vt1 0.696289 0.593262
vt1 0.680176 0.589844
vt1 0.696289 0.597656
vt1 0.992188 0.597656
vt1 0.696289 0.601074
vt1 0.992188 0.601074
vt1 0.680176 0.601074
vt1 0.680176 0.597656
vt1 0.680176 0.593262
vt1 0.665039 0.597656
vt1 0.665039 0.601074
vt1 0.665039 0.593262
vt1 0.648926 0.597656
vt1 0.648926 0.601074
vt1 0.665039 0.589844
vt1 0.665039 0.585938
vt1 0.648926 0.585938
vt1 0.648926 0.593262
vt1 0.648926 0.589844
vt1 0.350098 0.585938
vt1 0.350098 0.597656
vt1 0.350098 0.601074
vt1 0.334473 0.601074
vt1 0.350098 0.589844
vt1 0.334473 0.585938
vt1 0.350098 0.593262
vt1 0.334473 0.589844
vt1 0.334473 0.597656
vt1 0.319336 0.601074
vt1 0.334473 0.593262
vt1 0.319336 0.589844
vt1 0.319336 0.585938
vt1 0.303467 0.585938
vt1 0.319336 0.593262
vt1 0.319336 0.597656
vt1 0.303467 0.597656
vt1 0.303467 0.601074
vt1 0.007812 0.597656
vt1 0.007812 0.601074
vt1 0.303467 0.593262
vt1 0.007812 0.593262
vt1 0.303467 0.589844
vt1 0.007812 0.589844
vt1 0.007812 0.585938
vn 0.094488 0.992126 -0.007874
vn -0.716535 0.692913 -0.015748
vn -0.716535 0.692913 -0.015748
vn 0.086614 1.000000 -0.007874
vn 0.086614 0.992126 -0.015748
vn 0.078740 1.000000 -0.015748
vn -0.062992 1.000000 -0.015748
vn -0.070866 1.000000 -0.015748
vn -0.086614 0.992126 -0.015748
vn -0.094488 0.992126 -0.015748
vn 0.031496 1.000000 -0.015748
vn 0.023622 1.000000 -0.015748
vn -0.055118 1.000000 -0.015748
vn -0.062992 1.000000 -0.015748
vn 0.000000 1.000000 -0.015748
vn -0.007874 1.000000 -0.015748
vn 0.141732 0.992126 -0.015748
vn 0.133858 0.992126 -0.015748
vn -0.023622 1.000000 -0.015748
vn -0.015748 1.000000 -0.015748
vn -0.031496 1.000000 -0.007874
vn -0.039370 1.000000 -0.007874
vn 0.157480 0.984252 -0.007874
vn 0.149606 0.992126 -0.007874
vn 0.181102 0.984252 -0.007874
vn 0.165354 0.984252 -0.007874
vn 0.102362 0.992126 -0.007874
vn 0.110236 0.992126 -0.007874
vn 0.141732 0.992126 -0.007874
vn 0.133858 0.992126 -0.007874
vn 0.055118 1.000000 -0.007874
vn 0.055118 1.000000 -0.007874
vn 0.015748 1.000000 -0.007874
vn 0.007874 1.000000 -0.007874
vn -0.086614 1.000000 -0.007874
vn -0.086614 0.992126 -0.007874
vn 0.188976 0.984252 0.000000
vn 0.496063 0.866142 0.000000
vn -0.275591 0.960630 -0.007874
vn -0.275591 0.960630 -0.007874
vn -0.094488 -0.992126 0.007874
vn 0.716535 -0.692913 0.015748
vn 0.716535 -0.692913 0.015748
vn -0.086614 -1.000000 0.007874
vn -0.086614 -0.992126 0.015748
vn -0.078740 -1.000000 0.015748
vn 0.062992 -1.000000 0.015748
vn 0.070866 -1.000000 0.015748
vn 0.086614 -0.992126 0.015748
vn 0.094488 -0.992126 0.015748
vn -0.031496 -1.000000 0.015748
vn -0.023622 -1.000000 0.015748
vn 0.055118 -1.000000 0.015748
vn 0.062992 -1.000000 0.015748
vn 0.000000 -1.000000 0.015748
vn 0.007874 -1.000000 0.015748
vn -0.141732 -0.992126 0.015748
vn -0.133858 -0.992126 0.015748
vn 0.023622 -1.000000 0.015748
vn 0.015748 -1.000000 0.015748
vn 0.031496 -1.000000 0.007874
vn 0.039370 -1.000000 0.007874
vn -0.157480 -0.984252 0.007874
vn -0.149606 -0.992126 0.007874
vn -0.181102 -0.984252 0.007874
vn -0.165354 -0.984252 0.007874
vn -0.102362 -0.992126 0.007874
vn -0.110236 -0.992126 0.007874
vn -0.141732 -0.992126 0.007874
vn -0.133858 -0.992126 0.007874
vn -0.055118 -1.000000 0.007874
vn -0.055118 -1.000000 0.007874
vn -0.015748 -1.000000 0.007874
vn -0.007874 -1.000000 0.007874
vn 0.086614 -1.000000 0.007874
vn 0.086614 -0.992126 0.007874
vn -0.188976 -0.984252 0.000000
vn -0.496063 -0.866142 0.000000
vn 0.275591 -0.960630 0.007874
vn 0.275591 -0.960630 0.007874
vn 0.149606 0.629921 0.763780
vn 0.000000 0.732283 -0.685039
vn 0.000000 0.732283 0.685039
vn 0.149606 0.629921 -0.763780
vn 0.000000 -0.685039 -0.724409
vn 0.393701 0.535433 0.748031
vn -0.173228 -0.732283 -0.661417
vn 0.393701 0.535433 -0.748031
vn -0.173228 -0.732283 0.661417
vn 0.000000 -0.685039 0.724409
vn 0.149606 0.629921 0.763780
vn 0.000000 0.732283 0.685039
vn 0.393701 0.535433 0.748031
vn -0.440945 -0.598425 0.669291
vn -0.440945 -0.598425 -0.669291
vn -0.614173 -0.417323 0.677165
vn 0.551181 0.377953 0.748031
vn -0.614173 -0.417323 -0.677165
vn -0.732283 -0.165354 0.661417
vn 0.629921 0.141732 0.763780
vn 0.551181 0.377953 -0.748031
vn 0.551181 0.377953 0.748031
vn 0.629921 0.141732 0.763780
vn -0.732283 -0.165354 -0.661417
vn 0.629921 0.141732 -0.763780
vn 0.629921 -0.149606 0.763780
vn -0.732283 0.165354 0.661417
vn 0.629921 -0.149606 0.763780
vn 0.543307 -0.385827 0.748031
vn 0.629921 -0.149606 -0.763780
vn 0.543307 -0.385827 0.748031
vn -0.732283 0.165354 -0.661417
vn 0.543307 -0.385827 -0.748031
vn -0.606299 0.425197 0.669291
vn 0.377953 -0.543307 0.748031
vn -0.606299 0.425197 -0.669291
vn 0.377953 -0.543307 -0.748031
vn 0.377953 -0.543307 0.748031
vn 0.141732 -0.637795 0.755906
vn -0.433071 0.606299 -0.669291
vn -0.433071 0.606299 0.669291
vn -0.165354 0.732283 0.661417
vn 0.141732 -0.637795 0.755906
vn 0.000000 0.685039 0.724409
vn 0.000000 -0.732283 0.685039
vn -0.165354 0.732283 -0.661417
vn 0.000000 0.685039 -0.724409
vn 0.141732 -0.637795 -0.755906
vn 0.000000 -0.732283 -0.685039
vn 0.000000 -0.732283 0.685039
tan 0.992126 -0.094488 0.000000 1.000000
tan 0.692913 0.716535 0.000000 1.000000
tan 0.692913 0.716535 0.000000 1.000000
tan 1.000000 -0.086614 0.007874 1.000000
tan 0.992126 -0.086614 0.007874 1.000000
tan 1.000000 -0.078740 0.000000 1.000000
tan 1.000000 0.062992 0.000000 1.000000
tan 1.000000 0.070866 0.007874 1.000000
tan 0.992126 0.086614 0.007874 1.000000
tan 0.992126 0.094488 0.000000 1.000000
tan 1.000000 -0.031496 0.000000 1.000000
tan 1.000000 -0.023622 0.007874 1.000000
tan 1.000000 0.055118 0.007874 1.000000
tan 1.000000 0.062992 0.000000 1.000000
tan 1.000000 0.000000 0.000000 1.000000
tan 1.000000 0.007874 0.007874 1.000000
tan 0.992126 -0.141732 0.007874 1.000000
tan 0.992126 -0.133858 0.000000 1.000000
tan 1.000000 0.023622 0.007874 1.000000
tan 1.000000 0.015748 0.000000 1.000000
tan 1.000000 0.031496 0.007874 1.000000
tan 1.000000 0.039370 0.000000 1.000000
tan 0.984252 -0.157480 0.000000 1.000000
tan 0.992126 -0.149606 0.007874 1.000000
tan 0.984252 -0.181102 0.007874 1.000000
tan 0.984252 -0.165354 0.000000 1.000000
tan 0.992126 -0.102362 0.007874 1.000000
tan 0.992126 -0.110236 0.000000 1.000000
tan 0.992126 -0.141732 0.007874 1.000000
tan 0.992126 -0.133858 0.000000 1.000000
tan 1.000000 -0.055118 0.007874 1.000000
tan 1.000000 -0.055118 0.000000 1.000000
tan 1.000000 -0.015748 0.007874 1.000000
tan 1.000000 -0.007874 0.000000 1.000000
tan 1.000000 0.086614 0.000000 1.000000
tan 0.992126 0.086614 0.007874 1.000000
tan 0.984252 -0.188976 0.007874 1.000000
tan 0.866142 -0.496063 0.070866 1.000000
tan 0.259843 0.078740 0.960630 1.000000
tan 0.960630 0.275591 0.007874 1.000000
tan 0.992126 -0.094488 0.000000 1.000000
tan 0.692913 0.716535 0.000000 1.000000
tan 0.692913 0.716535 0.000000 1.000000
tan 1.000000 -0.086614 0.007874 1.000000
tan 0.992126 -0.086614 0.007874 1.000000
tan 1.000000 -0.078740 0.000000 1.000000
tan 1.000000 0.062992 0.000000 1.000000
tan 1.000000 0.070866 0.007874 1.000000
tan 0.992126 0.086614 0.007874 1.000000
tan 0.992126 0.094488 0.000000 1.000000
tan 1.000000 -0.031496 0.000000 1.000000
tan 1.000000 -0.023622 0.007874 1.000000
tan 1.000000 0.055118 0.007874 1.000000
tan 1.000000 0.062992 0.000000 1.000000
tan 1.000000 0.000000 0.000000 1.000000
tan 1.000000 0.007874 0.007874 1.000000
tan 0.992126 -0.141732 0.007874 1.000000
tan 0.992126 -0.133858 0.000000 1.000000
tan 1.000000 0.023622 0.007874 1.000000
tan 1.000000 0.015748 0.000000 1.000000
tan 1.000000 0.031496 0.007874 1.000000
tan 1.000000 0.039370 0.000000 1.000000
tan 0.984252 -0.157480 0.000000 1.000000
tan 0.992126 -0.149606 0.007874 1.000000
tan 0.984252 -0.181102 0.007874 1.000000
tan 0.984252 -0.165354 0.000000 1.000000
tan 0.992126 -0.102362 0.007874 1.000000
tan 0.992126 -0.110236 0.000000 1.000000
tan 0.992126 -0.141732 0.007874 1.000000
tan 0.992126 -0.133858 0.000000 1.000000
tan 1.000000 -0.055118 0.007874 1.000000
tan 1.000000 -0.055118 0.000000 1.000000
tan 1.000000 -0.015748 0.007874 1.000000
tan 1.000000 -0.007874 0.000000 1.000000
tan 1.000000 0.086614 0.000000 1.000000
tan 0.992126 0.086614 0.007874 1.000000
tan 0.984252 -0.188976 0.007874 1.000000
tan 0.866142 -0.496063 0.070866 1.000000
tan 0.259843 0.078740 0.960630 1.000000
tan 0.960630 0.275591 0.007874 1.000000
tan -0.173228 -0.740157 0.645669 1.000000
tan 0.062992 0.685039 0.724409 1.000000
tan 0.000000 -0.685039 0.732283 1.000000
tan 0.433071 0.653543 0.622047 1.000000
tan 0.070866 0.724409 -0.685039 1.000000
tan -0.440945 -0.606299 0.661417 1.000000
tan 0.393701 0.559055 -0.724409 1.000000
tan 0.464567 0.590551 0.661417 1.000000
tan -0.393701 -0.559055 -0.724409 1.000000
tan -0.070866 -0.724409 -0.685039 1.000000
tan -0.622047 -0.543307 0.566929 1.000000
tan -0.141732 -0.677165 0.724409 1.000000
tan -0.480315 -0.574803 0.661417 1.000000
tan -0.417323 -0.527559 -0.740157 1.000000
tan 0.417323 0.527559 -0.740157 1.000000
tan -0.448819 -0.519685 -0.724409 1.000000
tan -0.401575 -0.661417 0.629921 1.000000
tan 0.448819 0.519685 -0.724409 1.000000
tan -0.527559 -0.472441 -0.700787 1.000000
tan -0.417323 -0.763780 0.496063 1.000000
tan 0.503937 0.559055 0.661417 1.000000
tan -0.614173 -0.425197 0.669291 1.000000
tan -0.740157 -0.173228 0.645669 1.000000
tan 0.527559 0.472441 -0.700787 1.000000
tan 0.598425 0.527559 0.598425 1.000000
tan -0.740157 0.173228 0.645669 1.000000
tan -0.527559 0.464567 -0.708661 1.000000
tan -0.425197 0.755906 0.503937 1.000000
tan -0.417323 0.645669 0.637795 1.000000
tan 0.606299 -0.527559 0.598425 1.000000
tan -0.606299 0.433071 0.669291 1.000000
tan 0.527559 -0.464567 -0.708661 1.000000
tan 0.511811 -0.551181 0.661417 1.000000
tan -0.448819 0.511811 -0.732283 1.000000
tan -0.503937 0.559055 0.661417 1.000000
tan 0.448819 -0.511811 -0.732283 1.000000
tan 0.472441 -0.582677 0.661417 1.000000
tan -0.433071 0.614173 0.661417 1.000000
tan -0.165354 0.740157 0.653543 1.000000
tan 0.425197 -0.519685 -0.740157 1.000000
tan -0.425197 0.519685 -0.740157 1.000000
tan -0.401575 0.559055 -0.724409 1.000000
tan -0.637795 0.527559 0.559055 1.000000
tan -0.070866 0.724409 -0.685039 1.000000
tan -0.141732 0.677165 0.724409 1.000000
tan 0.401575 -0.559055 -0.724409 1.000000
tan 0.070866 -0.724409 -0.685039 1.000000
tan 0.440945 -0.645669 0.622047 1.000000
tan 0.070866 -0.685039 0.724409 1.000000
tan 0.000000 0.685039 0.732283 1.000000
f 3/3/3 2/2/2 1/1/1
f 4/4/4 1/1/1 2/2/2
f 4/4/4 5/5/5 1/1/1
f 6/6/6 1/1/1 5/5/5
f 6/6/6 5/5/5 7/7/7
f 8/8/8 7/7/7 5/5/5
f 8/8/8 9/9/9 7/7/7
f 10/10/10 7/7/7 9/9/9
f 10/10/10 9/9/9 11/11/11
f 12/12/12 11/11/11 9/9/9
f 12/12/12 13/13/13 11/11/11
f 14/14/14 11/11/11 13/13/13
f 14/14/14 13/13/13 15/15/15
f 16/16/16 15/15/15 13/13/13
f 16/16/16 17/17/17 15/15/15
f 18/18/18 15/15/15 17/17/17
f 17/17/17 19/19/19 18/18/18
f 20/20/20 18/18/18 19/19/19
f 19/19/19 21/21/21 20/20/20
f 22/22/22 20/20/20 21/21/21
f 22/22/22 21/21/21 23/23/23
f 24/24/24 23/23/23 21/21/21
f 24/24/24 25/25/25 23/23/23
f 26/26/26 23/23/23 25/25/25
f 25/25/25 27/27/27 26/26/26
f 28/28/28 26/26/26 27/27/27
f 27/27/27 29/29/29 28/28/28
f 30/30/30 28/28/28 29/29/29
f 29/29/29 31/31/31 30/30/30
f 32/32/32 30/30/30 31/31/31
f 31/31/31 33/33/33 32/32/32
f 34/34/34 32/32/32 33/33/33
f 34/34/34 33/33/33 35/35/35
f 36/36/36 35/35/35 33/33/33
f 36/36/36 37/37/37 35/35/35
f 38/38/38 35/35/35 37/37/37
f 39/39/39 38/38/38 37/37/37
f 40/40/40 39/39/39 37/37/37
f 43/43/43 42/42/42 41/41/41
f 43/43/43 41/41/41 44/44/44
f 44/44/44 41/41/41 45/45/45
f 46/46/46 45/45/45 41/41/41
f 45/45/45 46/46/46 47/47/47
f 45/45/45 47/47/47 48/48/48
f 48/48/48 47/47/47 49/49/49
f 50/50/50 49/49/49 47/47/47
f 49/49/49 50/50/50 51/51/51
f 49/49/49 51/51/51 52/52/52
f 52/52/52 51/51/51 53/53/53
f 54/54/54 53/53/53 51/51/51
f 53/53/53 54/54/54 55/55/55
f 53/53/53 55/55/55 56/56/56
f 56/56/56 55/55/55 57/57/57
f 58/58/58 57/57/57 55/55/55
f 57/57/57 58/58/58 59/59/59
f 60/60/60 59/59/59 58/58/58
f 59/59/59 60/60/60 61/61/61
f 62/62/62 61/61/61 60/60/60
f 61/61/61 62/62/62 63/63/63
f 61/61/61 63/63/63 64/64/64
f 64/64/64 63/63/63 65/65/65
f 66/66/66 65/65/65 63/63/63
f 65/65/65 66/66/66 67/67/67
f 68/68/68 67/67/67 66/66/66
f 67/67/67 68/68/68 69/69/69
f 70/70/70 69/69/69 68/68/68
f 69/69/69 70/70/70 71/71/71
f 72/72/72 71/71/71 70/70/70
f 71/71/71 72/72/72 73/73/73
f 74/74/74 73/73/73 72/72/72
f 73/73/73 74/74/74 75/75/75
f 73/73/73 75/75/75 76/76/76
f 76/76/76 75/75/75 77/77/77
f 78/78/78 77/77/77 75/75/75
f 79/79/79 77/77/77 78/78/78
f 80/80/80 77/77/77 79/79/79
f 83/83/83 82/82/82 81/81/81
f 84/84/84 81/81/81 82/82/82
f 82/82/82 85/85/85 84/84/84
f 81/81/81 84/84/84 86/86/86
f 87/87/87 84/84/84 85/85/85
f 88/88/88 86/86/86 84/84/84
f 84/84/84 87/87/87 88/88/88
f 87/87/87 85/85/85 89/89/89
f 85/85/85 90/90/90 89/89/89
f 92/92/92 91/91/91 90/90/90
f 89/89/89 90/90/90 91/91/91
f 91/91/91 93/93/93 89/89/89
f 87/87/87 89/89/89 94/94/94
f 94/94/94 89/89/89 93/93/93
f 95/95/95 88/88/88 87/87/87
f 95/95/95 87/87/87 94/94/94
f 94/94/94 93/93/93 96/96/96
f 97/97/97 96/96/96 93/93/93
f 95/95/95 94/94/94 98/98/98
f 96/96/96 98/98/98 94/94/94
f 95/95/95 98/98/98 88/88/88
f 96/96/96 97/97/97 99/99/99
f 98/98/98 96/96/96 99/99/99
f 100/100/100 99/99/99 97/97/97
f 101/101/101 88/88/88 98/98/98
f 88/88/88 101/101/101 86/86/86
f 102/102/102 86/86/86 101/101/101
f 102/102/102 101/101/101 103/103/103
f 104/104/104 98/98/98 99/99/99
f 98/98/98 104/104/104 101/101/101
f 105/105/105 103/103/103 101/101/101
f 104/104/104 105/105/105 101/101/101
f 103/103/103 105/105/105 106/106/106
f 104/104/104 99/99/99 107/107/107
f 99/99/99 100/100/100 107/107/107
f 108/108/108 107/107/107 100/100/100
f 107/107/107 108/108/108 109/109/109
f 110/110/110 106/106/106 105/105/105
f 106/106/106 110/110/110 111/111/111
f 105/105/105 104/104/104 112/112/112
f 110/110/110 105/105/105 112/112/112
f 112/112/112 104/104/104 107/107/107
f 113/113/113 111/111/111 110/110/110
f 110/110/110 112/112/112 113/113/113
f 114/114/114 107/107/107 109/109/109
f 112/112/112 107/107/107 114/114/114
f 109/109/109 115/115/115 114/114/114
f 116/116/116 113/113/113 112/112/112
f 116/116/116 112/112/112 114/114/114
f 113/113/113 117/117/117 111/111/111
f 113/113/113 116/116/116 117/117/117
f 118/118/118 111/111/111 117/117/117
f 118/118/118 117/117/117 119/119/119
f 116/116/116 114/114/114 120/120/120
f 120/120/120 117/117/117 116/116/116
f 121/121/121 114/114/114 115/115/115
f 121/121/121 120/120/120 114/114/114
f 121/121/121 115/115/115 122/122/122
f 120/120/120 121/121/121 122/122/122
f 123/123/123 122/122/122 115/115/115
f 125/125/125 124/124/124 123/123/123
f 123/123/123 124/124/124 122/122/122
f 126/126/126 120/120/120 122/122/122
f 126/126/126 122/122/122 124/124/124
f 120/120/120 126/126/126 117/117/117
f 127/127/127 126/126/126 124/124/124
f 128/128/128 117/117/117 126/126/126
f 126/126/126 127/127/127 128/128/128
f 128/128/128 119/119/119 117/117/117
f 127/127/127 129/129/129 128/128/128
f 119/119/119 128/128/128 130/130/130
f 129/129/129 130/130/130 128/128/128
