mtllib WallBlt.mtl
g WallBlt
#Vertices 62
#Indices 96
#Section 0 Offset 0 NumIndices 6 MaterialIndex 0 plasterWall_A_Mat
#Section 1 Offset 6 NumIndices 12 MaterialIndex 1 tile_A_2_Mat
#Section 2 Offset 18 NumIndices 78 MaterialIndex 2 edgesAndBars_mat
v 0.000000 1.300001 3.900000
v 0.000000 -1.299999 3.900000
v 0.000000 -1.299999 2.600000
v 0.000000 1.300000 2.600000
v -0.000000 -1.300000 0.000000
v -0.000000 1.300000 -0.000000
v 0.000000 -1.300000 1.300000
v -0.000000 1.300000 1.300000
v 0.000000 -1.299999 2.600000
v 0.000000 1.300000 2.600000
v -0.000000 1.300000 2.652000
v -0.030459 -1.299999 2.631200
v -0.030459 1.300000 2.631200
v 0.000000 -1.299999 2.652000
v -0.030459 1.300000 2.568800
v -0.030459 -1.299999 2.568800
v 0.000000 -1.299999 2.548000
v -0.000000 1.300000 2.548000
v 0.000000 -1.299999 2.652000
v 0.000000 -1.299999 2.548000
v -0.030459 -1.299999 2.631200
v -0.030459 -1.299999 2.568800
v -0.030459 -1.299999 2.568800
v -0.030459 1.300000 2.631200
v -0.030459 -1.299999 2.631200
v -0.030459 1.300000 2.568800
v -0.030459 1.300000 2.568800
v -0.000000 1.300000 2.652000
v -0.030459 1.300000 2.631200
v -0.000000 1.300000 2.548000
v -0.000000 1.300000 0.218150
v -0.030459 -1.300000 0.218150
v -0.030459 1.300000 0.218150
v 0.000000 -1.300000 0.218150
v 0.000000 -1.300000 0.218150
v 0.000000 -1.300000 0.000000
v -0.030459 -1.300000 0.218150
v -0.030459 -1.300000 0.000000
v -0.030459 1.300000 0.218150
v -0.030459 -1.300000 0.218150
v -0.030459 -1.300000 0.000000
v -0.030459 1.300000 -0.000000
v -0.030459 1.300000 0.218150
v -0.030459 1.300000 -0.000000
v -0.000000 1.300000 0.218150
v -0.000000 1.300000 -0.000000
v -0.030459 1.300001 3.803950
v -0.030459 -1.299999 3.803950
v 0.000000 -1.299999 3.803950
v -0.000000 1.300001 3.803950
v 0.000000 -1.299999 3.803950
v -0.030459 -1.299999 3.900000
v 0.000000 -1.299999 3.900000
v -0.030459 -1.299999 3.803950
v -0.030459 1.300001 3.900000
v -0.030459 -1.299999 3.900000
v -0.030459 -1.299999 3.803950
v -0.030459 1.300001 3.803950
v -0.030459 1.300001 3.803950
v -0.000000 1.300001 3.900000
v -0.030459 1.300001 3.900000
v -0.000000 1.300001 3.803950
vt 0.999512 0.000100
vt 0.000100 0.000100
vt 0.000100 0.499756
vt 0.999512 0.500000
vt 0.000100 0.999512
vt 0.999512 0.999512
vt 0.000100 0.500000
vt 0.999512 0.500000
vt 0.000100 0.000100
vt 0.999512 0.000100
vt 0.269531 -0.676270
vt 0.283447 1.639648
vt 0.283447 -0.676270
vt 0.269531 1.639648
vt 0.269531 -0.676270
vt 0.269531 1.639648
vt 0.283691 1.639648
vt 0.283691 -0.676270
vt 0.292969 0.375732
vt 0.292969 0.588867
vt 0.266357 0.418213
vt 0.266357 0.545898
vt 0.357910 1.640625
vt 0.270264 -0.674805
vt 0.270264 1.640625
vt 0.357910 -0.674805
vt 0.265869 0.545898
vt 0.292969 0.375732
vt 0.265869 0.418213
vt 0.292969 0.588867
vt 0.137817 -0.673828
vt 0.161255 1.641602
vt 0.161255 -0.673828
vt 0.137817 1.641602
vt 0.085022 0.338867
vt 0.085022 0.598145
vt 0.100647 0.338867
vt 0.100647 0.598145
vt 0.165771 1.639648
vt 0.165771 -0.675293
vt 0.001411 -0.675293
vt 0.001411 1.639648
vt 0.069397 0.338867
vt 0.069397 0.598145
vt 0.085022 0.338867
vt 0.085022 0.598145
vt 0.146362 -0.671387
vt 0.146362 1.644531
vt 0.164307 1.644531
vt 0.164307 -0.671387
vt 0.064087 0.770508
vt 0.084839 0.619141
vt 0.064087 0.619141
vt 0.084839 0.770508
vt 0.063293 -0.675293
vt 0.063293 1.639648
vt 0.161621 1.639648
vt 0.161621 -0.675293
vt 0.084839 0.770508
vt 0.105530 0.619141
vt 0.084839 0.619141
vt 0.105530 0.770508
vt1 0.663574 0.007812
vt1 0.007812 0.007812
vt1 0.007812 0.335693
vt1 0.663574 0.335693
vt1 0.007812 0.992188
vt1 0.664062 0.992188
vt1 0.007812 0.664062
vt1 0.664062 0.664062
vt1 0.007812 0.335693
vt1 0.664062 0.335938
vt1 0.773438 0.007812
vt1 0.777832 0.912598
vt1 0.777832 0.007812
vt1 0.773438 0.912598
vt1 0.898438 0.007812
vt1 0.898438 0.912598
vt1 0.911133 0.912598
vt1 0.911133 0.007812
vt1 0.814941 0.929688
vt1 0.814941 0.965820
vt1 0.804688 0.936523
vt1 0.804688 0.958496
vt1 0.807617 0.912598
vt1 0.777832 0.007812
vt1 0.777832 0.912598
vt1 0.807617 0.007812
vt1 0.773438 0.958496
vt1 0.783691 0.929688
vt1 0.773438 0.936523
vt1 0.783691 0.965820
vt1 0.929688 0.007812
vt1 0.939941 0.912598
vt1 0.939941 0.007812
vt1 0.929688 0.912598
vt1 0.679688 0.971191
vt1 0.755371 0.971191
vt1 0.679688 0.960449
vt1 0.755371 0.960938
vt1 0.755371 0.912598
vt1 0.755371 0.007812
vt1 0.679688 0.007812
vt1 0.679688 0.912598
vt1 0.679688 0.939941
vt1 0.755371 0.939941
vt1 0.679688 0.929688
vt1 0.755371 0.929688
vt1 0.960938 0.007812
vt1 0.960938 0.912598
vt1 0.971191 0.912598
vt1 0.971191 0.007812
vt1 0.835938 0.962891
vt1 0.846191 0.929688
vt1 0.835938 0.929688
vt1 0.846191 0.962891
vt1 0.835938 0.007812
vt1 0.835938 0.912598
vt1 0.869141 0.912598
vt1 0.869141 0.007812
vt1 0.867188 0.962891
vt1 0.877441 0.929688
vt1 0.867188 0.929688
vt1 0.877441 0.962891
vn -1.000000 0.000000 0.000000
vn -1.000000 0.000000 0.000000
vn -1.000000 0.000000 0.000000
vn -1.000000 0.000000 0.000000
vn -1.000000 0.000000 0.000000
vn -1.000000 0.000000 0.000000
vn -1.000000 0.000000 0.000000
vn -1.000000 0.000000 0.000000
vn -1.000000 0.000000 0.000000
vn -1.000000 0.000000 0.000000
vn -0.566929 0.000000 0.826772
vn -0.881890 0.000000 0.464567
vn -0.881890 0.000000 0.464567
vn -0.566929 0.000000 0.826772
vn -0.881890 0.000000 -0.464567
vn -0.881890 0.000000 -0.464567
vn -0.566929 0.000000 -0.826772
vn -0.566929 0.000000 -0.826772
vn 0.000000 -1.000000 0.000000
vn 0.000000 -1.000000 0.000000
vn 0.000000 -1.000000 0.000000
vn 0.000000 -1.000000 0.000000
vn -0.881890 0.000000 -0.464567
vn -0.881890 0.000000 0.464567
vn -0.881890 0.000000 0.464567
vn -0.881890 0.000000 -0.464567
vn 0.000000 1.000000 0.000000
vn 0.000000 1.000000 0.000000
vn 0.000000 1.000000 0.000000
vn 0.000000 1.000000 0.000000
vn 0.000000 0.000000 1.000000
vn -0.708661 0.000000 0.708661
vn -0.708661 0.000000 0.708661
vn 0.000000 0.000000 1.000000
vn 0.000000 -1.000000 0.000000
vn 0.000000 -1.000000 0.000000
vn 0.000000 -1.000000 0.000000
vn 0.000000 -1.000000 0.000000
vn -0.708661 0.000000 0.708661
vn -0.708661 0.000000 0.708661
vn -1.000000 0.000000 0.000000
vn -1.000000 0.000000 0.000000
vn 0.000000 1.000000 0.000000
vn 0.000000 1.000000 0.000000
vn 0.000000 1.000000 0.000000
vn 0.000000 1.000000 0.000000
vn -0.708661 0.000000 -0.708661
vn -0.708661 0.000000 -0.708661
vn 0.000000 0.000000 -1.000000
vn 0.000000 0.000000 -1.000000
vn 0.000000 -1.000000 0.000000
vn 0.000000 -1.000000 0.000000
vn 0.000000 -1.000000 0.000000
vn 0.000000 -1.000000 0.000000
vn -1.000000 0.000000 0.000000
vn -1.000000 0.000000 0.000000
vn -0.708661 0.000000 -0.708661
vn -0.708661 0.000000 -0.708661
vn 0.000000 1.000000 0.000000
vn 0.000000 1.000000 0.000000
vn 0.000000 1.000000 0.000000
vn 0.000000 1.000000 0.000000
tan 0.000000 1.000000 0.000000 1.000000
tan 0.000000 1.000000 0.000000 1.000000
tan 0.000000 1.000000 0.000000 1.000000
tan 0.000000 1.000000 0.000000 1.000000
tan 0.000000 1.000000 0.000000 1.000000
tan 0.000000 1.000000 0.000000 1.000000
tan 0.000000 1.000000 0.000000 1.000000
tan 0.000000 1.000000 0.000000 1.000000
tan 0.000000 1.000000 0.000000 1.000000
tan 0.000000 1.000000 0.000000 1.000000
tan -0.826772 0.000000 -0.566929 1.000000
tan -0.464567 0.000000 -0.881890 1.000000
tan -0.464567 0.000000 -0.881890 1.000000
tan -0.826772 0.000000 -0.566929 1.000000
tan 0.464567 0.000000 -0.881890 1.000000
tan 0.464567 0.000000 -0.881890 1.000000
tan 0.826772 0.000000 -0.566929 1.000000
tan 0.826772 0.000000 -0.566929 1.000000
tan 1.000000 0.000000 0.000000 1.000000
tan 1.000000 0.000000 0.000000 1.000000
tan 1.000000 0.000000 0.000000 1.000000
tan 1.000000 0.000000 0.000000 1.000000
tan 0.464567 0.000000 -0.881890 1.000000
tan -0.464567 0.000000 -0.881890 1.000000
tan -0.464567 0.000000 -0.881890 1.000000
tan 0.464567 0.000000 -0.881890 1.000000
tan 1.000000 0.000000 0.000000 1.000000
tan 1.000000 0.000000 0.000000 1.000000
tan 1.000000 0.000000 0.000000 1.000000
tan 1.000000 0.000000 0.000000 1.000000
tan -1.000000 0.000000 0.000000 1.000000
tan -0.708661 0.000000 -0.708661 1.000000
tan -0.708661 0.000000 -0.708661 1.000000
tan -1.000000 0.000000 0.000000 1.000000
tan -1.000000 0.000000 0.000000 1.000000
tan -1.000000 0.000000 0.000000 1.000000
tan -1.000000 0.000000 0.000000 1.000000
tan -1.000000 0.000000 0.000000 1.000000
tan 0.708661 0.000000 0.708661 1.000000
tan 0.708661 0.000000 0.708661 1.000000
tan 0.000000 0.000000 1.000000 1.000000
tan 0.000000 0.000000 1.000000 1.000000
tan 1.000000 0.000000 0.000000 1.000000
tan 1.000000 0.000000 0.000000 1.000000
tan 1.000000 0.000000 0.000000 1.000000
tan 1.000000 0.000000 0.000000 1.000000
tan 0.708661 0.000000 -0.708661 1.000000
tan 0.708661 0.000000 -0.708661 1.000000
tan 1.000000 0.000000 0.000000 1.000000
tan 1.000000 0.000000 0.000000 1.000000
tan -1.000000 0.000000 0.000000 1.000000
tan -1.000000 0.000000 0.000000 1.000000
tan -1.000000 0.000000 0.000000 1.000000
tan -1.000000 0.000000 0.000000 1.000000
tan 0.000000 0.000000 -1.000000 1.000000
tan 0.000000 0.000000 -1.000000 1.000000
tan 0.708661 0.000000 -0.708661 1.000000
tan 0.708661 0.000000 -0.708661 1.000000
tan 1.000000 0.000000 0.000000 1.000000
tan 1.000000 0.000000 0.000000 1.000000
tan 1.000000 0.000000 0.000000 1.000000
tan 1.000000 0.000000 0.000000 1.000000
f 3/3/3 2/2/2 1/1/1
f 4/4/4 3/3/3 1/1/1
f 7/7/7 6/6/6 5/5/5
f 6/6/6 7/7/7 8/8/8
f 9/9/9 8/8/8 7/7/7
f 8/8/8 9/9/9 10/10/10
f 13/13/13 12/12/12 11/11/11
f 14/14/14 11/11/11 12/12/12
f 17/17/17 16/16/16 15/15/15
f 15/15/15 18/18/18 17/17/17
f 21/21/21 20/20/20 19/19/19
f 22/22/22 20/20/20 21/21/21
f 25/25/25 24/24/24 23/23/23
f 26/26/26 23/23/23 24/24/24
f 29/29/29 28/28/28 27/27/27
f 27/27/27 28/28/28 30/30/30
f 33/33/33 32/32/32 31/31/31
f 34/34/34 31/31/31 32/32/32
f 37/37/37 36/36/36 35/35/35
f 38/38/38 36/36/36 37/37/37
f 41/41/41 40/40/40 39/39/39
f 42/42/42 41/41/41 39/39/39
f 45/45/45 44/44/44 43/43/43
f 46/46/46 44/44/44 45/45/45
f 49/49/49 48/48/48 47/47/47
f 47/47/47 50/50/50 49/49/49
f 53/53/53 52/52/52 51/51/51
f 54/54/54 51/51/51 52/52/52
f 57/57/57 56/56/56 55/55/55
f 58/58/58 57/57/57 55/55/55
f 61/61/61 60/60/60 59/59/59
f 62/62/62 59/59/59 60/60/60
