mtllib wallB_window_A.mtl
g wallB_window_A
#Vertices 142
#Indices 318
#Section 0 Offset 0 NumIndices 96 MaterialIndex 0 plasterWall_A_Mat
#Section 1 Offset 96 NumIndices 12 MaterialIndex 1 tile_A_Mat
#Section 2 Offset 108 NumIndices 210 MaterialIndex 2 edgesAndBars_mat
v 0.130000 -1.095275 2.804725
v 0.130000 -1.095275 3.695276
v 0.025765 -1.095275 3.695276
v 0.025765 -1.095275 2.804725
v 0.007546 -1.102821 3.702822
v 0.007546 -1.102821 2.797178
v 0.130000 1.095276 2.804724
v 0.025765 1.095276 2.804724
v 0.007546 -1.102821 2.797178
v 0.007546 1.102822 2.797178
v 0.130000 1.095276 3.695275
v 0.025765 1.095276 3.695275
v 0.130000 -1.095275 3.695276
v 0.007546 1.102822 2.797178
v 0.007546 1.102823 3.702821
v 0.025765 -1.095275 3.695276
v 0.007546 -1.102821 3.702822
v 0.007546 1.102823 3.702821
v 0.000000 -1.299999 3.900000
v 0.000000 -1.299999 2.600000
v 0.000000 -1.121040 2.778960
v 0.000000 1.300000 2.600000
v 0.000000 -1.121040 3.721040
v 0.000000 1.300001 3.900000
v 0.000000 1.121041 3.721040
v 0.000000 1.121041 2.778960
v 0.007546 1.102823 3.702821
v 0.007546 1.102822 2.797178
v 0.007546 -1.102821 3.702822
v 0.007546 -1.102821 2.797178
v -0.000000 -1.300000 0.000000
v -0.000000 1.300000 -0.000000
v 0.000000 -1.300000 1.300000
v -0.000000 1.300000 1.300000
v 0.000000 -1.299999 2.600000
v 0.000000 1.300000 2.600000
v 0.113183 0.031381 3.678888
v 0.113183 0.031381 2.805555
v 0.113183 -0.031380 3.678888
v 0.113183 -0.031380 2.805555
v 0.130000 1.095276 2.804724
v 0.130000 -1.095275 2.804725
v 0.130000 -1.061685 2.832734
v 0.130000 1.061686 2.832734
v 0.130000 -1.061685 3.667266
v 0.130000 -1.095275 2.804725
v 0.130000 -1.095275 3.695276
v 0.130000 -1.061685 2.832734
v -0.000000 1.300000 2.652000
v -0.030459 -1.299999 2.631200
v -0.030459 1.300000 2.631200
v 0.000000 -1.299999 2.652000
v -0.030459 1.300000 2.568800
v -0.030459 -1.299999 2.568800
v 0.000000 -1.299999 2.548000
v -0.000000 1.300000 2.548000
v 0.000000 -1.299999 2.652000
v 0.000000 -1.299999 2.548000
v -0.030459 -1.299999 2.631200
v -0.030459 -1.299999 2.568800
v -0.030459 -1.299999 2.568800
v -0.030459 1.300000 2.631200
v -0.030459 -1.299999 2.631200
v -0.030459 1.300000 2.568800
v -0.030459 1.300000 2.568800
v -0.000000 1.300000 2.652000
v -0.030459 1.300000 2.631200
v -0.000000 1.300000 2.548000
v -0.000000 1.300000 0.218150
v -0.030459 -1.300000 0.218150
v -0.030459 1.300000 0.218150
v 0.000000 -1.300000 0.218150
v 0.000000 -1.300000 0.218150
v 0.000000 -1.300000 0.000000
v -0.030459 -1.300000 0.218150
v -0.030459 -1.300000 0.000000
v -0.030459 1.300000 0.218150
v -0.030459 -1.300000 0.218150
v -0.030459 -1.300000 0.000000
v -0.030459 1.300000 -0.000000
v -0.030459 1.300000 0.218150
v -0.030459 1.300000 -0.000000
v -0.000000 1.300000 0.218150
v -0.000000 1.300000 -0.000000
v -0.030459 1.300001 3.803950
v -0.030459 -1.299999 3.803950
v 0.000000 -1.299999 3.803950
v -0.000000 1.300001 3.803950
v 0.000000 -1.299999 3.803950
v -0.030459 -1.299999 3.900000
v 0.000000 -1.299999 3.900000
v -0.030459 -1.299999 3.803950
v -0.030459 1.300001 3.900000
v -0.030459 -1.299999 3.900000
v -0.030459 -1.299999 3.803950
v -0.030459 1.300001 3.803950
v -0.030459 1.300001 3.803950
v -0.000000 1.300001 3.900000
v -0.030459 1.300001 3.900000
v -0.000000 1.300001 3.803950
v 0.130000 -1.061685 2.832734
v 0.130000 -1.061685 3.667266
v 0.055900 -1.061685 3.667266
v 0.055900 -1.061685 2.832734
v 0.039000 -1.079965 3.682510
v 0.130000 1.061686 2.832734
v 0.130000 -1.061685 2.832734
v 0.055900 1.061686 2.832734
v 0.039000 -1.079965 2.817491
v 0.039000 -1.095275 3.695276
v 0.039000 -1.095275 2.804725
v 0.039000 1.095276 2.804724
v 0.039000 1.079966 2.817490
v 0.130000 1.061686 3.667266
v 0.130000 1.061686 2.832734
v 0.055900 1.061686 3.667266
v 0.130000 -1.061685 3.667266
v 0.130000 1.061686 3.667266
v 0.055900 -1.061685 3.667266
v 0.039000 -1.079965 3.682510
v 0.039000 1.079967 3.682509
v 0.039000 1.095276 2.804724
v 0.039000 1.095276 3.695275
v 0.039000 -1.095275 3.695276
v 0.130000 1.095276 3.695275
v 0.130000 1.095276 2.804724
v 0.130000 1.061686 2.832734
v 0.130000 1.061686 3.667266
v 0.130000 -1.095275 3.695276
v 0.130000 -1.061685 3.667266
v 0.113183 -0.031380 3.678888
v 0.113183 -0.031380 2.805555
v 0.069782 -0.031380 3.678888
v 0.069782 -0.031380 2.805555
v 0.055817 -0.017415 2.805555
v 0.055817 -0.017415 3.678888
v 0.055817 0.017417 3.678888
v 0.055817 0.017416 2.805555
v 0.069782 0.031381 2.805555
v 0.069782 0.031381 3.678888
v 0.113183 0.031381 3.678888
v 0.113183 0.031381 2.805555
vt -0.176392 0.000907
vt -0.504883 0.000907
vt -0.504883 0.037964
vt -0.176392 0.037964
vt -0.507812 0.044464
vt -0.173584 0.044464
vt 0.602539 0.000907
vt 0.602539 0.037964
vt -0.179077 0.044464
vt 0.605469 0.044464
vt 0.931152 0.000907
vt 0.931152 0.037964
vt 1.675781 0.000907
vt 0.599609 0.044464
vt 0.934082 0.044464
vt 1.675781 0.037964
vt 1.677734 0.044464
vt 0.928711 0.044464
vt 0.000100 0.000100
vt 0.000100 0.499756
vt 0.068909 0.431152
vt 0.999512 0.500000
vt 0.068909 0.068909
vt 0.999512 0.000100
vt 0.930664 0.068909
vt 0.930664 0.431152
vt 0.923828 0.075867
vt 0.923828 0.424072
vt 0.075867 0.075867
vt 0.075867 0.424072
vt 0.000100 0.999512
vt 0.999512 0.999512
vt 0.000100 0.500000
vt 0.999512 0.500000
vt 0.000100 0.000100
vt 0.999512 0.000100
vt 0.899414 0.237183
vt 0.899414 0.782227
vt 0.864258 0.237183
vt 0.864258 0.782227
vt 0.782227 0.047424
vt 0.782227 0.979980
vt 0.811523 0.979980
vt 0.811523 0.047424
vt 0.811523 1.352539
vt 0.782227 0.979980
vt 0.782227 1.352539
vt 0.811523 0.979980
vt 0.269531 -0.676270
vt 0.283447 1.639648
vt 0.283447 -0.676270
vt 0.269531 1.639648
vt 0.269531 -0.676270
vt 0.269531 1.639648
vt 0.283691 1.639648
vt 0.283691 -0.676270
vt 0.292969 0.375732
vt 0.292969 0.588867
vt 0.266357 0.418213
vt 0.266357 0.545898
vt 0.357910 1.640625
vt 0.270264 -0.674805
vt 0.270264 1.640625
vt 0.357910 -0.674805
vt 0.265869 0.545898
vt 0.292969 0.375732
vt 0.265869 0.418213
vt 0.292969 0.588867
vt 0.137817 -0.673828
vt 0.161255 1.641602
vt 0.161255 -0.673828
vt 0.137817 1.641602
vt 0.085022 0.338867
vt 0.085022 0.598145
vt 0.100647 0.338867
vt 0.100647 0.598145
vt 0.165771 1.639648
vt 0.165771 -0.675293
vt 0.001411 -0.675293
vt 0.001411 1.639648
vt 0.069397 0.338867
vt 0.069397 0.598145
vt 0.085022 0.338867
vt 0.085022 0.598145
vt 0.146362 -0.671387
vt 0.146362 1.644531
vt 0.164307 1.644531
vt 0.164307 -0.671387
vt 0.064087 0.770508
vt 0.084839 0.619141
vt 0.064087 0.619141
vt 0.084839 0.770508
vt 0.063293 -0.675293
vt 0.063293 1.639648
vt 0.161621 1.639648
vt 0.161621 -0.675293
vt 0.084839 0.770508
vt 0.105530 0.619141
vt 0.084839 0.619141
vt 0.105530 0.770508
vt 0.811523 0.979980
vt 0.811523 1.352539
vt 0.861816 1.352539
vt 0.861816 0.979980
vt 0.889160 1.352539
vt 0.811523 0.047424
vt 0.811523 0.979980
vt 0.861816 0.047424
vt 0.889160 0.979980
vt 0.902344 1.352539
vt 0.902344 0.979980
vt 0.902344 0.047424
vt 0.889160 0.047424
vt 0.811523 -0.325439
vt 0.811523 0.047424
vt 0.861816 -0.325439
vt 0.811523 -1.257812
vt 0.811523 -0.325439
vt 0.861816 -1.257812
vt 0.889160 -1.257812
vt 0.889160 -0.325439
vt 0.902344 0.047424
vt 0.902344 -0.325439
vt 0.902344 -1.257812
vt 0.782227 -0.325439
vt 0.782227 0.047424
vt 0.811523 0.047424
vt 0.811523 -0.325439
vt 0.782227 -1.257812
vt 0.811523 -1.257812
vt 0.788574 0.237183
vt 0.788574 0.782227
vt 0.815918 0.237183
vt 0.815918 0.782227
vt 0.833008 0.782227
vt 0.833008 0.237183
vt 0.854980 0.237183
vt 0.854980 0.782227
vt 0.872559 0.782227
vt 0.872559 0.237183
vt 0.899414 0.237183
vt 0.899414 0.782227
vt1 0.960938 0.842773
vt1 0.960938 0.990723
vt1 0.977539 0.990723
vt1 0.977539 0.842773
vt1 0.980469 0.992188
vt1 0.980469 0.841309
vt1 0.960938 0.491943
vt1 0.977539 0.491943
vt1 0.980469 0.843750
vt1 0.980469 0.490723
vt1 0.960938 0.343994
vt1 0.977539 0.343994
vt1 0.960938 0.008965
vt1 0.980469 0.493164
vt1 0.980469 0.342773
vt1 0.977539 0.008965
vt1 0.980469 0.007812
vt1 0.980469 0.345215
vt1 0.554688 0.534668
vt1 0.818848 0.534668
vt1 0.782227 0.498535
vt1 0.818848 0.007812
vt1 0.590820 0.498535
vt1 0.554688 0.007812
vt1 0.590820 0.044067
vt1 0.782227 0.044067
vt1 0.594727 0.047760
vt1 0.778809 0.047760
vt1 0.594727 0.494873
vt1 0.778809 0.494873
vt1 0.007812 0.533691
vt1 0.533691 0.533691
vt1 0.007812 0.270752
vt1 0.533691 0.270752
vt1 0.007812 0.007812
vt1 0.533691 0.007812
vt1 0.083008 0.648438
vt1 0.083008 0.824707
vt1 0.070312 0.648438
vt1 0.070312 0.824707
vt1 0.835938 0.500000
vt1 0.835938 0.851562
vt1 0.846680 0.851562
vt1 0.846680 0.500000
vt1 0.846680 0.992188
vt1 0.835938 0.851562
vt1 0.835938 0.992188
vt1 0.846680 0.851562
vt1 0.007812 0.574707
vt1 0.533691 0.571777
vt1 0.007812 0.571777
vt1 0.533691 0.574707
vt1 0.007812 0.858887
vt1 0.533691 0.858887
vt1 0.533691 0.851562
vt1 0.007812 0.851562
vt1 0.107666 0.648438
vt1 0.107666 0.669434
vt1 0.101562 0.652344
vt1 0.101562 0.665039
vt1 0.533691 0.554688
vt1 0.007812 0.571777
vt1 0.533691 0.571777
vt1 0.007812 0.554688
vt1 0.070312 0.961914
vt1 0.076416 0.945312
vt1 0.070312 0.949219
vt1 0.076416 0.966309
vt1 0.007812 0.888672
vt1 0.533691 0.882812
vt1 0.007812 0.882812
vt1 0.533691 0.888672
vt1 0.039062 0.945312
vt1 0.039062 0.989258
vt1 0.045197 0.945312
vt1 0.045197 0.989258
vt1 0.942383 0.533691
vt1 0.942383 0.007812
vt1 0.898438 0.007812
vt1 0.898438 0.533691
vt1 0.007812 0.945312
vt1 0.007812 0.989258
vt1 0.013969 0.945312
vt1 0.013969 0.989258
vt1 0.007812 0.919922
vt1 0.533691 0.919922
vt1 0.533691 0.914062
vt1 0.007812 0.914062
vt1 0.101562 0.714355
vt1 0.107666 0.695312
vt1 0.101562 0.695312
vt1 0.107666 0.714355
vt1 0.007812 0.620605
vt1 0.533691 0.620605
vt1 0.533691 0.601562
vt1 0.007812 0.601562
vt1 0.101562 0.761230
vt1 0.107666 0.742188
vt1 0.101562 0.742188
vt1 0.107666 0.761230
vt1 0.846680 0.851562
vt1 0.846680 0.992188
vt1 0.865723 0.991699
vt1 0.865723 0.851562
vt1 0.875977 0.991699
vt1 0.846680 0.500000
vt1 0.846680 0.851562
vt1 0.865723 0.500000
vt1 0.875977 0.851562
vt1 0.880859 0.991699
vt1 0.880859 0.851562
vt1 0.880859 0.500000
vt1 0.875977 0.500000
vt1 0.846680 0.359375
vt1 0.846680 0.500000
vt1 0.865723 0.359375
vt1 0.846680 0.007812
vt1 0.846680 0.359375
vt1 0.865723 0.007812
vt1 0.875977 0.007812
vt1 0.875977 0.359375
vt1 0.880859 0.500000
vt1 0.880859 0.359375
vt1 0.880859 0.007812
vt1 0.835938 0.359375
vt1 0.835938 0.500000
vt1 0.846680 0.500000
vt1 0.846680 0.359375
vt1 0.835938 0.007812
vt1 0.846680 0.007812
vt1 0.007812 0.648438
vt1 0.007812 0.824707
vt1 0.015778 0.648438
vt1 0.015778 0.824707
vt1 0.020905 0.824707
vt1 0.020905 0.648438
vt1 0.027298 0.648438
vt1 0.027298 0.824707
vt1 0.032410 0.824707
vt1 0.032440 0.648438
vt1 0.040405 0.648438
vt1 0.040405 0.824707
vn 0.000000 0.708661 0.708661
vn 0.000000 0.708661 -0.708661
vn -0.299213 0.677165 -0.677165
vn -0.299213 0.677165 0.677165
vn -0.881890 0.338583 -0.338583
vn -0.881890 0.338583 0.338583
vn 0.000000 -0.708661 0.708661
vn -0.299213 -0.677165 0.677165
vn -0.881890 0.338583 0.338583
vn -0.881890 -0.338583 0.338583
vn 0.000000 -0.708661 -0.708661
vn -0.299213 -0.677165 -0.677165
vn 0.000000 0.708661 -0.708661
vn -0.881890 -0.338583 0.338583
vn -0.881890 -0.338583 -0.338583
vn -0.299213 0.677165 -0.677165
vn -0.881890 0.338583 -0.338583
vn -0.881890 -0.338583 -0.338583
vn -1.000000 0.000000 0.000000
vn -1.000000 0.000000 0.000000
vn -1.000000 0.047244 0.047244
vn -1.000000 0.000000 0.000000
vn -1.000000 0.047244 -0.047244
vn -1.000000 0.000000 0.000000
vn -1.000000 -0.047244 -0.047244
vn -1.000000 -0.047244 0.047244
vn -0.881890 -0.338583 -0.338583
vn -0.881890 -0.338583 0.338583
vn -0.881890 0.338583 -0.338583
vn -0.881890 0.338583 0.338583
vn -1.000000 0.000000 0.000000
vn -1.000000 0.000000 0.000000
vn -1.000000 0.000000 0.000000
vn -1.000000 0.000000 0.000000
vn -1.000000 0.000000 0.000000
vn -1.000000 0.000000 0.000000
vn 1.000000 0.000000 0.000000
vn 1.000000 0.000000 0.000000
vn 1.000000 0.000000 0.000000
vn 1.000000 0.000000 0.000000
vn 1.000000 0.000000 0.000000
vn 1.000000 0.000000 0.000000
vn 1.000000 0.000000 0.000000
vn 1.000000 0.000000 0.000000
vn 1.000000 0.000000 0.000000
vn 1.000000 0.000000 0.000000
vn 1.000000 0.000000 0.000000
vn 1.000000 0.000000 0.000000
vn -0.566929 0.000000 0.826772
vn -0.881890 0.000000 0.464567
vn -0.881890 0.000000 0.464567
vn -0.566929 0.000000 0.826772
vn -0.881890 0.000000 -0.464567
vn -0.881890 0.000000 -0.464567
vn -0.566929 0.000000 -0.826772
vn -0.566929 0.000000 -0.826772
vn 0.000000 -1.000000 0.000000
vn 0.000000 -1.000000 0.000000
vn 0.000000 -1.000000 0.000000
vn 0.000000 -1.000000 0.000000
vn -0.881890 0.000000 -0.464567
vn -0.881890 0.000000 0.464567
vn -0.881890 0.000000 0.464567
vn -0.881890 0.000000 -0.464567
vn 0.000000 1.000000 0.000000
vn 0.000000 1.000000 0.000000
vn 0.000000 1.000000 0.000000
vn 0.000000 1.000000 0.000000
vn 0.000000 0.000000 1.000000
vn -0.708661 0.000000 0.708661
vn -0.708661 0.000000 0.708661
vn 0.000000 0.000000 1.000000
vn 0.000000 -1.000000 0.000000
vn 0.000000 -1.000000 0.000000
vn 0.000000 -1.000000 0.000000
vn 0.000000 -1.000000 0.000000
vn -0.708661 0.000000 0.708661
vn -0.708661 0.000000 0.708661
vn -1.000000 0.000000 0.000000
vn -1.000000 0.000000 0.000000
vn 0.000000 1.000000 0.000000
vn 0.000000 1.000000 0.000000
vn 0.000000 1.000000 0.000000
vn 0.000000 1.000000 0.000000
vn -0.708661 0.000000 -0.708661
vn -0.708661 0.000000 -0.708661
vn 0.000000 0.000000 -1.000000
vn 0.000000 0.000000 -1.000000
vn 0.000000 -1.000000 0.000000
vn 0.000000 -1.000000 0.000000
vn 0.000000 -1.000000 0.000000
vn 0.000000 -1.000000 0.000000
vn -1.000000 0.000000 0.000000
vn -1.000000 0.000000 0.000000
vn -0.708661 0.000000 -0.708661
vn -0.708661 0.000000 -0.708661
vn 0.000000 1.000000 0.000000
vn 0.000000 1.000000 0.000000
vn 0.000000 1.000000 0.000000
vn 0.000000 1.000000 0.000000
vn 0.000000 1.000000 0.000000
vn 0.000000 1.000000 0.000000
vn -0.566929 0.559055 -0.598425
vn -0.566929 0.559055 0.598425
vn -0.984252 0.110236 -0.110236
vn 0.000000 0.000000 1.000000
vn 0.000000 0.000000 1.000000
vn -0.566929 -0.559055 0.598425
vn -0.984252 0.110236 0.110236
vn -1.000000 0.000000 0.000000
vn -1.000000 0.000000 0.000000
vn -1.000000 0.000000 0.000000
vn -0.984252 -0.110236 0.110236
vn 0.000000 -1.000000 0.000000
vn 0.000000 -1.000000 0.000000
vn -0.566929 -0.559055 -0.598425
vn 0.000000 0.000000 -1.000000
vn 0.000000 0.000000 -1.000000
vn -0.566929 0.559055 -0.598425
vn -0.984252 0.110236 -0.110236
vn -0.984252 -0.110236 -0.110236
vn -1.000000 0.000000 0.000000
vn -1.000000 0.000000 0.000000
vn -1.000000 0.000000 0.000000
vn 1.000000 0.000000 0.000000
vn 1.000000 0.000000 0.000000
vn 1.000000 0.000000 0.000000
vn 1.000000 0.000000 0.000000
vn 1.000000 0.000000 0.000000
vn 1.000000 0.000000 0.000000
vn 0.000000 -1.000000 0.000000
vn 0.000000 -1.000000 0.000000
vn -0.385827 -0.921260 0.000000
vn -0.385827 -0.921260 0.000000
vn -0.921260 -0.385827 0.000000
vn -0.921260 -0.385827 0.000000
vn -0.921260 0.385827 0.000000
vn -0.921260 0.385827 0.000000
vn -0.385827 0.921260 0.000000
vn -0.385827 0.921260 0.000000
vn 0.000000 1.000000 0.000000
vn 0.000000 1.000000 0.000000
tan 0.000000 0.708661 -0.708661 1.000000
tan 0.000000 -0.708661 -0.708661 1.000000
tan 0.275591 -0.614173 -0.740157 1.000000
tan 0.000000 0.708661 -0.708661 1.000000
tan 0.314961 -0.118110 -0.944882 1.000000
tan -0.314961 0.118110 -0.944882 1.000000
tan 0.000000 0.708661 0.708661 1.000000
tan 0.000000 0.708661 0.708661 1.000000
tan 0.314961 0.944882 -0.118110 1.000000
tan -0.314961 0.944882 0.118110 1.000000
tan 0.000000 -0.708661 0.708661 1.000000
tan 0.000000 -0.708661 0.708661 1.000000
tan 0.000000 -0.708661 -0.708661 1.000000
tan 0.314961 0.118110 0.944882 1.000000
tan -0.314961 -0.118110 0.944882 1.000000
tan -0.275591 -0.740157 -0.614173 1.000000
tan -0.314961 -0.944882 -0.118110 1.000000
tan 0.314961 -0.944882 0.118110 1.000000
tan 0.000000 1.000000 0.000000 1.000000
tan 0.000000 1.000000 0.000000 1.000000
tan 0.047244 1.000000 0.000000 1.000000
tan 0.000000 1.000000 0.000000 1.000000
tan 0.047244 1.000000 0.000000 1.000000
tan 0.000000 1.000000 0.000000 1.000000
tan -0.047244 1.000000 0.000000 1.000000
tan -0.047244 1.000000 0.000000 1.000000
tan -0.338583 0.937008 -0.055118 1.000000
tan -0.338583 0.937008 0.055118 1.000000
tan 0.338583 0.937008 0.055118 1.000000
tan 0.338583 0.937008 -0.055118 1.000000
tan 0.000000 1.000000 0.000000 1.000000
tan 0.000000 1.000000 0.000000 1.000000
tan 0.000000 1.000000 0.000000 1.000000
tan 0.000000 1.000000 0.000000 1.000000
tan 0.000000 1.000000 0.000000 1.000000
tan 0.000000 1.000000 0.000000 1.000000
tan 0.000000 1.000000 0.000000 1.000000
tan 0.000000 1.000000 0.000000 1.000000
tan 0.000000 1.000000 0.000000 1.000000
tan 0.000000 1.000000 0.000000 1.000000
tan 0.000000 -0.755906 0.653543 1.000000
tan 0.000000 0.771654 0.637795 1.000000
tan 0.000000 0.763780 0.645669 1.000000
tan 0.000000 -0.771654 0.637795 1.000000
tan 0.000000 0.779528 -0.629921 1.000000
tan 0.000000 0.795276 0.606299 1.000000
tan 0.000000 0.771654 -0.637795 1.000000
tan 0.000000 0.771654 0.637795 1.000000
tan -0.826772 0.000000 -0.566929 1.000000
tan -0.464567 0.000000 -0.881890 1.000000
tan -0.464567 0.000000 -0.881890 1.000000
tan -0.826772 0.000000 -0.566929 1.000000
tan 0.464567 0.000000 -0.881890 1.000000
tan 0.464567 0.000000 -0.881890 1.000000
tan 0.826772 0.000000 -0.566929 1.000000
tan 0.826772 0.000000 -0.566929 1.000000
tan 1.000000 0.000000 0.000000 1.000000
tan 1.000000 0.000000 0.000000 1.000000
tan 1.000000 0.000000 0.000000 1.000000
tan 1.000000 0.000000 0.000000 1.000000
tan 0.464567 0.000000 -0.881890 1.000000
tan -0.464567 0.000000 -0.881890 1.000000
tan -0.464567 0.000000 -0.881890 1.000000
tan 0.464567 0.000000 -0.881890 1.000000
tan 1.000000 0.000000 0.000000 1.000000
tan 1.000000 0.000000 0.000000 1.000000
tan 1.000000 0.000000 0.000000 1.000000
tan 1.000000 0.000000 0.000000 1.000000
tan -1.000000 0.000000 0.000000 1.000000
tan -0.708661 0.000000 -0.708661 1.000000
tan -0.708661 0.000000 -0.708661 1.000000
tan -1.000000 0.000000 0.000000 1.000000
tan -1.000000 0.000000 0.000000 1.000000
tan -1.000000 0.000000 0.000000 1.000000
tan -1.000000 0.000000 0.000000 1.000000
tan -1.000000 0.000000 0.000000 1.000000
tan 0.708661 0.000000 0.708661 1.000000
tan 0.708661 0.000000 0.708661 1.000000
tan 0.000000 0.000000 1.000000 1.000000
tan 0.000000 0.000000 1.000000 1.000000
tan 1.000000 0.000000 0.000000 1.000000
tan 1.000000 0.000000 0.000000 1.000000
tan 1.000000 0.000000 0.000000 1.000000
tan 1.000000 0.000000 0.000000 1.000000
tan 0.708661 0.000000 -0.708661 1.000000
tan 0.708661 0.000000 -0.708661 1.000000
tan 1.000000 0.000000 0.000000 1.000000
tan 1.000000 0.000000 0.000000 1.000000
tan -1.000000 0.000000 0.000000 1.000000
tan -1.000000 0.000000 0.000000 1.000000
tan -1.000000 0.000000 0.000000 1.000000
tan -1.000000 0.000000 0.000000 1.000000
tan 0.000000 0.000000 -1.000000 1.000000
tan 0.000000 0.000000 -1.000000 1.000000
tan 0.708661 0.000000 -0.708661 1.000000
tan 0.708661 0.000000 -0.708661 1.000000
tan 1.000000 0.000000 0.000000 1.000000
tan 1.000000 0.000000 0.000000 1.000000
tan 1.000000 0.000000 0.000000 1.000000
tan 1.000000 0.000000 0.000000 1.000000
tan -1.000000 0.000000 0.000000 1.000000
tan -1.000000 0.000000 0.000000 1.000000
tan -0.818898 -0.440945 0.370079 1.000000
tan -0.818898 -0.440945 -0.362205 1.000000
tan -0.157480 -0.763780 0.629921 1.000000
tan -1.000000 0.000000 0.000000 1.000000
tan -1.000000 0.000000 0.000000 1.000000
tan -0.818898 0.440945 -0.370079 1.000000
tan -0.157480 -0.755906 -0.629921 1.000000
tan 0.000000 -0.779528 0.622047 1.000000
tan 0.000000 -0.771654 -0.637795 1.000000
tan 0.000000 0.763780 -0.645669 1.000000
tan -0.157480 0.763780 -0.629921 1.000000
tan -1.000000 0.000000 0.000000 1.000000
tan -1.000000 0.000000 0.000000 1.000000
tan -0.818898 0.440945 0.362205 1.000000
tan -1.000000 0.000000 0.000000 1.000000
tan -1.000000 0.000000 0.000000 1.000000
tan -0.818898 -0.440945 0.362205 1.000000
tan -0.157480 -0.755906 0.637795 1.000000
tan -0.157480 0.763780 0.629921 1.000000
tan 0.000000 0.779528 -0.622047 1.000000
tan 0.000000 0.763780 0.645669 1.000000
tan 0.000000 -0.771654 0.637795 1.000000
tan 0.000000 -0.787402 -0.622047 1.000000
tan 0.000000 -0.771654 0.637795 1.000000
tan 0.000000 -0.779528 0.629921 1.000000
tan 0.000000 -0.763780 -0.645669 1.000000
tan 0.000000 0.755906 -0.653543 1.000000
tan 0.000000 0.771654 -0.637795 1.000000
tan -1.000000 0.000000 0.000000 1.000000
tan -1.000000 0.000000 0.000000 1.000000
tan -0.921260 0.385827 0.000000 1.000000
tan -0.921260 0.385827 0.000000 1.000000
tan -0.385827 0.921260 0.000000 1.000000
tan -0.385827 0.921260 0.000000 1.000000
tan 0.385827 0.921260 0.000000 1.000000
tan 0.385827 0.921260 0.000000 1.000000
tan 0.921260 0.385827 0.000000 1.000000
tan 0.921260 0.385827 0.000000 1.000000
tan 1.000000 0.000000 0.000000 1.000000
tan 1.000000 0.000000 0.000000 1.000000
f 3/3/3 2/2/2 1/1/1
f 1/1/1 4/4/4 3/3/3
f 5/5/5 3/3/3 4/4/4
f 4/4/4 6/6/6 5/5/5
f 1/1/1 7/7/7 4/4/4
f 8/8/8 4/4/4 7/7/7
f 4/4/4 8/8/8 9/9/9
f 8/8/8 10/10/10 9/9/9
f 7/7/7 11/11/11 8/8/8
f 12/12/12 8/8/8 11/11/11
f 11/11/11 13/13/13 12/12/12
f 8/8/8 12/12/12 14/14/14
f 15/15/15 14/14/14 12/12/12
f 16/16/16 12/12/12 13/13/13
f 16/16/16 17/17/17 12/12/12
f 18/18/18 12/12/12 17/17/17
f 21/21/21 20/20/20 19/19/19
f 20/20/20 21/21/21 22/22/22
f 23/23/23 21/21/21 19/19/19
f 23/23/23 19/19/19 24/24/24
f 25/25/25 24/24/24 22/22/22
f 25/25/25 23/23/23 24/24/24
f 26/26/26 25/25/25 22/22/22
f 26/26/26 22/22/22 21/21/21
f 27/27/27 25/25/25 26/26/26
f 25/25/25 27/27/27 23/23/23
f 28/28/28 27/27/27 26/26/26
f 26/26/26 21/21/21 28/28/28
f 29/29/29 23/23/23 27/27/27
f 21/21/21 30/30/30 28/28/28
f 29/29/29 30/30/30 23/23/23
f 30/30/30 21/21/21 23/23/23
f 33/33/33 32/32/32 31/31/31
f 32/32/32 33/33/33 34/34/34
f 35/35/35 34/34/34 33/33/33
f 34/34/34 35/35/35 36/36/36
f 39/39/39 38/38/38 37/37/37
f 40/40/40 38/38/38 39/39/39
f 43/43/43 42/42/42 41/41/41
f 44/44/44 43/43/43 41/41/41
f 47/47/47 46/46/46 45/45/45
f 48/48/48 45/45/45 46/46/46
f 51/51/51 50/50/50 49/49/49
f 52/52/52 49/49/49 50/50/50
f 55/55/55 54/54/54 53/53/53
f 53/53/53 56/56/56 55/55/55
f 59/59/59 58/58/58 57/57/57
f 60/60/60 58/58/58 59/59/59
f 63/63/63 62/62/62 61/61/61
f 64/64/64 61/61/61 62/62/62
f 67/67/67 66/66/66 65/65/65
f 65/65/65 66/66/66 68/68/68
f 71/71/71 70/70/70 69/69/69
f 72/72/72 69/69/69 70/70/70
f 75/75/75 74/74/74 73/73/73
f 76/76/76 74/74/74 75/75/75
f 79/79/79 78/78/78 77/77/77
f 80/80/80 79/79/79 77/77/77
f 83/83/83 82/82/82 81/81/81
f 84/84/84 82/82/82 83/83/83
f 87/87/87 86/86/86 85/85/85
f 85/85/85 88/88/88 87/87/87
f 91/91/91 90/90/90 89/89/89
f 92/92/92 89/89/89 90/90/90
f 95/95/95 94/94/94 93/93/93
f 96/96/96 95/95/95 93/93/93
f 99/99/99 98/98/98 97/97/97
f 100/100/100 97/97/97 98/98/98
f 103/103/103 102/102/102 101/101/101
f 101/101/101 104/104/104 103/103/103
f 105/105/105 103/103/103 104/104/104
f 107/107/107 106/106/106 104/104/104
f 108/108/108 104/104/104 106/106/106
f 104/104/104 109/109/109 105/105/105
f 104/104/104 108/108/108 109/109/109
f 110/110/110 105/105/105 109/109/109
f 109/109/109 111/111/111 110/110/110
f 111/111/111 109/109/109 112/112/112
f 113/113/113 112/112/112 109/109/109
f 108/108/108 113/113/113 109/109/109
f 115/115/115 114/114/114 108/108/108
f 116/116/116 108/108/108 114/114/114
f 108/108/108 116/116/116 113/113/113
f 118/118/118 117/117/117 116/116/116
f 119/119/119 116/116/116 117/117/117
f 119/119/119 120/120/120 116/116/116
f 121/121/121 113/113/113 116/116/116
f 121/121/121 116/116/116 120/120/120
f 113/113/113 121/121/121 122/122/122
f 123/123/123 122/122/122 121/121/121
f 121/121/121 120/120/120 123/123/123
f 120/120/120 124/124/124 123/123/123
f 127/127/127 126/126/126 125/125/125
f 125/125/125 128/128/128 127/127/127
f 128/128/128 125/125/125 129/129/129
f 130/130/130 128/128/128 129/129/129
f 133/133/133 132/132/132 131/131/131
f 134/134/134 132/132/132 133/133/133
f 135/135/135 134/134/134 133/133/133
f 133/133/133 136/136/136 135/135/135
f 137/137/137 135/135/135 136/136/136
f 138/138/138 135/135/135 137/137/137
f 139/139/139 138/138/138 137/137/137
f 137/137/137 140/140/140 139/139/139
f 141/141/141 139/139/139 140/140/140
f 142/142/142 139/139/139 141/141/141
