mtllib wall_tiny_B.mtl
g wall_tiny_B
#Vertices 118
#Indices 216
#Section 0 Offset 0 NumIndices 30 MaterialIndex 0 tile_A_2_Mat
#Section 1 Offset 30 NumIndices 186 MaterialIndex 1 edgesAndBars_mat
v 0.130000 1.300000 -0.000000
v 0.130000 -1.300000 0.000000
v 0.130000 1.300000 1.040000
v 0.130000 -1.300000 1.040000
v -0.130000 -1.300000 0.000000
v -0.130000 1.300000 -0.000000
v -0.130000 -1.300000 1.040000
v -0.130000 1.300000 1.040000
v 0.130000 -1.300000 1.040000
v 0.130000 -1.300000 0.000000
v 0.043333 -1.358287 1.040000
v 0.043333 -1.358287 0.000000
v -0.043333 -1.358287 1.040000
v -0.043333 -1.358287 0.000000
v -0.130000 -1.300000 1.040000
v -0.130000 -1.300000 0.000000
v 0.130000 -1.300000 1.092000
v 0.130000 1.300000 1.092000
v 0.160459 1.300000 1.071200
v 0.160459 -1.330564 1.071200
v 0.130000 -1.300000 0.988000
v 0.160459 1.300000 1.008800
v 0.130000 1.300000 0.988000
v 0.160459 -1.330564 1.008800
v 0.130000 1.300000 1.092000
v 0.130000 1.300000 0.988000
v 0.160459 1.300000 1.071200
v 0.160459 1.300000 1.008800
v 0.160459 -1.330564 1.071200
v 0.160459 1.300000 1.071200
v 0.160459 1.300000 1.008800
v 0.160459 -1.330564 1.008800
v 0.130000 -1.300000 0.218150
v 0.130000 1.300000 0.218150
v 0.160459 1.300000 0.218150
v 0.160459 -1.330564 0.218150
v 0.130000 1.300000 0.218150
v 0.130000 1.300000 -0.000000
v 0.160459 1.300000 0.218150
v 0.160459 1.300000 -0.000000
v 0.160459 -1.330564 0.218150
v 0.160459 1.300000 0.218150
v 0.160459 1.300000 -0.000000
v 0.160459 -1.330564 0.000000
v -0.160459 1.300000 1.071200
v -0.130000 -1.300000 1.092000
v -0.160459 -1.330564 1.071200
v -0.130000 1.300000 1.092000
v -0.160459 1.300000 1.008800
v -0.160459 -1.330564 1.008800
v -0.130000 -1.300000 0.988000
v -0.130000 1.300000 0.988000
v -0.160459 1.300000 1.071200
v -0.160459 -1.330564 1.071200
v -0.160459 -1.330564 1.008800
v -0.160459 1.300000 1.008800
v -0.160459 1.300000 1.008800
v -0.130000 1.300000 1.092000
v -0.160459 1.300000 1.071200
v -0.130000 1.300000 0.988000
v -0.160459 1.300000 0.218150
v -0.130000 -1.300000 0.218150
v -0.160459 -1.330564 0.218150
v -0.130000 1.300000 0.218150
v -0.160459 1.300000 0.218150
v -0.160459 -1.330564 0.218150
v -0.160459 -1.330564 0.000000
v -0.160459 1.300000 -0.000000
v -0.160459 1.300000 0.218150
v -0.160459 1.300000 -0.000000
v -0.130000 1.300000 0.218150
v -0.130000 1.300000 -0.000000
v 0.160459 -1.330564 0.218150
v 0.160459 -1.330564 0.000000
v 0.053486 -1.388851 0.218150
v 0.053486 -1.388851 0.000000
v -0.053486 -1.388851 0.218150
v -0.053486 -1.388851 0.000000
v -0.160459 -1.330564 0.218150
v -0.160459 -1.330564 0.000000
v -0.160459 -1.330564 1.008800
v -0.053486 -1.388851 1.008800
v -0.130000 -1.300000 0.988000
v -0.043333 -1.358287 0.988000
v 0.053486 -1.388851 1.008800
v 0.043333 -1.358287 0.988000
v 0.130000 -1.300000 0.988000
v 0.160459 -1.330564 1.008800
v -0.160459 -1.330564 1.071200
v -0.053486 -1.388851 1.008800
v -0.160459 -1.330564 1.008800
v -0.053486 -1.388851 1.071200
v 0.053486 -1.388851 1.008800
v 0.053486 -1.388851 1.071200
v 0.160459 -1.330564 1.008800
v 0.160459 -1.330564 1.071200
v -0.130000 -1.300000 1.092000
v -0.053486 -1.388851 1.071200
v -0.160459 -1.330564 1.071200
v -0.043333 -1.358287 1.092000
v 0.053486 -1.388851 1.071200
v 0.043333 -1.358287 1.092000
v 0.130000 -1.300000 1.092000
v 0.160459 -1.330564 1.071200
v -0.130000 -1.300000 0.218150
v -0.053486 -1.388851 0.218150
v -0.160459 -1.330564 0.218150
v -0.043333 -1.358287 0.218150
v 0.053486 -1.388851 0.218150
v 0.043333 -1.358287 0.218150
v 0.130000 -1.300000 0.218150
v 0.160459 -1.330564 0.218150
v -0.130000 -1.300000 1.092000
v -0.130000 1.300000 1.092000
v 0.130000 1.300000 1.092000
v 0.130000 -1.300000 1.092000
v 0.043333 -1.358287 1.092000
v -0.043333 -1.358287 1.092000
vt 0.000000 1.000000
vt 1.000000 0.999512
vt -0.000000 0.561523
vt 0.999512 0.561523
vt 0.000000 1.000000
vt 1.000000 0.999512
vt -0.000000 0.561523
vt 0.999512 0.561523
vt 0.000045 0.562012
vt 0.000045 0.999512
vt 0.028152 0.562012
vt 0.028152 0.999512
vt 0.056244 0.562012
vt 0.056244 0.999512
vt 0.084351 0.562012
vt 0.084351 0.999512
vt 0.269531 -0.676270
vt 0.269531 1.639648
vt 0.283447 1.639648
vt 0.283447 -0.676270
vt 0.283691 -0.676270
vt 0.269531 1.639648
vt 0.283691 1.639648
vt 0.269531 -0.676270
vt 0.292969 0.375732
vt 0.292969 0.588867
vt 0.266357 0.418213
vt 0.266357 0.545898
vt 0.270264 -0.674805
vt 0.270264 1.640625
vt 0.357910 1.640625
vt 0.357910 -0.674805
vt 0.137817 -0.673828
vt 0.137817 1.641602
vt 0.161255 1.641602
vt 0.161255 -0.673828
vt 0.085022 0.338867
vt 0.085022 0.598145
vt 0.100647 0.338867
vt 0.100647 0.598145
vt 0.165771 1.639648
vt 0.165771 -0.675293
vt 0.001411 -0.675293
vt 0.001411 1.639648
vt 0.283447 -0.676270
vt 0.269531 1.639648
vt 0.283447 1.639648
vt 0.269531 -0.676270
vt 0.269531 -0.676270
vt 0.269531 1.639648
vt 0.283691 1.639648
vt 0.283691 -0.676270
vt 0.270264 -0.674805
vt 0.270264 1.640625
vt 0.357910 1.640625
vt 0.357910 -0.674805
vt 0.265869 0.545898
vt 0.292969 0.375732
vt 0.265869 0.418213
vt 0.292969 0.588867
vt 0.161255 -0.673828
vt 0.137817 1.641602
vt 0.161255 1.641602
vt 0.137817 -0.673828
vt 0.165771 1.639648
vt 0.165771 -0.675293
vt 0.001411 -0.675293
vt 0.001411 1.639648
vt 0.069397 0.338867
vt 0.069397 0.598145
vt 0.085022 0.338867
vt 0.085022 0.598145
vt 0.166260 0.393555
vt 0.000774 0.393555
vt 0.166382 0.474609
vt 0.000802 0.474854
vt 0.166382 0.555664
vt 0.000830 0.555664
vt 0.166382 0.637207
vt 0.000858 0.637207
vt 0.269531 0.751953
vt 0.269531 0.665527
vt 0.282471 0.727051
vt 0.282471 0.657227
vt 0.269531 0.579102
vt 0.282471 0.587402
vt 0.282471 0.517578
vt 0.269531 0.492920
vt 0.358887 0.751953
vt 0.269531 0.665527
vt 0.269531 0.751953
vt 0.358887 0.665527
vt 0.269531 0.579102
vt 0.358887 0.579102
vt 0.269531 0.492920
vt 0.358887 0.492920
vt 0.283691 0.727051
vt 0.269775 0.665527
vt 0.269775 0.751953
vt 0.283691 0.657227
vt 0.269775 0.579102
vt 0.283691 0.587402
vt 0.283691 0.517578
vt 0.269775 0.492920
vt 0.137329 0.498047
vt 0.161377 0.558105
vt 0.161377 0.474121
vt 0.137329 0.566406
vt 0.161377 0.642578
vt 0.137329 0.634766
vt 0.137329 0.703125
vt 0.161377 0.727051
vt 0.029083 0.051056
vt 0.029083 1.028320
vt 0.126831 1.028320
vt 0.126831 0.051056
vt 0.094238 0.029144
vt 0.061676 0.029144
vt1 0.007812 0.304199
vt1 0.749023 0.304199
vt1 0.007812 0.007812
vt1 0.749023 0.007812
vt1 0.007812 0.616699
vt1 0.749023 0.616699
vt1 0.007812 0.320312
vt1 0.749023 0.320312
vt1 0.007812 0.794922
vt1 0.304199 0.794922
vt1 0.007812 0.767090
vt1 0.304199 0.767090
vt1 0.007812 0.738770
vt1 0.304199 0.738770
vt1 0.007812 0.710938
vt1 0.304199 0.710938
vt1 0.007812 0.850098
vt1 0.757324 0.850098
vt1 0.757324 0.845703
vt1 0.007812 0.845703
vt1 0.007812 0.867188
vt1 0.753418 0.878906
vt1 0.753418 0.867188
vt1 0.007812 0.878906
vt1 0.641113 0.757812
vt1 0.641113 0.787109
vt1 0.632812 0.763672
vt1 0.632812 0.781250
vt1 0.007812 0.845703
vt1 0.757324 0.845703
vt1 0.757324 0.820312
vt1 0.007812 0.820312
vt1 0.007812 0.939941
vt1 0.753418 0.939941
vt1 0.753418 0.929688
vt1 0.007812 0.929688
vt1 0.601562 0.710938
vt1 0.601562 0.772949
vt1 0.609863 0.710938
vt1 0.609863 0.772949
vt1 0.929199 0.757812
vt1 0.929199 0.007812
vt1 0.867188 0.007812
vt1 0.867188 0.757812
vt1 0.949219 0.007812
vt1 0.945312 0.757324
vt1 0.949219 0.757324
vt1 0.945312 0.007812
vt1 0.007812 0.910156
vt1 0.753418 0.910156
vt1 0.753418 0.898438
vt1 0.007812 0.897949
vt1 0.949219 0.007812
vt1 0.949219 0.757324
vt1 0.975098 0.757324
vt1 0.975098 0.007812
vt1 0.632812 0.734375
vt1 0.641113 0.710938
vt1 0.632812 0.716797
vt1 0.641113 0.740234
vt1 0.007812 0.960938
vt1 0.753418 0.971191
vt1 0.753418 0.960938
vt1 0.007812 0.971191
vt1 0.757812 0.632812
vt1 0.007812 0.632812
vt1 0.007812 0.694824
vt1 0.757812 0.694824
vt1 0.570312 0.710938
vt1 0.570312 0.772949
vt1 0.578613 0.710938
vt1 0.578613 0.772949
vt1 0.320312 0.710938
vt1 0.320312 0.772949
vt1 0.353516 0.710938
vt1 0.353516 0.772949
vt1 0.386963 0.710938
vt1 0.386963 0.772949
vt1 0.420166 0.710938
vt1 0.420166 0.772949
vt1 0.421875 0.801270
vt1 0.387939 0.801270
vt1 0.412354 0.789062
vt1 0.384766 0.789062
vt1 0.354004 0.801270
vt1 0.357422 0.789062
vt1 0.329834 0.789062
vt1 0.320312 0.801270
vt1 0.545410 0.714844
vt1 0.511719 0.740234
vt1 0.545410 0.740234
vt1 0.511719 0.714844
vt1 0.478516 0.740234
vt1 0.478516 0.714844
vt1 0.445312 0.740234
vt1 0.445312 0.714844
vt1 0.535645 0.710938
vt1 0.511719 0.714844
vt1 0.545410 0.714844
vt1 0.508789 0.710938
vt1 0.478516 0.714844
vt1 0.481689 0.710938
vt1 0.454590 0.710938
vt1 0.445312 0.714844
vt1 0.454834 0.768555
vt1 0.479004 0.757812
vt1 0.445312 0.757812
vt1 0.482422 0.768555
vt1 0.512695 0.757812
vt1 0.509766 0.768555
vt1 0.537109 0.768555
vt1 0.546875 0.757812
vt1 0.773438 0.024429
vt1 0.773438 0.765625
vt1 0.847168 0.765625
vt1 0.847168 0.024429
vt1 0.822754 0.007812
vt1 0.797852 0.007812
vn 1.000000 0.000000 0.000000
vn 1.000000 0.000000 0.000000
vn 1.000000 0.000000 0.000000
vn 1.000000 0.000000 0.000000
vn -1.000000 0.000000 0.000000
vn -1.000000 0.000000 0.000000
vn -1.000000 0.000000 0.000000
vn -1.000000 0.000000 0.000000
vn 0.559055 -0.826772 0.000000
vn 0.559055 -0.826772 0.000000
vn 0.291339 -0.952756 0.000000
vn 0.291339 -0.952756 0.000000
vn -0.291339 -0.952756 0.000000
vn -0.291339 -0.952756 0.000000
vn -0.559055 -0.826772 0.000000
vn -0.559055 -0.826772 0.000000
vn 0.566929 0.000000 0.826772
vn 0.566929 0.000000 0.826772
vn 0.881890 0.000000 0.464567
vn 0.944882 0.000000 0.330709
vn 0.566929 0.000000 -0.826772
vn 0.881890 0.000000 -0.464567
vn 0.566929 0.000000 -0.826772
vn 0.944882 0.000000 -0.330709
vn 0.000000 1.000000 0.000000
vn 0.000000 1.000000 0.000000
vn 0.000000 1.000000 0.000000
vn 0.000000 1.000000 0.000000
vn 0.944882 0.000000 0.330709
vn 0.881890 0.000000 0.464567
vn 0.881890 0.000000 -0.464567
vn 0.944882 0.000000 -0.330709
vn 0.000000 0.000000 1.000000
vn 0.000000 0.000000 1.000000
vn 0.708661 0.000000 0.708661
vn 0.897638 0.000000 0.448819
vn 0.000000 1.000000 0.000000
vn 0.000000 1.000000 0.000000
vn 0.000000 1.000000 0.000000
vn 0.000000 1.000000 0.000000
vn 0.897638 0.000000 0.448819
vn 0.708661 0.000000 0.708661
vn 1.000000 0.000000 0.000000
vn 1.000000 0.000000 0.000000
vn -0.881890 0.000000 0.464567
vn -0.566929 0.000000 0.826772
vn -0.944882 0.000000 0.330709
vn -0.566929 0.000000 0.826772
vn -0.881890 0.000000 -0.464567
vn -0.944882 0.000000 -0.330709
vn -0.566929 0.000000 -0.826772
vn -0.566929 0.000000 -0.826772
vn -0.881890 0.000000 0.464567
vn -0.944882 0.000000 0.330709
vn -0.944882 0.000000 -0.330709
vn -0.881890 0.000000 -0.464567
vn 0.000000 1.000000 0.000000
vn 0.000000 1.000000 0.000000
vn 0.000000 1.000000 0.000000
vn 0.000000 1.000000 0.000000
vn -0.708661 0.000000 0.708661
vn 0.000000 0.000000 1.000000
vn -0.897638 0.000000 0.448819
vn 0.000000 0.000000 1.000000
vn -0.708661 0.000000 0.708661
vn -0.897638 0.000000 0.448819
vn -1.000000 0.000000 0.000000
vn -1.000000 0.000000 0.000000
vn 0.000000 1.000000 0.000000
vn 0.000000 1.000000 0.000000
vn 0.000000 1.000000 0.000000
vn 0.000000 1.000000 0.000000
vn 0.370079 -0.677165 0.629921
vn 0.480315 -0.881890 0.000000
vn 0.188976 -0.732283 0.653543
vn 0.244094 -0.968504 0.000000
vn -0.188976 -0.732283 0.653543
vn -0.244094 -0.968504 0.000000
vn -0.370079 -0.677165 0.629921
vn -0.480315 -0.881890 0.000000
vn -0.433071 -0.771654 -0.456693
vn -0.220472 -0.858268 -0.464567
vn -0.251969 -0.425197 -0.866142
vn -0.125984 -0.496063 -0.858268
vn 0.220472 -0.858268 -0.464567
vn 0.125984 -0.496063 -0.858268
vn 0.251969 -0.425197 -0.866142
vn 0.433071 -0.771654 -0.456693
vn -0.433071 -0.771654 0.456693
vn -0.220472 -0.858268 -0.464567
vn -0.433071 -0.771654 -0.456693
vn -0.220472 -0.858268 0.464567
vn 0.220472 -0.858268 -0.464567
vn 0.220472 -0.858268 0.464567
vn 0.433071 -0.771654 -0.456693
vn 0.433071 -0.771654 0.456693
vn -0.251969 -0.425197 0.866142
vn -0.220472 -0.858268 0.464567
vn -0.433071 -0.771654 0.456693
vn -0.125984 -0.496063 0.858268
vn 0.220472 -0.858268 0.464567
vn 0.125984 -0.496063 0.858268
vn 0.251969 -0.425197 0.866142
vn 0.433071 -0.771654 0.456693
vn 0.000000 0.000000 1.000000
vn -0.188976 -0.732283 0.653543
vn -0.370079 -0.677165 0.629921
vn 0.000000 0.000000 1.000000
vn 0.188976 -0.732283 0.653543
vn 0.000000 0.000000 1.000000
vn 0.000000 0.000000 1.000000
vn 0.370079 -0.677165 0.629921
vn 0.000000 0.000000 1.000000
vn 0.000000 0.000000 1.000000
vn 0.000000 0.000000 1.000000
vn 0.000000 0.000000 1.000000
vn 0.000000 0.000000 1.000000
vn 0.000000 0.000000 1.000000
tan 0.000000 -1.000000 0.000000 1.000000
tan 0.000000 -1.000000 0.000000 1.000000
tan 0.000000 -1.000000 0.000000 1.000000
tan 0.000000 -1.000000 0.000000 1.000000
tan 0.000000 1.000000 0.000000 1.000000
tan 0.000000 1.000000 0.000000 1.000000
tan 0.000000 1.000000 0.000000 1.000000
tan 0.000000 1.000000 0.000000 1.000000
tan -0.826772 -0.559055 0.000000 1.000000
tan -0.826772 -0.559055 0.000000 1.000000
tan -0.952756 -0.291339 0.000000 1.000000
tan -0.952756 -0.291339 0.000000 1.000000
tan -0.952756 0.291339 0.000000 1.000000
tan -0.952756 0.291339 0.000000 1.000000
tan -0.826772 0.559055 0.000000 1.000000
tan -0.826772 0.559055 0.000000 1.000000
tan 0.637795 -0.637795 -0.433071 1.000000
tan 0.826772 0.000000 -0.566929 1.000000
tan 0.464567 -0.007874 -0.881890 1.000000
tan 0.228346 -0.716535 -0.661417 1.000000
tan -0.637795 0.637795 -0.433071 1.000000
tan -0.464567 0.007874 -0.881890 1.000000
tan -0.826772 0.000000 -0.566929 1.000000
tan -0.228346 0.716535 -0.661417 1.000000
tan -1.000000 0.000000 0.000000 1.000000
tan -1.000000 0.000000 0.000000 1.000000
tan -1.000000 0.000000 0.000000 1.000000
tan -1.000000 0.000000 0.000000 1.000000
tan 0.330709 0.000000 -0.944882 1.000000
tan 0.464567 0.000000 -0.881890 1.000000
tan -0.464567 0.000000 -0.881890 1.000000
tan -0.330709 0.000000 -0.944882 1.000000
tan 0.708661 -0.708661 0.000000 1.000000
tan 1.000000 0.000000 0.000000 1.000000
tan 0.708661 -0.007874 -0.708661 1.000000
tan 0.181102 -0.913386 -0.362205 1.000000
tan 1.000000 0.000000 0.000000 1.000000
tan 1.000000 0.000000 0.000000 1.000000
tan 1.000000 0.000000 0.000000 1.000000
tan 1.000000 0.000000 0.000000 1.000000
tan -0.448819 0.000000 0.897638 1.000000
tan -0.708661 0.000000 0.708661 1.000000
tan 0.000000 0.000000 1.000000 1.000000
tan 0.000000 0.000000 1.000000 1.000000
tan -0.464567 -0.007874 -0.881890 1.000000
tan -0.637795 -0.637795 -0.433071 1.000000
tan -0.228346 -0.716535 -0.661417 1.000000
tan -0.826772 0.000000 -0.566929 1.000000
tan 0.464567 0.007874 -0.881890 1.000000
tan 0.228346 0.716535 -0.661417 1.000000
tan 0.637795 0.637795 -0.433071 1.000000
tan 0.826772 0.000000 -0.566929 1.000000
tan -0.464567 0.000000 -0.881890 1.000000
tan -0.330709 0.000000 -0.944882 1.000000
tan 0.330709 0.000000 -0.944882 1.000000
tan 0.464567 0.000000 -0.881890 1.000000
tan 1.000000 0.000000 0.000000 1.000000
tan 1.000000 0.000000 0.000000 1.000000
tan 1.000000 0.000000 0.000000 1.000000
tan 1.000000 0.000000 0.000000 1.000000
tan -0.708661 -0.007874 -0.708661 1.000000
tan -0.708661 -0.708661 0.000000 1.000000
tan -0.181102 -0.913386 -0.362205 1.000000
tan -1.000000 0.000000 0.000000 1.000000
tan 0.708661 0.000000 0.708661 1.000000
tan 0.448819 0.000000 0.897638 1.000000
tan 0.000000 0.000000 1.000000 1.000000
tan 0.000000 0.000000 1.000000 1.000000
tan 1.000000 0.000000 0.000000 1.000000
tan 1.000000 0.000000 0.000000 1.000000
tan 1.000000 0.000000 0.000000 1.000000
tan 1.000000 0.000000 0.000000 1.000000
tan -0.307087 0.559055 0.771654 1.000000
tan 0.000000 0.000000 1.000000 1.000000
tan -0.165354 0.637795 0.755906 1.000000
tan 0.000000 0.000000 1.000000 1.000000
tan 0.157480 0.637795 0.755906 1.000000
tan 0.000000 0.000000 1.000000 1.000000
tan 0.299213 0.559055 0.771654 1.000000
tan 0.000000 0.000000 1.000000 1.000000
tan -0.267717 0.598425 -0.755906 1.000000
tan -0.125984 0.496063 -0.858268 1.000000
tan -0.007874 0.897638 -0.433071 1.000000
tan 0.000000 0.866142 -0.503937 1.000000
tan 0.125984 0.496063 -0.858268 1.000000
tan 0.000000 0.866142 -0.503937 1.000000
tan 0.007874 0.897638 -0.433071 1.000000
tan 0.267717 0.598425 -0.755906 1.000000
tan 0.220472 0.401575 0.889764 1.000000
tan -0.118110 -0.448819 0.889764 1.000000
tan -0.220472 -0.401575 0.889764 1.000000
tan 0.118110 0.448819 0.889764 1.000000
tan 0.118110 -0.448819 0.889764 1.000000
tan -0.118110 0.448819 0.889764 1.000000
tan 0.220472 -0.401575 0.889764 1.000000
tan -0.220472 0.401575 0.889764 1.000000
tan -0.007874 0.897638 0.433071 1.000000
tan -0.125984 0.496063 0.858268 1.000000
tan -0.267717 0.598425 0.755906 1.000000
tan 0.000000 0.866142 0.503937 1.000000
tan 0.125984 0.496063 0.858268 1.000000
tan 0.000000 0.866142 0.503937 1.000000
tan 0.007874 0.897638 0.433071 1.000000
tan 0.267717 0.598425 0.755906 1.000000
tan 0.000000 -1.000000 0.000000 1.000000
tan 0.196850 -0.685039 -0.700787 1.000000
tan 0.346457 -0.732283 -0.582677 1.000000
tan 0.000000 -1.000000 0.000000 1.000000
tan -0.196850 -0.685039 -0.700787 1.000000
tan 0.000000 -1.000000 0.000000 1.000000
tan 0.000000 -1.000000 0.000000 1.000000
tan -0.346457 -0.732283 -0.582677 1.000000
tan 1.000000 0.000000 0.000000 1.000000
tan 1.000000 0.000000 0.000000 1.000000
tan 1.000000 0.000000 0.000000 1.000000
tan 1.000000 0.000000 0.000000 1.000000
tan 1.000000 0.000000 0.000000 1.000000
tan 1.000000 0.000000 0.000000 1.000000
f 3/3/3 2/2/2 1/1/1
f 2/2/2 3/3/3 4/4/4
f 7/7/7 6/6/6 5/5/5
f 6/6/6 7/7/7 8/8/8
f 11/11/11 10/10/10 9/9/9
f 12/12/12 10/10/10 11/11/11
f 13/13/13 12/12/12 11/11/11
f 14/14/14 12/12/12 13/13/13
f 15/15/15 14/14/14 13/13/13
f 16/16/16 14/14/14 15/15/15
f 19/19/19 18/18/18 17/17/17
f 17/17/17 20/20/20 19/19/19
f 23/23/23 22/22/22 21/21/21
f 24/24/24 21/21/21 22/22/22
f 27/27/27 26/26/26 25/25/25
f 28/28/28 26/26/26 27/27/27
f 31/31/31 30/30/30 29/29/29
f 32/32/32 31/31/31 29/29/29
f 35/35/35 34/34/34 33/33/33
f 33/33/33 36/36/36 35/35/35
f 39/39/39 38/38/38 37/37/37
f 40/40/40 38/38/38 39/39/39
f 43/43/43 42/42/42 41/41/41
f 44/44/44 43/43/43 41/41/41
f 47/47/47 46/46/46 45/45/45
f 48/48/48 45/45/45 46/46/46
f 51/51/51 50/50/50 49/49/49
f 49/49/49 52/52/52 51/51/51
f 55/55/55 54/54/54 53/53/53
f 56/56/56 55/55/55 53/53/53
f 59/59/59 58/58/58 57/57/57
f 57/57/57 58/58/58 60/60/60
f 63/63/63 62/62/62 61/61/61
f 64/64/64 61/61/61 62/62/62
f 67/67/67 66/66/66 65/65/65
f 68/68/68 67/67/67 65/65/65
f 71/71/71 70/70/70 69/69/69
f 72/72/72 70/70/70 71/71/71
f 75/75/75 74/74/74 73/73/73
f 76/76/76 74/74/74 75/75/75
f 77/77/77 76/76/76 75/75/75
f 78/78/78 76/76/76 77/77/77
f 77/77/77 79/79/79 78/78/78
f 80/80/80 78/78/78 79/79/79
f 83/83/83 82/82/82 81/81/81
f 84/84/84 82/82/82 83/83/83
f 84/84/84 85/85/85 82/82/82
f 85/85/85 84/84/84 86/86/86
f 86/86/86 87/87/87 85/85/85
f 88/88/88 85/85/85 87/87/87
f 91/91/91 90/90/90 89/89/89
f 90/90/90 92/92/92 89/89/89
f 90/90/90 93/93/93 92/92/92
f 93/93/93 94/94/94 92/92/92
f 93/93/93 95/95/95 94/94/94
f 95/95/95 96/96/96 94/94/94
f 99/99/99 98/98/98 97/97/97
f 100/100/100 97/97/97 98/98/98
f 98/98/98 101/101/101 100/100/100
f 102/102/102 100/100/100 101/101/101
f 101/101/101 103/103/103 102/102/102
f 104/104/104 103/103/103 101/101/101
f 107/107/107 106/106/106 105/105/105
f 108/108/108 105/105/105 106/106/106
f 106/106/106 109/109/109 108/108/108
f 110/110/110 108/108/108 109/109/109
f 110/110/110 109/109/109 111/111/111
f 112/112/112 111/111/111 109/109/109
f 115/115/115 114/114/114 113/113/113
f 113/113/113 116/116/116 115/115/115
f 117/117/117 116/116/116 113/113/113
f 118/118/118 117/117/117 113/113/113
